<?xml version="1.0" encoding="UTF-8"?>
<!DOCTYPE svg PUBLIC "-//W3C//DTD SVG 1.1//EN" "http://www.w3.org/Graphics/SVG/1.1/DTD/svg11.dtd">
<!-- Creator: CorelDRAW X6 -->
<svg xmlns="http://www.w3.org/2000/svg" xml:space="preserve" width="6.84722in" height="1.34722in" version="1.1" style="shape-rendering: geometricprecision; text-rendering: geometricprecision; image-rendering: optimizequality; fill-rule: evenodd; clip-rule: evenodd; --ml-background-lightness-limit: 0.14; --ml-zoom: 1 !important;" viewBox="0 0 6847 1347" xmlns:xlink="http://www.w3.org/1999/xlink" ml-is-active="" ml-update="aware">
 <defs>
  <style type="text/css">
   <![CDATA[
    .str1 {stroke:#00376C;stroke-width:0.299213}
    .str0 {stroke:#00376C;stroke-width:2.68898}
    .fil4 {fill:none}
    .fil3 {fill:none;fill-rule:nonzero}
    .fil1 {fill:#00376C}
    .fil2 {fill:#00376C;fill-rule:nonzero}
    .fil0 {fill:white;fill-rule:nonzero}
   ]]>
  </style>
 </defs>
 <g id="Layer_x0020_1">
  <metadata id="CorelCorpID_0Corel-Layer"/>
  <path class="fil0" d="M5492 668c0,-373 301,-676 673,-679l11 0c371,3 672,304 673,676l0 7c-2,373 -305,676 -679,676 -375,0 -679,-304 -679,-679l0 0z"/>
  <path class="fil1" d="M6081 500l-1 1 2 1 10 3 11 8 5 7 5 4c0,0 3,-2 1,-5l-3 -4 -6 -8 -4 -2 -5 -2 -6 -1 -6 0 -4 0 0 0zm5 42c0,0 -1,0 -1,0 0,0 -1,0 -1,-1l1 -1 2 -1 2 -1 2 -1 2 -1 4 -1 3 -1 2 -1 2 -1 3 -1 1 -1 0 -1 0 -1 -1 -1 -1 0c0,0 -1,0 -2,0 -1,0 -2,1 -2,1 0,0 -3,2 -3,2l-4 2 -3 1 -3 1 -3 0c0,0 -2,0 -3,0 -1,0 -3,0 -3,0 0,0 -2,0 -3,-1 0,0 0,-2 0,-1 0,0 1,-1 2,0 0,0 1,0 2,0l1 0 5 0 3 -1c0,0 1,0 1,-2l0 -2 0 -3 -1 -1 -2 -1 -3 -2c0,0 -1,-1 -2,-1 0,0 -2,-1 -2,-1l-2 0c0,0 -6,0 -7,2l-1 0 0 -5 1 -4 3 0 4 1 2 1 2 1 3 1 2 1 2 1 3 0 1 0 0 -1 -1 -2 -2 -2 -3 -2 -3 -2 -1 -1 -2 -1 -2 0 -3 0 -3 0c0,0 -3,0 -3,0 0,0 -1,-1 -1,-1l0 -3 0 -2 2 -1 2 -1 4 0 11 0 3 0 4 1 3 1 5 2 2 2 4 5 4 4 3 5 4 5 4 5c0,0 1,1 2,2 0,0 1,2 1,3l0 3c0,0 -1,2 -3,2l-4 0 -10 0c0,0 -4,0 -4,0l-3 1 -3 1 -2 1 -4 1 -4 1 -4 1 0 0z"/>
  <path class="fil2" d="M6408 920c2,-3 3,-11 31,-13 6,0 10,8 5,8 -2,0 -4,0 -4,0 -6,0 -4,4 -4,4 0,0 2,5 11,4 1,0 4,0 5,0 13,-3 3,-13 3,-13 -3,-3 -10,-5 -10,-5l-3 -1 -5 -1 -10 1c-15,3 -22,2 -22,2l3 14 0 0z"/>
  <path class="fil2" d="M6389 880l7 3c0,0 13,10 29,8 1,0 28,-3 39,9 0,-3 0,-7 0,-8 -4,-8 -22,-8 -22,-8 -20,5 -34,-2 -34,-2 0,0 -11,-8 -12,-9 -1,0 -9,-3 -9,-3l3 10 0 0z"/>
  <path class="fil1" d="M6474 892l-10 -15c-5,-6 -18,-6 -18,-6l-8 0c0,0 -12,1 -14,1 -13,1 -28,-5 -28,-5l-5 -2c0,0 -2,-6 -2,-7 0,-1 0,-6 0,-6 3,9 11,8 11,8 3,1 4,0 4,0l14 1 20 -1c0,0 9,1 9,1 16,1 21,18 21,18l3 14 0 0z"/>
  <polygon class="fil2" points="6474,841 6468,833 6463,829 6458,825 6452,821 6447,818 6440,815 6430,809 6422,805 6415,799 6409,795 6406,792 6405,785 6406,776 6408,769 6410,763 6411,756 6412,750 6412,746 6411,740 6410,734 6415,731 6418,736 6419,741 6419,746 6419,751 6419,758 6417,763 6415,770 6413,775 6412,780 6411,786 6412,791 6417,795 6424,797 6434,802 6443,805 6450,807 6456,811 6462,815 6468,819 6474,825 6480,832 6479,836 6474,841 "/>
  <path class="fil2" d="M6485 817c-5,-9 -19,-10 -19,-10 -1,0 -2,-2 -2,-2 0,0 0,-1 2,-1 6,-1 19,5 19,5l1 3 0 5 0 0z"/>
  <path class="fil3 str0" d="M6485 817c-5,-9 -19,-10 -19,-10 -1,0 -2,-2 -2,-2 0,0 0,-1 2,-1 6,-1 19,5 19,5l1 3 0 5 0 0z"/>
  <path class="fil2" d="M6421 740c0,0 8,8 10,13 -1,2 -9,22 -9,22 -3,12 0,18 8,16l48 3 -4 -13c0,0 -3,3 -6,2 -48,9 -36,-10 -36,-10 0,3 7,-18 7,-18 2,-5 -4,-13 -4,-13 0,-2 -13,-15 -13,-15l-6 3c0,0 5,7 6,9l0 0z"/>
  <path class="fil2" d="M6444 777c5,-6 8,-11 9,-13 6,-14 -10,-20 -10,-20 -2,-1 -10,-1 -10,-1l-8 -5c1,1 -4,-4 -4,-4 0,0 21,2 26,4 16,11 19,22 7,33l-4 8 -3 10 -7 0 4 -11 0 0z"/>
  <path class="fil2" d="M6450 859c0,-1 0,-3 0,-3l2 -10 1 -7 0 -3 0 -2 2 2 1 3 1 3 0 2 0 2 -2 4c0,0 -2,2 -1,9 0,1 1,3 1,3l-3 0c0,0 -2,-1 -2,-2 0,-1 -1,-2 -1,-3l0 0z"/>
  <path class="fil1" d="M6440 864l-2 -2 -2 -3 -1 -2 0 -2 1 -2 1 -4 1 -5 0 -6 -1 -4 -3 -5 -3 -3 -4 -4 -6 -3 -7 -3 -4 -2 -6 -3 -8 -6 -4 -4 -3 -4 -2 -6 0 -6 1 -5 2 -5 2 -4 2 -4 0 -8 0 -3 -1 -6 -1 -4 -1 -2c0,0 -2,-7 -1,-8 1,-1 7,-2 7,-2 -4,-1 8,1 6,3 1,1 0,5 0,5l0 5 -1 5 -1 4 -1 5 -1 4 -2 4 -1 4 -1 3 -2 6 0 6 2 6 3 5 4 4 4 2 7 4 7 3c0,0 4,2 5,2 1,1 8,4 8,4l3 3 4 4 3 4 1 5 0 8 -2 8 0 7 1 4 -1 2 -2 -1 0 0z"/>
  <path class="fil2" d="M6361 748l0 4 -1 10 -8 23c-2,8 -1,15 2,20l7 12 2 4c0,0 6,18 -2,22 -12,13 -15,-2 -15,-2l-6 -11 -4 -12c-1,-3 -7,-12 -7,-12l-3 -4 -3 -3 -4 -5 -4 -3 -2 -2c0,0 -2,-1 -3,-1 -1,0 -3,1 -3,1 0,0 -2,2 -2,3 0,1 2,4 2,4l3 2 6 3 4 4 5 6 4 6 4 11 2 8 4 8 5 9c6,7 17,3 17,3 1,0 4,-3 4,-3 0,0 4,1 4,-1 1,-2 2,-11 2,-11l0 -7 0 -5c0,-3 -3,-11 -3,-11l-9 -16c-5,-10 0,-22 0,-22l6 -15 2 -6 2 -10 0 -3c-2,-6 -8,-3 -9,-2 -1,0 -1,4 -1,4l0 0z"/>
  <path class="fil1" d="M6372 850l-1 4 -2 3 -2 2 -2 3 -4 4c-12,6 -20,2 -20,2 1,1 -6,-5 -6,-5l-15 -23 -6 -9 -10 -11c-14,-10 -20,2 -20,2l-2 3 8 -18c10,1 23,10 23,10l24 37 6 8c9,3 14,-2 14,-2 0,0 2,-2 3,-3 1,-2 6,-2 6,-2 0,0 2,-2 3,-2 1,0 5,-2 5,-2l0 0z"/>
  <path class="fil2" d="M6340 739l0 6c3,3 2,5 2,5 0,0 -2,3 -2,3l-4 4 -4 6 -2 6 -1 6c0,9 5,20 5,20l7 11c5,10 3,19 3,19l-2 7 4 8 1 3c0,0 1,-4 1,-5 0,-1 1,-17 1,-17 1,-6 -2,-14 -2,-14 -11,-16 -13,-23 -13,-23 -2,-9 -2,-13 1,-17l6 -8 3 -4 4 -3c0,0 1,-1 2,-3 1,-2 2,-3 2,-3l1 -2c0,0 0,-3 -2,-4 -2,-1 -4,-2 -4,-2l-5 -2 -4 3 0 0z"/>
  <path class="fil1" d="M6336 884c0,0 -3,-1 -3,-1l-5 0c-6,-2 -10,0 -10,0l-10 8 -6 5 -4 4c-3,3 -6,2 -6,2l-7 -5 2 -1 5 0 11 -7 10 -10 2 -2c0,-11 -8,-8 -8,-8l-2 2 -2 3c0,0 -2,1 -3,0 -1,-1 -2,-3 -2,-3 0,0 2,-4 5,-7 5,-2 8,-2 8,-2l0 -3c-3,-6 -12,-7 -12,-7 -15,1 -14,9 -14,9l-1 4 -5 -15 7 0c0,0 8,-3 9,-3 1,0 2,-1 8,0 6,1 14,11 14,11l7 15c1,2 2,3 2,3l7 4c0,0 3,4 4,4l0 0z"/>
  <path class="fil2" d="M6374 872c10,-24 15,-24 11,-53 0,-1 -16,-22 -16,-22 -1,-2 -1,-9 -1,-9 1,-9 7,-17 7,-17 2,-2 4,-8 4,-8l2 -12 0 -3 7 -3c0,0 -2,28 -5,30 -6,12 -7,21 -2,27l7 9c1,1 4,1 4,1l11 9 13 12 8 9c6,10 4,19 4,19 -1,0 -4,-1 -4,-1l0 -8c0,-5 -6,-10 -6,-10l-11 -11 -13 -10 -2 -1 0 3 1 2 3 4 17 24 4 7 -11 -1 -1 -4c-1,-10 -13,-21 -13,-21l-1 6 -1 15 2 7c0,0 0,11 0,10 0,-1 -19,-1 -19,-1l0 0z"/>
  <path class="fil2" d="M6341 745l4 3c55,4 68,-11 68,-11 5,-3 10,-12 10,-12l6 -2 -1 -8 -6 3 -6 1 -4 -1 -1 7c-2,9 -48,17 -48,17l-7 0 -6 0 -5 1 -4 2 0 0z"/>
  <path class="fil2" d="M6346 741c0,0 0,-4 1,-5 0,-1 2,-3 2,-3 25,0 61,-13 61,-13 5,-1 5,-2 5,-2 5,-7 1,-8 1,-8l-8 3c-27,14 -66,16 -66,16l-2 3 0 5 5 4 0 0z"/>
  <path class="fil2" d="M6342 727c-1,-3 3,-3 3,-3 18,0 51,-12 51,-12 1,0 11,-5 11,-5 4,-3 8,-2 8,-2l0 -7 -2 -5c0,0 -2,-3 -2,-2 0,1 -7,10 -7,10 -9,9 -42,16 -42,16l-7 1 -10 0c-5,0 -5,-8 -5,-8l-5 5 2 8 4 4 0 0z"/>
  <path class="fil1" d="M6414 693c-1,-5 -10,-2 -10,-2 -17,12 -46,18 -46,18 -15,-1 -17,4 -17,4 -6,-1 -7,-4 -7,-4 0,0 -2,-12 -2,-13 0,-1 -2,-3 -2,-3l4 1 7 8c24,1 34,-12 34,-12 13,-5 17,-6 21,-11 2,-2 3,-2 4,-2 1,0 13,-1 13,-1l2 17 0 0z"/>
  <path class="fil1" d="M6236 662c0,0 8,-6 8,-7 1,-1 3,-3 3,-4 1,-1 4,-3 4,-3 2,0 9,0 9,0 0,0 1,2 3,3 2,1 4,4 4,4l4 3c0,0 4,3 5,3 1,0 6,2 6,2l4 2 4 3 6 2 5 2 3 2 3 2 7 5 4 3 4 2c2,5 14,8 14,8l-3 -5 -2 -5 0 -6c0,0 -1,-4 -1,-4 0,-1 -1,-3 -1,-3l-5 -3 -4 -3 -8 -2 -4 -2 -6 -3c0,0 -5,-2 -6,-2 -1,0 -5,0 -5,0l-5 -2c-11,-6 -19,-14 -19,-14l-4 -4 -3 -1 -4 0 -6 0c0,0 -2,0 -14,8 -4,3 -8,1 -8,1 0,-1 2,7 2,7l4 7 3 3 0 0z"/>
  <path class="fil2" d="M6375 690c0,-2 -5,-4 -5,-4l-11 1 -9 -1 -5 -2 -4 -2 -3 -2 -3 -2 -7 -6 -4 -1 -4 -2 -3 -4 6 0c0,0 7,0 7,0 1,0 6,0 6,0 0,0 5,1 6,1 1,0 5,1 5,1l6 3 8 4c8,5 14,-1 14,-1l4 1c3,10 15,7 15,7 -1,2 -17,7 -17,7l0 0z"/>
  <path class="fil2" d="M6293 480l-3 -1 -4 -2 -3 -2 -4 -1 -4 -1 -4 -2 -6 -4 -3 -4 -3 -5 -5 -7 -3 -7 -1 -4 0 -2 1 -1c2,0 5,2 5,2 4,1 8,6 8,6l4 3 3 2 7 3 4 1 11 3c6,2 12,5 12,5 11,7 12,16 12,16l2 7 1 7 0 6 -1 8 1 4 2 5 1 3c0,2 0,4 0,4 -1,0 -4,-1 -4,-1 -1,-1 -3,-4 -3,-4l-2 -3 -1 -5 0 -7 -1 -6 0 -9c1,-9 -6,-18 -6,-18l-4 -4 -6 -3 -4 -2 -9 -2 -8 -1 -8 -4 -4 -3c-4,-1 -3,4 -3,4l2 4 3 4c6,4 9,4 9,4 0,0 10,0 11,1 1,0 4,1 4,1l3 2 3 2 3 4 0 3c-2,4 -7,2 -7,2l0 0z"/>
  <path class="fil3 str0" d="M6293 480l-3 -1 -4 -2 -3 -2 -4 -1 -4 -1 -4 -2 -6 -4 -3 -4 -3 -5 -5 -7 -3 -7 -1 -4 0 -2 1 -1c2,0 5,2 5,2 4,1 8,6 8,6l4 3 3 2 7 3 4 1 11 3c6,2 12,5 12,5 11,7 12,16 12,16l2 7 1 7 0 6 -1 8 1 4 2 5 1 3c0,2 0,4 0,4 -1,0 -4,-1 -4,-1 -1,-1 -3,-4 -3,-4l-2 -3 -1 -5 0 -7 -1 -6 0 -9c1,-9 -6,-18 -6,-18l-4 -4 -6 -3 -4 -2 -9 -2 -8 -1 -8 -4 -4 -3c-4,-1 -3,4 -3,4l2 4 3 4c6,4 9,4 9,4 0,0 10,0 11,1 1,0 4,1 4,1l3 2 3 2 3 4 0 3c-2,4 -7,2 -7,2l0 0z"/>
  <path class="fil2" d="M6338 629c-2,2 1,4 4,5 0,0 6,2 6,2 2,0 3,-2 3,-3 0,-1 -2,-2 -2,-2 -5,-4 -11,-2 -11,-2l0 0z"/>
  <path class="fil3 str0" d="M6338 629c-2,2 1,4 4,5 0,0 6,2 6,2 2,0 3,-2 3,-3 0,-1 -2,-2 -2,-2 -5,-4 -11,-2 -11,-2l0 0z"/>
  <path class="fil2" d="M6191 552c-1,0 -3,-1 -3,-1 -2,-3 -1,-6 -1,-6 0,0 1,-2 2,-2 1,0 2,-1 3,-1 4,-1 5,0 8,1 1,0 3,2 3,2l3 3c2,2 3,3 3,4 0,0 0,9 -1,10 -3,5 -7,7 -11,8l-15 4 -4 2 -2 3 -3 7c0,0 -3,-15 -3,-15 -1,0 -2,-9 -2,-9l10 8c15,0 23,-8 23,-8l1 -4c0,-2 0,-4 0,-4 0,0 -2,-3 -7,-2 -1,1 -4,2 -4,2l0 0z"/>
  <path class="fil3 str0" d="M6191 552c-1,0 -3,-1 -3,-1 -2,-3 -1,-6 -1,-6 0,0 1,-2 2,-2 1,0 2,-1 3,-1 4,-1 5,0 8,1 1,0 3,2 3,2l3 3c2,2 3,3 3,4 0,0 0,9 -1,10 -3,5 -7,7 -11,8l-15 4 -4 2 -2 3 -3 7c0,0 -3,-15 -3,-15 -1,0 -2,-9 -2,-9l10 8c15,0 23,-8 23,-8l1 -4c0,-2 0,-4 0,-4 0,0 -2,-3 -7,-2 -1,1 -4,2 -4,2l0 0z"/>
  <path class="fil2" d="M6119 376c2,-2 14,-7 14,-7 0,0 15,-5 15,-5 0,0 8,-2 10,-3 29,-5 52,-6 68,-6 31,0 56,7 56,7 15,3 46,15 46,15 6,2 27,13 37,30 1,1 23,36 23,36 7,14 15,44 15,44l4 17 5 20c8,30 10,46 10,46l2 14 3 25 1 13 3 21c1,2 -6,24 -6,24l-8 11 -7 2 0 -4 8 -11c1,0 6,-11 6,-12 0,-1 -2,-43 -2,-43l-1 -23 -1 -14c0,-2 -2,-18 -2,-18 0,-1 -4,-11 -4,-11l-4 -13 -4 -13 -4 -16 -2 -14c0,-5 -9,-29 -9,-29 -11,-25 -32,-51 -32,-51l-13 -12c-72,-44 -156,-35 -159,-35 0,0 -17,2 -33,5 -15,4 -24,8 -24,8 -4,2 -10,3 -10,3 -3,0 -2,-3 -2,-3l0 0z"/>
  <path class="fil2" d="M6247 387c2,1 4,2 8,5 17,11 31,18 44,22 1,1 26,11 33,26 6,9 8,17 8,17 0,-2 4,12 4,12l5 25 3 9c3,11 11,17 11,17l20 17c0,0 12,13 11,24 1,2 -2,3 -3,0 -1,-4 -2,-5 -3,-8 -2,-5 -12,-13 -12,-13l-12 -8 -12 -9 -8 -7c-5,-9 -4,-16 -4,-16l1 -12c1,-6 -5,-25 -5,-25l-2 -5 -2 -5 -4 -8c-1,0 -3,-2 -7,-7 -12,-13 -33,-20 -33,-20 -9,-2 -16,-4 -23,-7 -21,-13 -19,-22 -19,-22l0 0z"/>
  <path class="fil3 str0" d="M6247 387c2,1 4,2 8,5 17,11 31,18 44,22 1,1 26,11 33,26 6,9 8,17 8,17 0,-2 4,12 4,12l5 25 3 9c3,11 11,17 11,17l20 17c0,0 12,13 11,24 1,2 -2,3 -3,0 -1,-4 -2,-5 -3,-8 -2,-5 -12,-13 -12,-13l-12 -8 -12 -9 -8 -7c-5,-9 -4,-16 -4,-16l1 -12c1,-6 -5,-25 -5,-25l-2 -5 -2 -5 -4 -8c-1,0 -3,-2 -7,-7 -12,-13 -33,-20 -33,-20 -9,-2 -16,-4 -23,-7 -21,-13 -19,-22 -19,-22l0 0z"/>
  <path class="fil2" d="M6124 397c5,-3 24,-7 24,-7 1,-1 18,-3 19,-3 1,0 31,-4 31,-4 13,-1 23,3 23,3 4,1 7,4 7,4l17 13 17 12c0,0 10,5 12,6 2,1 23,8 25,8 2,1 18,8 18,8 0,0 22,13 20,22 -9,-10 -26,-17 -26,-17 -46,-15 -53,-23 -53,-23l-13 -8 -11 -7c-15,-12 -35,-13 -35,-13 -20,-2 -55,5 -55,5 -14,4 -20,2 -20,2l0 0z"/>
  <path class="fil1" d="M6275 379c-1,0 7,1 14,2 2,1 12,4 14,5 1,0 19,8 21,9 11,6 18,11 22,15 12,10 15,17 15,17 8,11 15,22 19,38l4 13 2 11 3 18 3 11 -11 -15 -4 -5 -3 -5 -3 -9c-11,-47 -19,-57 -19,-57 -11,-16 -27,-25 -27,-25 -3,-2 -24,-12 -24,-12 0,0 -17,-6 -19,-7 -12,-3 -8,-5 -8,-5l0 0z"/>
  <path class="fil2" d="M6168 437c11,6 17,7 17,7 8,0 18,2 18,2 0,0 6,3 7,6 1,3 1,5 1,5l1 10c0,0 2,12 4,12 2,1 1,3 24,9 1,0 11,5 13,6 3,2 5,4 6,6 8,13 3,41 3,41l1 6c10,9 15,7 15,7 0,0 0,-2 0,-3 0,-1 -3,-6 -3,-6l-10 -45c-4,-8 -23,-16 -23,-16 -11,-3 -12,-11 -12,-11l-3 -11 -3 -12c-3,-15 -16,-14 -16,-14l-14 0 -7 -1 -6 -1 -9 -4c0,0 -10,-2 -5,6l0 0z"/>
  <path class="fil2" d="M6170 459l6 1 5 2c4,0 5,-1 5,-1l9 -3 3 0 6 1c12,3 13,11 13,11l-7 -2 -7 -1 -11 -1 -7 1c-10,3 -16,-8 -16,-8l0 0z"/>
  <path class="fil1" d="M6166 416c9,12 19,5 18,6l15 -3c4,0 8,0 9,0 7,0 10,2 11,2 5,1 9,2 15,11 0,-1 5,10 5,10l4 11c7,25 32,34 32,34l15 4 5 2c0,0 6,4 7,7 1,1 4,7 4,7l3 9 5 13 4 4 5 4 5 6c-2,2 -1,5 -1,5 0,1 -5,2 -5,2l-5 1c-2,-1 -4,-5 -4,-5l-2 -8 -7 -23c-5,-13 -15,-16 -15,-16l-13 -6 -18 -10c-13,-6 -20,-29 -20,-29 -5,-23 -16,-28 -16,-28 -5,-6 -33,-2 -33,-2l-11 3c1,-1 -17,6 -17,6 0,0 1,-8 1,-9 0,-1 2,-10 2,-10l0 0z"/>
  <path class="fil1" d="M6278 511c10,13 6,36 6,36l2 11 7 10c0,0 12,14 13,15 14,16 11,31 5,43l-5 6 -1 2 -1 14 2 4c4,2 16,3 16,3 0,0 16,0 17,1 1,1 7,-1 6,-2 -2,-1 -4,-2 -4,-2 0,0 -7,-6 -8,-7 -1,-2 -2,-11 -2,-12 0,-1 -2,-5 -2,-5 0,-1 -3,-5 -5,1 0,-1 -1,6 -1,6l-2 6 -6 3c-1,0 -2,0 -3,-1 -1,-1 -1,-5 -1,-5 1,-2 4,-7 4,-7l2 -7 3 -9 1 -11 -3 -9 -3 -6 -13 -17 -6 -8 -6 -8 -3 -9 -1 -23c0,-7 -7,-15 -7,-15 -8,-3 -5,4 -5,4l0 0z"/>
  <path class="fil2" d="M6116 387l16 -7 19 -5c47,-7 80,-4 80,-4 28,5 45,14 45,14 0,0 47,20 64,41 5,7 7,14 7,14l13 41c4,13 8,18 8,18 3,4 7,6 7,6l5 2c5,2 8,7 8,7 5,8 5,14 5,14 1,1 0,7 0,7l-5 -6 -9 -9c-21,-11 -27,-42 -27,-42l-4 -16 -5 -16c-6,-30 -83,-61 -83,-61 -33,-16 -74,-11 -74,-11 -5,0 -18,2 -18,2l-34 6 -13 3 -8 1 0 0z"/>
  <path class="fil2" d="M6389 688c2,0 3,-2 4,-6l2 -7 1 -9 1 -8 1 -8 0 -7c-6,-14 -24,-22 -24,-22l-10 -3 -7 -4 -6 -5 -6 -4 -7 -2c-4,0 -2,-3 -2,-3 0,0 3,-1 5,-1 2,0 8,1 9,1 2,1 7,2 7,2 0,0 5,5 8,6 13,6 41,27 41,27 3,2 3,9 3,9l0 7 -1 7 -2 5 -3 12 -1 7c0,0 -2,3 -2,4 -1,1 -3,4 -3,4l-4 1 -3 -2 0 0z"/>
  <path class="fil1" d="M6407 631l-7 -12c0,0 -7,-14 -21,-21 -8,-2 -10,-6 -10,-6 0,0 0,-9 0,-9 2,-14 -11,-26 -11,-26 0,0 -15,-8 -16,-8 -1,-1 -15,-5 -16,-5 -1,0 -11,-8 -11,-8l-2 -6 4 3 14 7 32 16c7,4 11,9 11,9 1,3 4,16 4,16 1,5 5,8 5,8 2,2 22,20 22,20 4,5 2,23 2,23l0 0z"/>
  <path class="fil4 str0" d="M6407 631l-7 -12c0,0 -7,-14 -21,-21 -8,-2 -10,-6 -10,-6 0,0 0,-9 0,-9 2,-14 -11,-26 -11,-26 0,0 -15,-8 -16,-8 -1,-1 -15,-5 -16,-5 -1,0 -11,-8 -11,-8l-2 -6 4 3 14 7 32 16c7,4 11,9 11,9 1,3 4,16 4,16 1,5 5,8 5,8 2,2 22,20 22,20 4,5 2,23 2,23l0 0z"/>
  <path class="fil2" d="M6174 424c-2,-4 -2,-8 -2,-8 5,-9 46,-4 51,-2l18 10 20 11c34,17 57,23 57,23 11,7 10,35 10,35l1 15 1 9 1 7c1,5 5,7 5,7l42 24c0,0 11,7 13,26 0,7 -3,11 -3,11 0,2 0,5 0,5 0,0 1,1 4,3 4,2 7,4 7,4l-1 -5 -2 -7 -1 -17 1 -13c0,-3 -2,-5 -5,-7l-5 -3 -21 -11 -7 -4 -11 -6 -7 -7 -4 -8 -3 -9 -1 -9 0 -7 0 -10 -1 -10c2,-15 -31,-24 -31,-24l-23 -8 -9 -4 -16 -12c0,-1 -16,-11 -16,-11 -22,-12 -45,-10 -45,-10l-10 1c-8,1 -13,6 -13,6l-1 4c0,0 1,4 1,5 1,1 2,4 2,4l5 3 0 0z"/>
  <path class="fil2" d="M6173 472c1,1 28,23 28,23 10,10 26,12 26,12 3,1 13,0 13,0 9,2 9,14 9,14 3,18 -5,18 -5,18 -2,1 -4,2 -4,2 0,0 -4,3 -1,3 4,1 17,-1 17,-1l-5 -33c-4,-13 -22,-12 -22,-12 -4,1 -10,0 -10,0 -12,-3 -20,-11 -20,-11l-26 -20c-8,-3 -1,3 -1,3l0 0z"/>
  <path class="fil2" d="M6381 682l1 -8 3 -11c0,-1 -1,-4 -1,-4 0,0 -7,-10 -7,-10 -1,-2 0,-8 0,-8 0,-3 -2,-10 -6,-20 -5,-7 -12,-9 -12,-9 0,0 -4,-2 -4,-1 -1,0 -1,1 0,3 11,11 13,23 13,23 1,2 0,2 1,3 1,1 2,5 2,5l2 5 6 12c2,3 -3,11 -3,11l1 7 6 4 0 0z"/>
  <path class="fil2" d="M6380 684l-1 -8c0,0 -1,-7 -2,-8 -18,-17 -40,-16 -40,-16l-4 1 2 3c43,10 38,21 38,21 2,2 1,4 1,4l3 3 3 2 0 0z"/>
  <path class="fil2" d="M6320 650c0,0 14,-2 15,-2 21,-6 34,-2 34,-2 3,0 5,4 5,4l1 -2 0 -3c0,-5 -10,-6 -10,-6l-23 1 -10 2 -16 4 3 4 0 0z"/>
  <path class="fil2" d="M6297 516l0 6c0,0 -1,20 -1,18 0,0 0,11 5,15 3,2 8,6 8,6 3,2 9,12 9,12 0,0 5,16 4,17l-2 8 2 5c0,0 9,-2 10,-2 1,0 4,-1 4,-1l1 -3c0,0 -3,-2 -4,-1 -1,1 -3,1 -3,1l-2 -7c0,-3 -6,-14 -6,-14l-1 -4 -3 -10 -6 -9c-5,-2 -8,-8 -8,-8 -2,-3 -3,-24 -3,-24 0,-2 -4,-6 -4,-6l0 0z"/>
  <path class="fil2" d="M6358 608c2,1 -2,-6 -2,-6l2 -17c-1,-19 -21,-31 -21,-31l-10 -3 -6 1c-6,5 -13,3 -13,3 0,0 -14,3 -17,2 -3,-1 -5,-4 -5,-4 0,0 -2,-5 -2,-3 -1,3 -9,0 -9,0l-15 -6 -2 1 -12 2 -1 2 3 1c0,0 25,8 29,23 0,2 6,2 7,2 1,0 13,-4 13,-4 0,0 4,-11 13,-5 1,1 13,-1 13,-1l11 2c13,3 15,25 15,25 1,2 -3,7 -3,7 0,0 6,11 7,12 3,4 5,1 5,1l0 0z"/>
  <path class="fil2" d="M6169 526l4 -3 3 -3c0,0 4,-4 5,-4 2,0 5,0 5,0 0,0 9,2 11,2 2,1 10,4 10,4l11 2 4 1 7 4 4 5 2 3 1 4 3 3 7 2 -3 -9 -5 -12 -4 -3 -4 -2c-25,-4 -26,-9 -26,-9l-3 -3 -11 -9 -14 -14c-1,-1 -8,-5 -8,-5 -2,1 -1,3 -1,3l12 10c0,0 8,13 11,14 2,2 3,5 3,5 -2,3 -5,0 -5,0l-3 -4 -18 -17c-6,-4 -2,3 -2,3 1,1 12,14 12,14l1 6 -3 2 -4 -2 -2 1 -3 6 4 8 0 0z"/>
  <path class="fil1" d="M6299 658l-2 -4 -1 -5c1,-4 7,-2 7,-2 0,0 3,-1 4,-1 1,0 1,-14 1,-14l-8 0 -7 1c0,0 -4,-5 -2,-5 14,0 15,-20 15,-20 -1,-5 -4,-2 -4,-2 -3,16 -15,18 -15,18l-6 1 -4 -1 -2 -2c15,-8 18,-16 18,-16 2,-2 2,-12 2,-12l-1 -5c-2,-2 -4,1 -4,1l0 4c0,2 0,4 -1,6 -11,22 -20,14 -20,14l-2 -2c18,-2 15,-38 15,-38l-1 -5 -2 -2 -2 0c2,5 2,16 2,16 1,0 -5,23 -20,20 -1,0 -6,-1 -5,-2 1,-1 0,-3 2,-4 2,-1 5,-2 6,-3 1,-1 6,-5 6,-5l2 -5 1 -6 -1 -3c-1,-1 -2,0 -2,0l-1 2c-2,15 -14,16 -14,16l-6 3 -3 0 -2 -1c13,-9 14,-19 14,-19l1 -6c0,-3 0,-4 -1,-4 0,0 -2,0 -2,0 0,0 -2,2 -2,2l-3 8c-4,10 -13,14 -13,14 -5,0 -3,-4 -3,-4 12,-12 11,-16 11,-16l-1 -9c-1,-1 -3,0 -3,0l-2 5c-1,10 -9,17 -12,17 -2,0 -4,1 -4,1l-1 -3 4 -2 3 -4 3 -5c0,-3 1,-5 1,-6 1,-3 1,-4 1,-4 -1,-1 -3,-1 -3,-1 0,0 -1,3 -1,3 -2,6 -4,10 -7,12 0,0 -4,0 -3,-2 4,-3 4,-13 4,-13l-1 -13 2 -3 8 -2 12 1 3 -3 -5 -4 -11 -2 -5 2 -4 1 -6 -1 -2 -1 -12 -7c-3,0 -4,0 -5,0 0,0 -2,2 1,4 2,1 28,11 15,39 0,1 -3,3 -3,3 -1,1 -8,1 -8,1 -1,0 -6,-2 -6,-2l-5 -5 0 -5 -14 2 -1 3 1 2c0,0 4,4 5,4 2,1 4,6 4,6 0,0 0,9 0,9l-1 30c0,3 5,12 5,12 0,0 5,-1 5,-1 -3,-5 -5,-13 -4,-18l2 -16c0,0 2,-6 2,-7 0,-1 1,-9 1,-9 0,0 0,-2 2,-2 2,0 3,1 3,1 1,0 1,2 1,2 0,0 -1,12 -1,12 -7,25 -3,38 -3,38 0,0 7,-1 7,-1 -4,-7 -4,-14 -4,-14l2 -8 2 -8 2 -12 1 -2 2 0 1 5 0 13 -2 10c0,9 2,15 2,15l5 0 -1 -6 -1 -8c0,0 1,-6 1,-7 0,-1 3,-11 3,-11l2 -3c4,-1 5,4 5,4l-4 22c0,0 -1,10 -1,11 1,1 4,7 4,7 1,1 2,-1 2,-1 0,1 2,-24 2,-24 0,0 2,-3 5,-1 6,0 7,-6 7,-6 0,0 8,-7 8,7 0,3 -4,8 -4,8 -4,5 3,2 3,2l6 -2c0,0 4,-1 5,-1 1,0 2,0 4,1 2,1 3,3 3,3l-4 7c0,0 -1,6 0,8 2,4 6,0 6,0 0,0 -1,-4 -1,-5 1,-1 2,-4 2,-4 1,-2 7,-2 7,-2 11,5 13,22 13,22 1,2 -3,3 -3,3l2 4 16 6 -6 -8 0 0z"/>
  <path class="fil4 str0" d="M6299 658l-2 -4 -1 -5c1,-4 7,-2 7,-2 0,0 3,-1 4,-1 1,0 1,-14 1,-14l-8 0 -7 1c0,0 -4,-5 -2,-5 14,0 15,-20 15,-20 -1,-5 -4,-2 -4,-2 -3,16 -15,18 -15,18l-6 1 -4 -1 -2 -2c15,-8 18,-16 18,-16 2,-2 2,-12 2,-12l-1 -5c-2,-2 -4,1 -4,1l0 4c0,2 0,4 -1,6 -11,22 -20,14 -20,14l-2 -2c18,-2 15,-38 15,-38l-1 -5 -2 -2 -2 0c2,5 2,16 2,16 1,0 -5,23 -20,20 -1,0 -6,-1 -5,-2 1,-1 0,-3 2,-4 2,-1 5,-2 6,-3 1,-1 6,-5 6,-5l2 -5 1 -6 -1 -3c-1,-1 -2,0 -2,0l-1 2c-2,15 -14,16 -14,16l-6 3 -3 0 -2 -1c13,-9 14,-19 14,-19l1 -6c0,-3 0,-4 -1,-4 0,0 -2,0 -2,0 0,0 -2,2 -2,2l-3 8c-4,10 -13,14 -13,14 -5,0 -3,-4 -3,-4 12,-12 11,-16 11,-16l-1 -9c-1,-1 -3,0 -3,0l-2 5c-1,10 -9,17 -12,17 -2,0 -4,1 -4,1l-1 -3 4 -2 3 -4 3 -5c0,-3 1,-5 1,-6 1,-3 1,-4 1,-4 -1,-1 -3,-1 -3,-1 0,0 -1,3 -1,3 -2,6 -4,10 -7,12 0,0 -4,0 -3,-2 4,-3 4,-13 4,-13l-1 -13 2 -3 8 -2 12 1 3 -3 -5 -4 -11 -2 -5 2 -4 1 -6 -1 -2 -1 -12 -7c-3,0 -4,0 -5,0 0,0 -2,2 1,4 2,1 28,11 15,39 0,1 -3,3 -3,3 -1,1 -8,1 -8,1 -1,0 -6,-2 -6,-2l-5 -5 0 -5 -14 2 -1 3 1 2c0,0 4,4 5,4 2,1 4,6 4,6 0,0 0,9 0,9l-1 30c0,3 5,12 5,12 0,0 5,-1 5,-1 -3,-5 -5,-13 -4,-18l2 -16c0,0 2,-6 2,-7 0,-1 1,-9 1,-9 0,0 0,-2 2,-2 2,0 3,1 3,1 1,0 1,2 1,2 0,0 -1,12 -1,12 -7,25 -3,38 -3,38 0,0 7,-1 7,-1 -4,-7 -4,-14 -4,-14l2 -8 2 -8 2 -12 1 -2 2 0 1 5 0 13 -2 10c0,9 2,15 2,15l5 0 -1 -6 -1 -8c0,0 1,-6 1,-7 0,-1 3,-11 3,-11l2 -3c4,-1 5,4 5,4l-4 22c0,0 -1,10 -1,11 1,1 4,7 4,7 1,1 2,-1 2,-1 0,1 2,-24 2,-24 0,0 2,-3 5,-1 6,0 7,-6 7,-6 0,0 8,-7 8,7 0,3 -4,8 -4,8 -4,5 3,2 3,2l6 -2c0,0 4,-1 5,-1 1,0 2,0 4,1 2,1 3,3 3,3l-4 7c0,0 -1,6 0,8 2,4 6,0 6,0 0,0 -1,-4 -1,-5 1,-1 2,-4 2,-4 1,-2 7,-2 7,-2 11,5 13,22 13,22 1,2 -3,3 -3,3l2 4 16 6 -6 -8 0 0z"/>
  <path class="fil2" d="M6394 523l5 8 7 22 4 55 1 22 0 18c-2,9 -5,12 -5,12 0,0 -2,-11 -2,-11l0 -24 -1 -27c0,-49 -8,-66 -8,-66l0 -10 0 0z"/>
  <path class="fil3 str0" d="M6394 523l5 8 7 22 4 55 1 22 0 18c-2,9 -5,12 -5,12 0,0 -2,-11 -2,-11l0 -24 -1 -27c0,-49 -8,-66 -8,-66l0 -10 0 0z"/>
  <path class="fil2" d="M6315 535l9 26 7 15 6 16c2,2 0,6 0,6l4 3 12 5c0,0 4,1 3,-2 -1,-3 -8,-11 -11,-13 -3,-3 -4,-3 -4,-4 -1,-2 -7,-24 -7,-24l-5 -16 -7 -9 -6 -2 0 0z"/>
  <path class="fil1" d="M6024 999l-9 0 1 -36c0,-19 -6,-35 -6,-35l-7 -18 -7 -13 -7 -15c-4,-7 -4,-15 -4,-15l0 -5c0,-12 -9,-11 -9,-11l-38 -8 -20 -2c-43,0 -37,-49 -37,-49 1,-7 6,-12 6,-12l5 -9c3,-6 -4,-12 -4,-12l-5 -3c-4,-2 -2,-11 -2,-11l1 -3 1 -5c0,-3 -3,-6 -3,-6 -2,-4 0,-13 0,-13l1 -11 -1 -6c0,0 0,-6 0,-6 0,1 0,-1 0,-1l-7 0c-22,1 -21,-21 -21,-21 1,-8 11,-19 11,-19l10 -18 12 -18 14 -18c5,-6 3,-18 3,-18l0 -9c0,-11 4,-14 4,-14l7 -11c0,0 6,-16 7,-16 4,-7 7,-37 5,-40 2,1 -16,-8 -17,-12 -5,-29 3,-43 3,-43l19 -17 14 -17c18,-27 35,-28 35,-28 5,-12 20,-23 20,-23 0,0 16,-11 44,-6 8,0 11,8 11,8 0,0 3,25 15,30 16,10 24,-1 24,-1 6,-3 9,5 0,7 -2,0 -9,1 -9,1 -23,5 -29,-14 -29,-14l-7 -17c-3,-10 -16,-10 -16,-10l-18 1c-4,0 -8,1 -12,2 -5,4 -10,12 -10,12l-3 4 -5 6 -4 3 -6 2c0,0 -12,5 -25,22 -4,7 -9,14 -14,21l-12 9c-14,11 -11,26 -11,26l1 13c0,4 7,8 16,11 4,2 4,6 4,6l1 11 -2 20 -4 15 -5 15 -5 10c-4,7 -3,14 -3,14l0 14c0,9 -12,19 -12,19l-10 13 -12 21 -4 6c-7,7 -17,25 -17,25 0,5 -4,15 13,14 3,0 14,-1 14,-1 9,1 16,5 16,5 4,6 12,4 14,3 4,-1 5,-2 2,-11 -1,-2 -3,-8 -3,-8l1 -1c0,0 9,13 10,22 -11,7 -16,5 -16,5l-11 -4 -8 -1c-7,-4 -3,-1 -3,-1 5,6 1,21 1,21l-1 6c0,0 -1,4 3,5 3,0 5,1 6,1 1,0 3,2 3,2 5,7 7,5 7,5 0,0 6,0 8,0 2,0 4,6 -1,6 -6,0 -9,0 -9,0 -2,0 -7,-4 -7,-4 -10,-4 -16,23 -3,20 3,3 6,14 6,14 0,5 -11,17 -11,17 0,0 -3,6 -1,19 2,16 16,27 42,27 12,0 32,2 32,2 1,0 16,1 18,1 38,2 83,-39 83,-39l35 -37c15,-13 13,-1 13,-1 8,3 -12,23 -12,23 2,-1 -45,31 -45,31 -18,12 -19,19 -19,19 -1,14 -2,14 -2,14 0,0 -21,14 -24,13 -2,-1 18,-17 18,-17 4,-8 -5,-5 -7,-4 -13,9 -31,8 -31,8l0 10c1,18 8,30 8,30l9 16 6 13c8,15 10,34 10,34l-1 50 0 0z"/>
  <path class="fil4 str1" d="M6024 999l-9 0 1 -36c0,-19 -6,-35 -6,-35l-7 -18 -7 -13 -7 -15c-4,-7 -4,-15 -4,-15l0 -5c0,-12 -9,-11 -9,-11l-38 -8 -20 -2c-43,0 -37,-49 -37,-49 1,-7 6,-12 6,-12l5 -9c3,-6 -4,-12 -4,-12l-5 -3c-4,-2 -2,-11 -2,-11l1 -3 1 -5c0,-3 -3,-6 -3,-6 -2,-4 0,-13 0,-13l1 -11 -1 -6c0,0 0,-6 0,-6 0,1 0,-1 0,-1l-7 0c-22,1 -21,-21 -21,-21 1,-8 11,-19 11,-19l10 -18 12 -18 14 -18c5,-6 3,-18 3,-18l0 -9c0,-11 4,-14 4,-14l7 -11c0,0 6,-16 7,-16 4,-7 7,-37 5,-40 2,1 -16,-8 -17,-12 -5,-29 3,-43 3,-43l19 -17 14 -17c18,-27 35,-28 35,-28 5,-12 20,-23 20,-23 0,0 16,-11 44,-6 8,0 11,8 11,8 0,0 3,25 15,30 16,10 24,-1 24,-1 6,-3 9,5 0,7 -2,0 -9,1 -9,1 -23,5 -29,-14 -29,-14l-7 -17c-3,-10 -16,-10 -16,-10l-18 1c-4,0 -8,1 -12,2 -5,4 -10,12 -10,12l-3 4 -5 6 -4 3 -6 2c0,0 -12,5 -25,22 -4,7 -9,14 -14,21l-12 9c-14,11 -11,26 -11,26l1 13c0,4 7,8 16,11 4,2 4,6 4,6l1 11 -2 20 -4 15 -5 15 -5 10c-4,7 -3,14 -3,14l0 14c0,9 -12,19 -12,19l-10 13 -12 21 -4 6c-7,7 -17,25 -17,25 0,5 -4,15 13,14 3,0 14,-1 14,-1 9,1 16,5 16,5 4,6 12,4 14,3 4,-1 5,-2 2,-11 -1,-2 -3,-8 -3,-8l1 -1c0,0 9,13 10,22 -11,7 -16,5 -16,5l-11 -4 -8 -1c-7,-4 -3,-1 -3,-1 5,6 1,21 1,21l-1 6c0,0 -1,4 3,5 3,0 5,1 6,1 1,0 3,2 3,2 5,7 7,5 7,5 0,0 6,0 8,0 2,0 4,6 -1,6 -6,0 -9,0 -9,0 -2,0 -7,-4 -7,-4 -10,-4 -16,23 -3,20 3,3 6,14 6,14 0,5 -11,17 -11,17 0,0 -3,6 -1,19 2,16 16,27 42,27 12,0 32,2 32,2 1,0 16,1 18,1 38,2 83,-39 83,-39l35 -37c15,-13 13,-1 13,-1 8,3 -12,23 -12,23 2,-1 -45,31 -45,31 -18,12 -19,19 -19,19 -1,14 -2,14 -2,14 0,0 -21,14 -24,13 -2,-1 18,-17 18,-17 4,-8 -5,-5 -7,-4 -13,9 -31,8 -31,8l0 10c1,18 8,30 8,30l9 16 6 13c8,15 10,34 10,34l-1 50 0 0z"/>
  <path class="fil2" d="M6142 483c-2,3 5,9 5,9 1,1 10,13 10,13 0,0 9,8 8,23 2,14 -4,16 -6,23 0,8 4,24 4,24 2,5 7,35 7,35 0,0 2,29 3,29 2,2 14,3 37,1 16,7 15,26 16,26 1,0 5,-2 5,-2l3 -7c2,-3 2,-7 2,-7 -6,-2 -9,-5 -9,-5 -3,-4 -1,-9 -1,-9 1,-5 -9,-4 -9,-4 -35,4 -37,0 -37,0 -3,-4 -8,-50 -8,-50l-6 -25c0,-8 5,-18 5,-18 2,-10 0,-24 0,-24 -4,-10 -14,-21 -14,-21 -7,-7 -6,-10 -6,-10 13,-27 15,-44 15,-44l2 -15c-2,-19 -8,-21 -8,-21 -3,-2 -11,-5 -11,-5 -9,-3 -21,-4 -24,-3 -4,0 -13,1 -13,1 -4,1 -9,3 -9,3 0,0 -6,3 -1,3 1,0 18,-3 22,-2 4,1 14,1 29,7 13,4 4,35 4,35l-18 39 0 0z"/>
  <path class="fil3 str1" d="M6142 483c-2,3 5,9 5,9 1,1 10,13 10,13 0,0 9,8 8,23 2,14 -4,16 -6,23 0,8 4,24 4,24 2,5 7,35 7,35 0,0 2,29 3,29 2,2 14,3 37,1 16,7 15,26 16,26 1,0 5,-2 5,-2l3 -7c2,-3 2,-7 2,-7 -6,-2 -9,-5 -9,-5 -3,-4 -1,-9 -1,-9 1,-5 -9,-4 -9,-4 -35,4 -37,0 -37,0 -3,-4 -8,-50 -8,-50l-6 -25c0,-8 5,-18 5,-18 2,-10 0,-24 0,-24 -4,-10 -14,-21 -14,-21 -7,-7 -6,-10 -6,-10 13,-27 15,-44 15,-44l2 -15c-2,-19 -8,-21 -8,-21 -3,-2 -11,-5 -11,-5 -9,-3 -21,-4 -24,-3 -4,0 -13,1 -13,1 -4,1 -9,3 -9,3 0,0 -6,3 -1,3 1,0 18,-3 22,-2 4,1 14,1 29,7 13,4 4,35 4,35l-18 39 0 0z"/>
  <path class="fil1" d="M6187 815l-27 34 -36 54 -21 43 -28 98 13 0c9,-79 54,-154 54,-154l41 -54 48 -60 40 -38c0,0 46,-35 50,-38 3,-7 7,11 7,11 4,8 6,12 6,12 7,22 -1,21 -1,21 -15,2 -22,13 -22,13 -11,17 -5,36 -5,36 -22,-2 -28,14 -28,14 -13,25 -3,49 -3,49 0,0 3,16 3,28 0,2 -1,18 6,21 6,4 11,5 11,5 0,0 4,7 9,8 11,1 18,-13 19,-13 1,-1 13,-12 13,-12 0,0 7,-5 16,-2 1,0 13,-1 13,-1 13,-1 17,-13 17,-13 0,0 1,30 22,36 -2,3 -2,8 -2,8 -4,17 8,25 8,25 27,16 54,1 54,1 16,-9 17,-32 17,-32 2,-18 0,-29 0,-29 -15,-24 0,-40 0,-40 5,-5 8,-14 10,-27 2,-22 -9,-30 -9,-30 -8,-6 -5,-13 -5,-13l2 -27c0,-13 -5,-24 -5,-24 -2,-6 -12,-11 -12,-11 -7,-2 -18,-1 -18,-1 -23,1 -21,6 -24,5 -2,-1 3,-6 2,-13 -7,-12 -3,-20 -3,-20l12 -17c16,-29 14,-64 14,-64 -4,-62 -16,-94 -16,-94 -17,-55 -43,-103 -43,-103 -33,-54 -105,-63 -105,-63 -35,-7 -96,-5 -96,-5 -31,2 -49,10 -49,10 0,0 -28,11 -39,29 0,1 -4,10 -3,10 3,2 3,4 3,4 1,3 -3,7 -3,7l-9 13c0,0 -4,7 -9,23 0,0 -6,15 -6,15 -3,10 -5,20 -5,20 -1,1 -11,23 -11,23 -3,16 -9,23 -9,23l-42 65c-5,9 -5,18 -4,21 1,4 3,6 7,6 4,0 13,1 16,1 7,0 8,6 8,6 0,0 0,19 0,21 0,2 1,11 1,11 0,0 -1,6 7,9 0,0 1,2 -1,6 -1,1 -3,12 -2,13 0,1 0,3 3,4 9,4 9,10 9,10 2,4 -7,19 -7,19 -5,8 -3,32 -3,33 3,19 25,24 25,24 22,1 35,0 35,0l26 -2c8,-1 8,13 8,13l20 89c7,-10 6,-10 6,-10l-4 -20 -11 -52c-4,-25 -4,-18 -4,-20 0,-3 9,-4 9,-4 60,-10 66,-29 69,-33 10,-17 26,-67 26,-67 0,0 5,-6 10,-8 6,-2 12,2 12,2 3,2 9,9 9,9 4,3 13,6 13,6 4,1 18,7 19,7 1,0 6,4 7,5 1,1 15,5 15,5 -3,-6 -1,-7 -13,-15 -2,-1 -31,-11 -31,-11 -7,-4 -12,-8 -13,-10 -10,-8 -16,-10 -16,-10 -10,-2 -23,15 -23,15l-4 9c1,11 -19,54 -19,54 -3,6 -4,16 -19,18 -13,5 -21,7 -36,10 -26,6 -44,6 -44,6l-31 1c-53,1 -34,-41 -34,-41l5 -12c1,-3 4,-2 6,-2 8,0 1,-7 1,-7 -3,-3 -7,-11 -1,-17 0,-2 -3,-1 -3,-1 -7,5 -10,1 -10,1 -4,-6 2,-10 2,-10 0,0 3,-4 16,0 3,1 10,0 10,0 5,-1 5,-5 5,-5 -7,-5 -5,-5 -8,-6 -2,-1 -3,9 -14,1 -6,-6 -7,-5 -8,-5 -6,0 -7,2 -9,-5l-1 -26 0 -8 11 1c7,2 11,1 11,1 -2,1 12,-1 7,-13 -3,8 -18,3 -18,3 -11,-8 -26,-4 -26,-4 -19,3 -11,-12 -11,-12l19 -29c0,0 20,-28 31,-47 2,-20 6,-28 6,-28 8,-9 10,-17 10,-17 11,-36 13,-43 13,-43 1,-6 9,-18 17,-19 -7,-7 -5,-23 0,-26 4,-5 15,-12 15,-12 3,-2 32,-16 66,-17 32,-1 60,0 83,3 20,2 75,26 75,26 17,8 29,27 29,27 10,11 32,62 32,62 0,0 16,55 17,55 1,0 12,37 14,99 -2,41 -22,53 -22,53 -3,6 -3,10 -3,10 0,7 1,11 1,11 5,11 4,16 4,16 1,1 -4,10 -4,10 0,0 -2,7 11,5 3,0 12,-2 12,-2 20,-2 34,-1 38,23 0,0 -6,21 -3,39 18,20 15,37 15,38 0,1 0,2 -7,11 0,1 -11,19 -11,19 -4,19 2,31 2,31 6,11 3,33 3,33 -8,41 -81,35 -61,-7 -17,-12 -19,-23 -19,-23l-9 -26 -15 15c-6,7 -20,7 -20,7l-20 -2c0,0 2,10 -9,16 -14,18 -21,7 -21,7 -16,-10 -13,-48 -13,-48 -13,-16 -1,-37 -1,-37 4,-23 29,-23 29,-23 0,0 0,-10 0,-15 0,-8 6,-20 6,-20 8,-9 16,-11 16,-11 14,-1 11,-14 11,-14l-4 -16 -6 -23c-2,-4 -9,-14 -9,-14l-8 5 -46 35c-37,28 -84,90 -84,90l0 0z"/>
  <path class="fil1" d="M5941 449c0,0 -1,1 -1,1 -8,6 -14,17 -14,17l-2 13c2,5 9,0 9,0 0,0 1,-9 5,-13 2,-4 9,-9 21,-13 6,-1 8,-2 9,-2 7,1 3,6 3,6 -1,1 -13,3 -13,3 -14,2 -17,17 -17,17 -1,12 -7,22 -7,22 -3,-13 -10,-16 -10,-16 -2,-5 -2,-9 -2,-9 0,-12 4,-21 7,-27l13 0 0 0zm49 0c-5,10 -10,5 -13,0l13 0 0 0zm46 0c-5,3 -8,3 -8,3l-24 6c0,0 -1,1 0,2 0,0 5,14 23,2 1,0 10,-7 17,-13l28 0c-2,5 -4,11 -4,11 4,-3 -16,11 -16,11l-9 5c-15,11 -31,8 -31,8 -8,0 -12,-4 -12,-4l-3 -2c13,2 24,3 31,-1 0,0 21,-9 34,-25 0,-6 -11,-2 -11,-2l-7 4c-6,2 -24,18 -24,18 -3,2 -7,1 -7,1 -6,-8 -17,-10 -17,-10l-8 0c-7,2 -6,-2 -6,-2 0,0 4,-6 28,-10 6,-1 10,-2 14,-3l12 0 0 0z"/>
  <path class="fil1" d="M6027 397c-4,1 -7,2 -9,3 -1,0 -14,7 -19,14 0,0 -14,15 -14,22 0,0 0,3 2,4 0,0 2,0 2,0 1,-1 9,-17 14,-21 0,0 19,-16 33,-10l11 7c0,0 3,2 5,2 0,0 7,0 12,-1 0,0 7,-1 1,-4l-4 -1 -3 -1c-3,-1 -8,-4 -13,-11 0,0 -4,-2 -7,-3l15 0c5,5 10,8 10,8 0,0 8,2 18,-8l13 0c0,0 -1,1 -1,1l-11 5c0,0 -8,5 -9,10 1,7 10,0 10,0 3,9 -5,13 -5,13 -3,-2 -15,0 -15,0 -9,2 -17,11 -17,11 -5,6 -9,9 -13,12l-12 0c11,-3 11,-5 12,-7 0,0 1,-3 -2,-2 -1,0 -13,2 -14,2 -1,0 -3,0 -3,0 0,0 8,-6 29,-7 4,-6 3,-5 -1,-7 0,0 -8,-2 -13,-1 -9,2 -15,8 -15,8l-9 7 -9 6c0,0 1,-4 2,-5 6,-8 22,-17 22,-17l9 -4c6,-7 -8,-5 -8,-5 -16,0 -28,18 -28,18 0,0 -5,12 -6,13 0,0 0,0 0,0l-13 0c-1,-2 -2,-4 -2,-4 0,0 -3,-2 -4,-2 0,0 -4,-1 -4,-1 -16,-1 -22,4 -26,7l-13 0c2,-3 3,-5 3,-5 5,-4 9,-8 14,-9 0,0 9,-3 30,-2 4,-3 0,-6 0,-6 0,0 -12,-4 -35,-1 -4,1 -6,-2 -6,-2 0,-1 10,-14 10,-14 1,0 22,-6 44,-1 12,3 7,-8 6,-8 -1,-2 -6,-3 -12,-4l43 0 0 0zm17 52c5,-4 10,-8 10,-8 7,-4 21,-1 21,-1 0,0 -1,4 -3,8l-28 0 0 0zm-99 -28c9,0 14,-1 14,-1 7,-1 17,2 17,2 3,1 9,1 9,1 6,-1 2,-7 2,-7 -9,-6 -22,-5 -22,-5 -17,-1 -22,8 -22,8 -1,0 -1,3 2,2l0 0z"/>
  <path class="fil1" d="M5984 397c-5,-1 -9,-2 -9,-2 -1,0 11,-5 33,1 4,1 4,-4 4,-4 -1,-4 -11,-10 -10,-9 -13,-4 -25,-2 -25,-2l17 -20c0,0 4,-1 5,-1 1,0 9,-2 16,0 7,2 15,16 15,16l4 6c8,13 6,0 6,0 0,0 -1,-3 -1,-4 -3,-11 -9,-18 -12,-23 -3,-4 -12,-4 -12,-4 -20,2 10,-7 18,-2 0,0 4,6 4,6l13 33c1,3 3,5 5,8l-15 0c0,0 -1,0 -1,0 -4,-1 -7,0 -11,0l-43 0 0 0zm98 0c1,-1 2,-2 2,-3 3,-3 3,-4 3,-4 6,-1 13,-1 8,7l-13 0 0 0zm-88 -23c1,0 4,0 4,0 17,1 19,12 19,12 0,2 9,11 8,-4 -4,-15 -21,-15 -21,-15 -7,0 -10,3 -10,3 0,0 -2,3 1,4l0 0z"/>
  <path class="fil2" d="M5925 620c4,0 7,0 10,-1 0,-2 1,-14 1,-14l0 -6 1 -5 3 -4c0,0 2,-2 4,-2 2,0 6,1 6,1l7 1 5 3 10 4 6 9 2 3 5 2c1,0 5,2 5,2 -1,-1 -11,-17 -12,-19 0,0 -3,-2 -4,-2 -4,-2 -6,-2 -6,-2l-8 -4 -6 -3 -6 -1 -6 0 -6 0 -6 1 -2 3 2 6 1 5 0 12 -2 7 -5 7 0 0z"/>
  <path class="fil3 str0" d="M5925 620c4,0 7,0 10,-1 0,-2 1,-14 1,-14l0 -6 1 -5 3 -4c0,0 2,-2 4,-2 2,0 6,1 6,1l7 1 5 3 10 4 6 9 2 3 5 2c1,0 5,2 5,2 -1,-1 -11,-17 -12,-19 0,0 -3,-2 -4,-2 -4,-2 -6,-2 -6,-2l-8 -4 -6 -3 -6 -1 -6 0 -6 0 -6 1 -2 3 2 6 1 5 0 12 -2 7 -5 7 0 0z"/>
  <path class="fil2" d="M5948 629l4 0c0,0 2,0 3,0 1,0 4,0 5,0 1,0 4,-1 5,-1 0,0 7,-4 7,-4l2 -2 -1 -3 -2 -4c0,0 -2,-2 -3,-2 -1,0 -3,-2 -3,-2l-2 -2 -3 -2 -3 -2 -2 -2 -3 -1 -1 0 -1 0 -2 0 -1 1 0 1 1 1 2 1 2 1 2 1 3 1 3 1 2 2 2 2 1 2 -3 1 -2 0 -1 -2 -1 -1 -1 -2 -2 -1 -1 0 -2 0 -2 1 0 2 0 2 0 3c0,0 2,0 2,0 0,0 2,0 2,0l2 -1c0,0 1,-1 1,-1 0,0 2,0 3,0 1,0 2,0 2,0l3 2 0 2 -3 1 -2 0 -3 1 -2 0 -4 0 -1 1 1 1 0 0z"/>
  <path class="fil3 str0" d="M5948 629l4 0c0,0 2,0 3,0 1,0 4,0 5,0 1,0 4,-1 5,-1 0,0 7,-4 7,-4l2 -2 -1 -3 -2 -4c0,0 -2,-2 -3,-2 -1,0 -3,-2 -3,-2l-2 -2 -3 -2 -3 -2 -2 -2 -3 -1 -1 0 -1 0 -2 0 -1 1 0 1 1 1 2 1 2 1 2 1 3 1 3 1 2 2 2 2 1 2 -3 1 -2 0 -1 -2 -1 -1 -1 -2 -2 -1 -1 0 -2 0 -2 1 0 2 0 2 0 3c0,0 2,0 2,0 0,0 2,0 2,0l2 -1c0,0 1,-1 1,-1 0,0 2,0 3,0 1,0 2,0 2,0l3 2 0 2 -3 1 -2 0 -3 1 -2 0 -4 0 -1 1 1 1 0 0z"/>
  <path class="fil2" d="M5950 635l0 2 1 2 2 1 1 1 2 0 3 -1 2 -2 1 -1 0 -1c0,0 1,-1 -1,-1 -2,0 -3,0 -3,0l-2 0 -1 -1 -1 0 -2 0 0 0 0 0z"/>
  <path class="fil3 str0" d="M5950 635l0 2 1 2 2 1 1 1 2 0 3 -1 2 -2 1 -1 0 -1c0,0 1,-1 -1,-1 -2,0 -3,0 -3,0l-2 0 -1 -1 -1 0 -2 0 0 0 0 0z"/>
  <path class="fil2" d="M6309 676l-5 4 -4 3 -6 4 -8 6 -8 6 -8 7 -10 7 -8 6 -7 6 -5 5c-2,1 -5,1 -5,1 -1,0 -1,-2 -1,-2 2,-1 3,-3 3,-3l5 -4 6 -4 6 -5 7 -6 6 -5 7 -6 6 -5 8 -7 10 -10 4 -5 3 -2 4 0 3 2 -2 6 0 0z"/>
  <path class="fil3 str0" d="M6309 676l-5 4 -4 3 -6 4 -8 6 -8 6 -8 7 -10 7 -8 6 -7 6 -5 5c-2,1 -5,1 -5,1 -1,0 -1,-2 -1,-2 2,-1 3,-3 3,-3l5 -4 6 -4 6 -5 7 -6 6 -5 7 -6 6 -5 8 -7 10 -10 4 -5 3 -2 4 0 3 2 -2 6 0 0z"/>
  <path class="fil2" d="M6262 722c1,1 0,2 0,2l-3 4 -21 17 -5 4 -6 5 -5 4 -3 3c-1,1 -2,1 -3,0 0,-1 2,-3 2,-3 1,-1 8,-6 8,-6l7 -6 7 -5 9 -7 5 -4 4 -4 2 -2c2,-4 3,-3 3,-3l0 0z"/>
  <path class="fil3 str0" d="M6262 722c1,1 0,2 0,2l-3 4 -21 17 -5 4 -6 5 -5 4 -3 3c-1,1 -2,1 -3,0 0,-1 2,-3 2,-3 1,-1 8,-6 8,-6l7 -6 7 -5 9 -7 5 -4 4 -4 2 -2c2,-4 3,-3 3,-3l0 0z"/>
  <polygon class="fil2" points="6293,668 6291,669 6290,671 6286,674 6282,678 6276,682 6273,685 6269,689 6264,693 6260,697 6258,700 6255,702 6252,705 6250,706 6248,707 6246,707 6245,705 6247,703 6251,700 6254,697 6259,693 6264,688 6268,684 6273,679 6278,674 6283,670 6286,665 6288,665 6290,665 6291,665 6293,668 "/>
  <polygon class="fil3 str0" points="6293,668 6291,669 6290,671 6286,674 6282,678 6276,682 6273,685 6269,689 6264,693 6260,697 6258,700 6255,702 6252,705 6250,706 6248,707 6246,707 6245,705 6247,703 6251,700 6254,697 6259,693 6264,688 6268,684 6273,679 6278,674 6283,670 6286,665 6288,665 6290,665 6291,665 6293,668 "/>
  <path class="fil2" d="M6281 662l-2 1 -2 2 -2 2 -2 2 -3 3 -2 2 -2 2 -3 3 -2 2 -1 1 -2 1c-2,1 -3,0 -3,0 0,-2 1,-3 1,-3l1 -2 2 -2 2 -2 3 -3 2 -3 2 -2 1 -2 2 -2 0 -1 0 -2c0,0 2,0 2,0 0,0 2,0 2,0l1 0 1 0 2 1 0 0z"/>
  <path class="fil3 str0" d="M6281 662l-2 1 -2 2 -2 2 -2 2 -3 3 -2 2 -2 2 -3 3 -2 2 -1 1 -2 1c-2,1 -3,0 -3,0 0,-2 1,-3 1,-3l1 -2 2 -2 2 -2 3 -3 2 -3 2 -2 1 -2 2 -2 0 -1 0 -2c0,0 2,0 2,0 0,0 2,0 2,0l1 0 1 0 2 1 0 0z"/>
  <path class="fil1" d="M6231 657l-4 2 -6 10 -12 21 -19 27c-7,12 -15,15 -15,15 -4,1 -16,4 -16,4l12 -9c7,-4 18,-17 18,-17l9 -11 7 -10 5 -8 6 -10c1,-1 6,-20 6,-20l3 0 2 2 2 2 1 3 0 0z"/>
  <path class="fil4 str0" d="M6231 657l-4 2 -6 10 -12 21 -19 27c-7,12 -15,15 -15,15 -4,1 -16,4 -16,4l12 -9c7,-4 18,-17 18,-17l9 -11 7 -10 5 -8 6 -10c1,-1 6,-20 6,-20l3 0 2 2 2 2 1 3 0 0z"/>
  <polygon class="fil2" points="6222,647 6220,650 6214,657 6210,663 6204,672 6199,678 6194,684 6190,690 6184,697 6177,703 6172,709 6167,714 6161,720 6156,724 6145,736 6137,737 6147,728 6152,724 6160,716 6165,712 6170,707 6174,703 6177,700 6181,695 6186,690 6190,684 6197,675 6201,670 6208,660 6215,647 6218,642 6222,644 6222,647 "/>
  <polygon class="fil3 str0" points="6222,647 6220,650 6214,657 6210,663 6204,672 6199,678 6194,684 6190,690 6184,697 6177,703 6172,709 6167,714 6161,720 6156,724 6145,736 6137,737 6147,728 6152,724 6160,716 6165,712 6170,707 6174,703 6177,700 6181,695 6186,690 6190,684 6197,675 6201,670 6208,660 6215,647 6218,642 6222,644 6222,647 "/>
  <path class="fil2" d="M6213 637l-3 4 -3 5 -6 8 -7 9 -11 14 -7 9 -5 6 -11 12 -5 5 -10 10 -5 5 -8 7c-13,10 -17,11 -17,11 -5,1 -9,1 -9,1 0,0 5,-4 5,-4 0,0 4,-2 4,-2l4 -2 5 -3 6 -5 5 -5 11 -11 7 -7 6 -7 9 -10 8 -10 7 -8 12 -15 12 -17c0,0 1,-2 1,-2 5,-4 5,2 5,2l0 0z"/>
  <path class="fil3 str0" d="M6213 637l-3 4 -3 5 -6 8 -7 9 -11 14 -7 9 -5 6 -11 12 -5 5 -10 10 -5 5 -8 7c-13,10 -17,11 -17,11 -5,1 -9,1 -9,1 0,0 5,-4 5,-4 0,0 4,-2 4,-2l4 -2 5 -3 6 -5 5 -5 11 -11 7 -7 6 -7 9 -10 8 -10 7 -8 12 -15 12 -17c0,0 1,-2 1,-2 5,-4 5,2 5,2l0 0z"/>
  <path class="fil2" d="M6118 719l-4 3 -5 4 -6 3 -4 2 -4 2 -5 2 -7 2 -10 1 -7 0c0,0 -10,2 0,4 0,0 6,0 6,0l8 -1c8,0 16,-4 17,-4 0,0 10,-4 10,-4l17 -11 13 -12c3,-5 -17,10 -17,10l0 0z"/>
  <path class="fil3 str0" d="M6118 719l-4 3 -5 4 -6 3 -4 2 -4 2 -5 2 -7 2 -10 1 -7 0c0,0 -10,2 0,4 0,0 6,0 6,0l8 -1c8,0 16,-4 17,-4 0,0 10,-4 10,-4l17 -11 13 -12c3,-5 -17,10 -17,10l0 0z"/>
  <path class="fil2" d="M6015 821c-20,4 -25,4 -25,4l-62 3c-10,0 -15,-2 -15,-2l15 -2c19,0 79,-8 79,-8l25 -3 -18 9 0 0z"/>
  <path class="fil3 str0" d="M6015 821c-20,4 -25,4 -25,4l-62 3c-10,0 -15,-2 -15,-2l15 -2c19,0 79,-8 79,-8l25 -3 -18 9 0 0z"/>
  <path class="fil1" d="M6039 801l-27 5 -35 5c0,0 -19,1 -19,1 -2,0 -5,-1 -5,-1 0,-1 0,-2 0,-2 0,0 2,-1 3,-1 1,0 20,-2 20,-2l41 -6 27 -6 12 -3 -19 9 0 0z"/>
  <path class="fil4 str0" d="M6039 801l-27 5 -35 5c0,0 -19,1 -19,1 -2,0 -5,-1 -5,-1 0,-1 0,-2 0,-2 0,0 2,-1 3,-1 1,0 20,-2 20,-2l41 -6 27 -6 12 -3 -19 9 0 0z"/>
  <path class="fil2" d="M6087 780l-26 5 -26 5 -34 5c-7,1 -14,0 -14,0 -3,0 -2,-1 -2,-1 0,-1 3,-3 4,-3 1,0 5,0 5,0 5,0 27,-3 27,-3l26 -5c0,0 20,-5 22,-5 2,0 22,-5 22,-5l-3 7 0 0z"/>
  <path class="fil3 str0" d="M6087 780l-26 5 -26 5 -34 5c-7,1 -14,0 -14,0 -3,0 -2,-1 -2,-1 0,-1 3,-3 4,-3 1,0 5,0 5,0 5,0 27,-3 27,-3l26 -5c0,0 20,-5 22,-5 2,0 22,-5 22,-5l-3 7 0 0z"/>
  <polygon class="fil2" points="6040,676 6037,675 6033,675 6030,676 6028,677 6023,680 6019,682 6014,686 6011,687 6009,688 6006,689 6005,689 6007,687 6009,686 6011,684 6017,679 6022,676 6027,673 6030,671 6033,670 6036,668 6039,668 6040,673 6040,676 "/>
  <polygon class="fil3 str0" points="6040,676 6037,675 6033,675 6030,676 6028,677 6023,680 6019,682 6014,686 6011,687 6009,688 6006,689 6005,689 6007,687 6009,686 6011,684 6017,679 6022,676 6027,673 6030,671 6033,670 6036,668 6039,668 6040,673 6040,676 "/>
  <path class="fil2" d="M6038 661c-1,0 -4,-1 -4,-1l-2 1 -4 3 -2 1 -5 3 -3 2 -2 3 -2 1 -4 1 -2 1c0,1 -2,0 -2,0 0,0 0,-1 1,-2 1,-1 3,-1 4,-2 1,-1 7,-6 7,-6l8 -6 7 -4c0,0 5,-2 5,-2 1,0 2,-3 2,-3l3 -1 4 4c0,0 -1,2 -1,3 0,1 -2,3 -2,3 0,0 -4,1 -4,1l0 0z"/>
  <path class="fil3 str0" d="M6038 661c-1,0 -4,-1 -4,-1l-2 1 -4 3 -2 1 -5 3 -3 2 -2 3 -2 1 -4 1 -2 1c0,1 -2,0 -2,0 0,0 0,-1 1,-2 1,-1 3,-1 4,-2 1,-1 7,-6 7,-6l8 -6 7 -4c0,0 5,-2 5,-2 1,0 2,-3 2,-3l3 -1 4 4c0,0 -1,2 -1,3 0,1 -2,3 -2,3 0,0 -4,1 -4,1l0 0z"/>
  <path class="fil2" d="M6031 637l-3 2 -4 2 -6 4 -4 3 -4 3c0,0 0,0 -2,1 -3,1 -4,2 -4,2 -1,0 -2,-2 -1,-2 1,-1 3,-3 3,-3l4 -2 5 -4 4 -3 4 -2 3 -2 3 -1 2 -1 2 -2 0 -4 -3 0 -3 1 -5 4 -7 4 -4 3 -3 2c0,0 -3,1 -4,1 -1,0 -2,0 -3,0 -2,0 -2,-1 -2,-1 1,-1 3,-3 3,-3l9 -5 4 -4 4 -3 4 -3 4 -1 3 -1 1 0 2 5 0 5 -3 5 0 0z"/>
  <path class="fil3 str0" d="M6031 637l-3 2 -4 2 -6 4 -4 3 -4 3c0,0 0,0 -2,1 -3,1 -4,2 -4,2 -1,0 -2,-2 -1,-2 1,-1 3,-3 3,-3l4 -2 5 -4 4 -3 4 -2 3 -2 3 -1 2 -1 2 -2 0 -4 -3 0 -3 1 -5 4 -7 4 -4 3 -3 2c0,0 -3,1 -4,1 -1,0 -2,0 -3,0 -2,0 -2,-1 -2,-1 1,-1 3,-3 3,-3l9 -5 4 -4 4 -3 4 -3 4 -1 3 -1 1 0 2 5 0 5 -3 5 0 0z"/>
  <path class="fil2" d="M6031 610l-5 3 -5 3 -5 2 -3 2 -4 2 -3 2 -3 1 -3 1c0,0 -1,0 -1,-1 0,-1 1,-2 1,-2 0,0 4,-1 4,-2 0,-1 4,-2 4,-3 0,-1 3,-3 3,-3 0,0 2,-1 4,-2 1,-1 4,-3 4,-3 0,0 4,-2 4,-2 0,-1 1,-1 2,-2 1,-1 2,-2 2,-2 0,0 2,-1 2,0 1,1 1,2 1,2l-1 2 0 0z"/>
  <path class="fil3 str0" d="M6031 610l-5 3 -5 3 -5 2 -3 2 -4 2 -3 2 -3 1 -3 1c0,0 -1,0 -1,-1 0,-1 1,-2 1,-2 0,0 4,-1 4,-2 0,-1 4,-2 4,-3 0,-1 3,-3 3,-3 0,0 2,-1 4,-2 1,-1 4,-3 4,-3 0,0 4,-2 4,-2 0,-1 1,-1 2,-2 1,-1 2,-2 2,-2 0,0 2,-1 2,0 1,1 1,2 1,2l-1 2 0 0z"/>
  <path class="fil2" d="M6173 603l-3 1 -4 2 -3 2 -3 1 -4 2 -3 1 -4 2 -3 1 -4 1c0,0 -1,1 -2,0 -1,-1 -1,-2 -1,-2 0,0 1,-1 2,-1 1,0 5,-3 5,-3l7 -4 6 -3 4 -2 3 -2 3 -1 3 1 0 3z"/>
  <path class="fil3 str0" d="M6173 603l-3 1 -4 2 -3 2 -3 1 -4 2 -3 1 -4 2 -3 1 -4 1c0,0 -1,1 -2,0 -1,-1 -1,-2 -1,-2 0,0 1,-1 2,-1 1,0 5,-3 5,-3l7 -4 6 -3 4 -2 3 -2 3 -1 3 1 0 3z"/>
  <polygon class="fil2" points="6169,591 6166,591 6162,594 6158,597 6153,601 6149,603 6139,608 6131,611 6128,613 6124,614 6121,613 6124,611 6127,609 6138,603 6144,600 6155,593 6164,587 6167,585 6169,587 6169,591 "/>
  <polygon class="fil3 str0" points="6169,591 6166,591 6162,594 6158,597 6153,601 6149,603 6139,608 6131,611 6128,613 6124,614 6121,613 6124,611 6127,609 6138,603 6144,600 6155,593 6164,587 6167,585 6169,587 6169,591 "/>
  <polygon class="fil2" points="6168,580 6164,580 6161,582 6158,585 6155,587 6151,590 6144,594 6138,597 6132,599 6124,603 6118,606 6112,608 6110,608 6108,607 6109,605 6114,603 6120,601 6131,595 6142,590 6150,584 6156,581 6158,579 6161,578 6164,575 6167,575 6168,580 "/>
  <polygon class="fil3 str0" points="6168,580 6164,580 6161,582 6158,585 6155,587 6151,590 6144,594 6138,597 6132,599 6124,603 6118,606 6112,608 6110,608 6108,607 6109,605 6114,603 6120,601 6131,595 6142,590 6150,584 6156,581 6158,579 6161,578 6164,575 6167,575 6168,580 "/>
  <path class="fil2" d="M6165 568l-5 1 -3 1 -6 3 -7 4 -8 5 -9 4 -6 3 -8 4 -5 2 -6 2 -4 2 -4 1 -4 0 -4 0 -3 -1 1 -2c0,0 2,-1 4,-1 1,0 8,-2 8,-2l11 -4 8 -4 12 -7 13 -7 7 -4 6 -4c0,0 3,-2 4,-2 1,0 2,-1 2,-2 0,-1 1,-4 1,-4l2 1 1 3 1 4 0 0z"/>
  <path class="fil3 str0" d="M6165 568l-5 1 -3 1 -6 3 -7 4 -8 5 -9 4 -6 3 -8 4 -5 2 -6 2 -4 2 -4 1 -4 0 -4 0 -3 -1 1 -2c0,0 2,-1 4,-1 1,0 8,-2 8,-2l11 -4 8 -4 12 -7 13 -7 7 -4 6 -4c0,0 3,-2 4,-2 1,0 2,-1 2,-2 0,-1 1,-4 1,-4l2 1 1 3 1 4 0 0z"/>
  <path class="fil2" d="M6036 649l-4 1 -3 2 -5 3 -4 2 -4 2 -4 2 -1 1 -3 2 -2 2c0,0 -2,1 -3,1 -1,0 -2,0 -2,0 0,0 0,-2 1,-2 1,0 3,-2 3,-2l4 -2 3 -3 3 -2 4 -2 4 -2 3 -2 2 -1 2 -1 2 -1 3 1 2 1 -1 2 0 0z"/>
  <path class="fil3 str0" d="M6036 649l-4 1 -3 2 -5 3 -4 2 -4 2 -4 2 -1 1 -3 2 -2 2c0,0 -2,1 -3,1 -1,0 -2,0 -2,0 0,0 0,-2 1,-2 1,0 3,-2 3,-2l4 -2 3 -3 3 -2 4 -2 4 -2 3 -2 2 -1 2 -1 2 -1 3 1 2 1 -1 2 0 0z"/>
  <path class="fil2" d="M6036 649l-4 1 -3 2 -5 3 -4 2 -4 2 -4 2 -1 1 -3 2 -2 2c0,0 -3,1 -3,1 -2,0 -2,-2 -1,-3 1,0 3,-2 3,-2l4 -2 3 -3 3 -2 4 -2 4 -2 3 -2 2 -1 2 -1 2 -1 3 1 2 1 -1 2 0 0z"/>
  <path class="fil3 str0" d="M6036 649l-4 1 -3 2 -5 3 -4 2 -4 2 -4 2 -1 1 -3 2 -2 2c0,0 -3,1 -3,1 -2,0 -2,-2 -1,-3 1,0 3,-2 3,-2l4 -2 3 -3 3 -2 4 -2 4 -2 3 -2 2 -1 2 -1 2 -1 3 1 2 1 -1 2 0 0z"/>
  <path class="fil2" d="M6015 876l2 -2 2 -3 2 -2 2 -2 1 -3c0,0 -3,1 -3,1l-3 1 -2 1 -2 1 -1 8 3 -1 0 0z"/>
  <path class="fil3 str1" d="M6015 876l2 -2 2 -3 2 -2 2 -2 1 -3c0,0 -3,1 -3,1l-3 1 -2 1 -2 1 -1 8 3 -1 0 0z"/>
  <path class="fil2" d="M5711 1024c4,-3 5,-10 2,-14 -3,-5 -10,-5 -14,-2 -5,3 -5,10 -2,14 3,4 10,5 14,2l0 0z"/>
  <polygon class="fil2" points="5803,1146 5798,1142 5790,1151 5755,1122 5838,1101 5840,1098 5793,1059 5795,1056 5791,1052 5778,1067 5783,1071 5789,1064 5822,1092 5740,1113 5737,1116 5791,1161 5803,1146 "/>
  <path class="fil2" d="M5949 1165l-30 -17 -3 6 11 6 -21 38c-7,12 -20,16 -31,10 -11,-6 -14,-19 -7,-31l21 -38 11 6 3 -6 -34 -19 -3 6 11 6 -23 41c-8,14 -2,31 14,40 17,9 35,5 44,-11l21 -38 11 6 3 -6 0 0z"/>
  <path class="fil1" d="M6031 1274c16,4 27,-1 30,-14 3,-12 -4,-22 -20,-27 12,3 23,-2 25,-12 3,-12 -4,-21 -18,-25l-41 -10 -2 6 13 3 -16 65 -13 -3 -2 6 43 11 0 0zm-9 -41l12 3c11,3 15,9 13,20 -2,10 -9,13 -20,10l-12 -3 7 -30 0 0zm8 -34l12 3c8,2 11,8 9,16 -2,8 -9,13 -17,11l-11 -3 7 -27 0 0z"/>
  <polygon class="fil2" points="6180,1274 6174,1273 6174,1283 6145,1282 6146,1251 6168,1252 6167,1261 6174,1261 6174,1237 6168,1237 6168,1245 6146,1245 6147,1216 6175,1217 6175,1226 6181,1226 6182,1207 6175,1207 6175,1210 6121,1208 6121,1215 6134,1215 6132,1282 6119,1281 6118,1288 6180,1290 6180,1274 "/>
  <path class="fil1" d="M6318 1268l-5 1c-4,1 -7,-1 -11,-5l-19 -21c11,-4 17,-13 15,-25 -2,-14 -12,-20 -29,-17l-40 6 1 7 13 -2 10 65 -13 2 1 6 38 -6 -1 -6 -13 2 -4 -28 8 -1 22 24c5,6 7,6 14,5l12 -2 -1 -6 0 0zm-62 -57l12 -2c9,-1 14,3 16,13 1,9 -3,16 -11,18l-12 2 -5 -30 0 0z"/>
  <polygon class="fil2" points="6423,1219 6417,1221 6421,1231 6394,1241 6370,1180 6382,1175 6380,1169 6344,1183 6346,1189 6358,1184 6382,1246 6370,1251 6372,1257 6429,1235 6423,1219 "/>
  <polygon class="fil2" points="6503,1187 6491,1193 6457,1137 6468,1130 6465,1124 6432,1144 6435,1150 6446,1143 6480,1200 6469,1207 6473,1212 6506,1192 6503,1187 "/>
  <polygon class="fil2" points="6568,1050 6577,1041 6573,1036 6547,1060 6552,1065 6562,1056 6595,1092 6522,1084 6505,1099 6510,1104 6519,1095 6524,1096 6566,1141 6557,1150 6561,1155 6587,1131 6582,1127 6573,1136 6538,1099 6614,1107 6618,1104 6568,1050 "/>
  <path class="fil2" d="M6646 1004c-4,-3 -11,-2 -14,2 -3,5 -2,11 2,14 5,3 11,2 14,-2 3,-4 2,-11 -2,-14l0 0z"/>
  <polygon class="fil2" points="5647,846 5652,857 5592,885 5586,873 5580,875 5596,911 5602,908 5597,897 5624,885 5643,927 5616,939 5611,928 5605,930 5621,966 5627,963 5621,951 5682,924 5687,936 5693,933 5677,898 5672,901 5677,912 5649,925 5630,882 5658,869 5663,881 5669,879 5653,843 5647,846 "/>
  <path class="fil2" d="M5548 718l5 34 7 -1 -2 -13 42 -7c14,-2 25,5 27,18 2,12 -6,22 -20,24l-43 7 -2 -13 -7 1 6 39 7 -1 -2 -13 46 -7c16,-3 26,-18 23,-36 -3,-19 -18,-31 -36,-28l-43 7 -2 -13 -7 1 0 0z"/>
  <polygon class="fil2" points="5631,551 5630,564 5564,556 5566,543 5559,542 5556,569 5610,603 5549,623 5546,649 5553,650 5554,637 5620,645 5618,658 5625,658 5629,624 5623,623 5621,636 5567,630 5632,609 5571,570 5628,577 5627,590 5633,590 5638,552 5631,551 "/>
  <path class="fil1" d="M5668 461c6,-15 2,-27 -10,-31 -12,-5 -23,1 -29,17 5,-12 1,-23 -9,-27 -11,-4 -22,2 -27,15l-15 39 6 2 5 -12 62 24 -5 12 6 2 16 -41 0 0zm-42 4l4 -12c4,-11 11,-14 21,-10 9,4 12,11 8,21l-4 11 -29 -11 0 0zm-32 -12l4 -11c3,-8 9,-10 17,-7 8,3 12,10 8,18l-4 10 -26 -10 0 0z"/>
  <path class="fil1" d="M5724 363c12,-18 7,-44 -11,-57 -18,-13 -45,-8 -57,9 -13,18 -8,45 11,57 19,13 45,9 58,-9l0 0zm-63 -44c8,-12 27,-13 43,-2 16,11 22,29 13,41 -8,12 -28,12 -43,1 -16,-11 -22,-29 -13,-41l0 0z"/>
  <polygon class="fil2" points="5809,238 5805,242 5812,250 5791,270 5746,222 5755,213 5750,208 5722,235 5727,240 5736,231 5782,279 5773,288 5777,293 5821,250 5809,238 "/>
  <path class="fil1" d="M5850 227l35 -22c20,-13 26,-36 14,-56 -12,-19 -36,-24 -56,-12l-35 22 3 5 11 -7 35 57 -11 7 3 5 0 0zm18 -20l-35 -56 12 -7c13,-8 31,-3 41,13 10,16 7,34 -7,43l-11 7 0 0z"/>
  <polygon class="fil2" points="6007,142 5994,147 5972,85 5996,76 5999,86 6005,83 5998,65 5992,67 5994,70 5934,91 5933,87 5927,89 5933,108 5939,106 5936,97 5960,89 5981,151 5968,156 5970,162 6010,148 6007,142 "/>
  <polygon class="fil2" points="6078,85 6046,91 6049,104 6081,98 6078,85 "/>
  <path class="fil2" d="M6224 45l-35 -1 0 7 13 0 -1 43c0,14 -10,24 -23,23 -13,0 -21,-10 -21,-24l1 -43 13 0 0 -7 -39 -1 0 7 13 0 -1 47c0,16 13,28 31,29 20,0 33,-12 34,-31l1 -43 13 0 0 -7 0 0z"/>
  <polygon class="fil2" points="6364,81 6376,84 6378,77 6345,68 6343,75 6355,78 6343,126 6311,59 6289,54 6287,60 6299,63 6301,69 6285,128 6273,125 6271,131 6305,140 6306,134 6294,130 6307,81 6340,151 6345,152 6364,81 "/>
  <polygon class="fil2" points="6440,187 6429,181 6460,122 6471,128 6474,122 6440,104 6437,110 6448,116 6417,175 6406,169 6403,174 6437,192 6440,187 "/>
  <polygon class="fil2" points="6568,194 6574,198 6578,193 6558,178 6554,183 6562,189 6513,219 6527,163 6536,169 6540,164 6513,144 6509,149 6516,154 6496,233 6499,235 6568,194 "/>
  <polygon class="fil2" points="6612,320 6608,315 6601,321 6582,299 6604,279 6619,295 6612,301 6617,306 6634,290 6630,285 6624,291 6609,274 6630,255 6649,276 6643,282 6647,287 6661,274 6657,269 6654,271 6618,231 6614,236 6622,245 6573,290 6564,280 6559,285 6600,330 6612,320 "/>
  <path class="fil1" d="M6673 437l-2 -4c-2,-3 -2,-7 1,-12l13 -25c7,9 18,11 28,5 12,-7 14,-18 6,-33l-20 -35 -6 3 6 11 -58 32 -6 -11 -6 3 19 34 6 -3 -6 -11 25 -14 4 7 -15 29c-4,7 -4,8 0,15l6 11 6 -3 0 0zm32 -78l6 11c4,8 2,15 -6,19 -8,5 -16,3 -20,-4l-6 -11 27 -15 0 0z"/>
  <path class="fil2" d="M6688 484c-2,8 -1,14 1,20 4,14 17,21 29,17 11,-3 15,-9 18,-26 1,-4 2,-9 3,-14 1,-7 3,-9 7,-11 7,-2 13,2 15,9 1,4 2,8 0,15l-8 3 2 6 20 -6 -2 -6 -4 1c1,-6 1,-11 -1,-16 -4,-13 -17,-20 -29,-17 -10,3 -14,10 -16,27 -2,16 -5,22 -11,24 -6,2 -13,-2 -16,-10 -2,-6 -2,-11 0,-18l8 -3 -2 -6 -20 7 2 6 4 -1 0 0z"/>
  <polygon class="fil2" points="6720,611 6718,598 6784,589 6786,602 6792,601 6787,563 6780,564 6782,576 6717,586 6715,573 6708,574 6714,612 6720,611 "/>
  <polygon class="fil2" points="6721,712 6722,697 6788,699 6787,724 6778,724 6777,730 6797,731 6798,725 6794,725 6796,662 6800,662 6800,655 6780,655 6780,661 6789,661 6789,686 6722,684 6723,669 6717,669 6715,711 6721,712 "/>
  <path class="fil1" d="M6696 840l2 -7 81 -12 1 -4 -65 -50 2 -6 -6 -2 -6 23 6 2 2 -9 16 12 -8 30 -20 3 2 -7 -6 -2 -7 28 6 2 0 0zm96 7c5,1 9,-2 11,-6 1,-5 -2,-9 -6,-11 -4,-1 -9,2 -10,6 -1,5 2,9 6,10l0 0zm7 -30c5,1 9,-2 11,-6 1,-5 -2,-9 -6,-11 -5,-1 -9,2 -10,6 -1,4 2,9 6,10l0 0zm-65 -27l26 20 -32 5 6 -25 0 0z"/>
  <polygon class="fil2" points="6661,923 6667,910 6727,938 6716,961 6707,956 6705,962 6723,971 6725,965 6722,963 6749,906 6752,908 6755,902 6737,894 6734,899 6743,903 6732,926 6672,898 6679,885 6673,882 6655,920 6661,923 "/>
  <polygon class="fil2" points="154,717 134,717 134,613 154,613 154,603 94,603 94,613 114,613 114,658 40,658 40,613 61,613 61,603 0,603 0,613 20,613 20,717 0,717 0,726 61,726 61,717 40,717 40,669 114,669 114,717 94,717 94,726 154,726 "/>
  <path class="fil2" d="M370 603l-54 0 0 11 20 0 0 67c0,22 -14,37 -35,37 -20,0 -33,-15 -33,-37l0 -67 20 0 0 -11 -61 0 0 11 20 0 0 73c0,25 21,44 50,44 31,0 51,-20 51,-49l0 -68 20 0 0 -11z"/>
  <polygon class="fil2" points="609,717 589,717 589,613 609,613 609,603 567,603 524,693 481,603 441,603 441,613 461,613 461,717 441,717 441,726 495,726 495,717 475,717 475,632 520,728 568,627 568,717 548,717 548,726 609,726 "/>
  <path class="fil1" d="M757 726c25,0 40,-12 40,-32 0,-20 -15,-32 -40,-33 20,0 34,-12 34,-28 0,-19 -14,-31 -37,-31l-65 0 0 10 20 0 0 104 -20 0 0 10 69 0 0 0zm-29 -59l19 0c18,0 27,9 27,25 0,15 -9,23 -27,23l-19 0 0 -48zm0 -54l19 0c13,0 20,7 20,21 0,14 -9,22 -22,22l-17 0 0 -43z"/>
  <path class="fil1" d="M931 730c34,0 63,-31 63,-66 0,-35 -29,-65 -63,-65 -34,0 -64,30 -64,65 0,35 29,66 64,66l0 0zm0 -119c22,0 41,24 41,54 0,30 -18,54 -41,54 -22,0 -40,-24 -40,-54 0,-30 18,-54 40,-54l0 0z"/>
  <polygon class="fil2" points="1163,699 1154,699 1154,716 1109,716 1109,613 1129,613 1129,603 1068,603 1068,613 1088,613 1088,717 1068,717 1068,726 1163,726 "/>
  <path class="fil1" d="M1224 726l63 0c37,0 65,-27 65,-62 0,-35 -28,-62 -65,-62l-63 0 0 10 20 0 0 104 -20 0 0 10zm40 -11l0 -102 21 0c25,0 44,22 44,51 0,29 -19,51 -44,51l-21 0 0 0z"/>
  <polygon class="fil2" points="1501,717 1479,717 1479,613 1518,613 1518,628 1528,628 1528,597 1518,597 1518,603 1419,603 1419,597 1410,597 1410,628 1419,628 1419,613 1458,613 1458,717 1436,717 1436,726 1501,726 "/>
  <polygon class="fil2" points="1633,655 1582,655 1582,676 1633,676 "/>
  <path class="fil2" d="M1843 603l-54 0 0 11 20 0 0 67c0,22 -14,37 -35,37 -20,0 -33,-15 -33,-37l0 -67 20 0 0 -11 -61 0 0 11 20 0 0 73c0,25 21,44 50,44 31,0 51,-20 51,-49l0 -68 20 0 0 -11z"/>
  <polygon class="fil2" points="2037,613 2057,613 2057,603 2003,603 2003,613 2024,613 2024,690 1948,603 1914,603 1914,613 1932,613 1938,620 1938,717 1918,717 1918,726 1972,726 1972,717 1951,717 1951,638 2029,729 2037,729 "/>
  <polygon class="fil2" points="2193,717 2173,717 2173,613 2193,613 2193,603 2133,603 2133,613 2153,613 2153,717 2133,717 2133,726 2193,726 "/>
  <polygon class="fil2" points="2368,613 2379,613 2379,603 2340,603 2340,613 2356,613 2322,696 2287,613 2304,613 2304,603 2252,603 2252,613 2265,613 2313,730 2320,730 2368,613 "/>
  <polygon class="fil2" points="2536,702 2527,702 2527,716 2481,716 2481,669 2515,669 2515,682 2525,682 2525,645 2515,645 2515,658 2481,658 2481,613 2525,613 2525,627 2535,627 2535,597 2525,597 2525,603 2441,603 2441,613 2461,613 2461,717 2441,717 2441,726 2536,726 "/>
  <path class="fil1" d="M2736 717l-7 0c-6,0 -11,-3 -16,-10l-25 -36c18,-3 29,-16 29,-34 0,-22 -14,-33 -40,-33l-63 0 0 11 20 0 0 103 -20 0 0 10 61 0 0 -10 -20 0 0 -44 13 0 29 43c7,10 9,11 21,11l20 0 0 -10zm-82 -103l19 0c14,0 21,8 21,23 0,15 -8,25 -21,25l-19 0 0 -48z"/>
  <path class="fil2" d="M2809 721c10,6 20,9 30,9 22,0 39,-15 39,-35 0,-17 -6,-26 -29,-39 -6,-3 -12,-7 -19,-11 -9,-5 -12,-9 -12,-16 0,-11 8,-18 21,-18 7,0 12,1 23,7l0 13 10 0 0 -32 -10 0 0 7c-8,-4 -16,-6 -24,-6 -21,0 -38,15 -38,35 0,16 8,25 32,37 22,11 29,18 29,28 0,10 -10,18 -23,18 -9,0 -17,-2 -27,-9l0 -14 -10 0 0 33 10 0 0 -7z"/>
  <polygon class="fil2" points="3012,717 2992,717 2992,613 3012,613 3012,603 2951,603 2951,613 2972,613 2972,717 2951,717 2951,726 3012,726 "/>
  <polygon class="fil2" points="3163,717 3140,717 3140,613 3179,613 3179,628 3189,628 3189,597 3179,597 3179,603 3080,603 3080,597 3071,597 3071,628 3080,628 3080,613 3120,613 3120,717 3097,717 3097,726 3163,726 "/>
  <path class="fil1" d="M3361 717l-12 0 -49 -118 -7 0 -51 118 -10 0 0 10 37 0 0 -10 -15 0 13 -29 49 0 12 29 -12 0 0 10 45 0 0 -10 0 0zm-26 -148c0,-8 -6,-14 -13,-14 -8,0 -14,6 -14,14 0,7 6,13 14,13 7,0 13,-6 13,-13l0 0zm-47 0c0,-8 -6,-14 -13,-14 -8,0 -14,6 -14,14 0,7 6,13 14,13 7,0 13,-6 13,-13l0 0zm-16 108l20 -47 20 47 -40 0 0 0z"/>
  <polygon class="fil2" points="3496,717 3473,717 3473,613 3512,613 3512,628 3522,628 3522,597 3512,597 3512,603 3414,603 3414,597 3404,597 3404,628 3414,628 3414,613 3453,613 3453,717 3430,717 3430,726 3496,726 "/>
  <polygon class="fil2" points="3794,698 3785,698 3785,716 3713,716 3791,609 3791,603 3695,603 3695,597 3686,597 3686,627 3695,627 3695,613 3762,613 3686,721 3686,726 3794,726 "/>
  <path class="fil2" d="M4002 603l-54 0 0 11 20 0 0 67c0,22 -14,37 -35,37 -20,0 -33,-15 -33,-37l0 -67 20 0 0 -11 -61 0 0 11 20 0 0 73c0,25 21,44 50,44 31,0 51,-20 51,-49l0 -68 20 0 0 -11z"/>
  <path class="fil1" d="M4254 726c25,0 40,-12 40,-32 0,-20 -15,-32 -40,-33 20,0 34,-12 34,-28 0,-19 -14,-31 -37,-31l-65 0 0 10 20 0 0 104 -20 0 0 10 69 0 0 0zm-29 -59l19 0c18,0 27,9 27,25 0,15 -9,23 -27,23l-19 0 0 -48zm0 -54l19 0c13,0 20,7 20,21 0,14 -9,22 -22,22l-17 0 0 -43z"/>
  <polygon class="fil2" points="4464,702 4454,702 4454,716 4409,716 4409,669 4443,669 4443,682 4453,682 4453,645 4443,645 4443,658 4409,658 4409,613 4453,613 4453,627 4462,627 4462,597 4453,597 4453,603 4368,603 4368,613 4389,613 4389,717 4368,717 4368,726 4464,726 "/>
  <path class="fil1" d="M4664 717l-7 0c-6,0 -11,-3 -16,-10l-25 -36c18,-3 29,-16 29,-34 0,-22 -14,-33 -40,-33l-63 0 0 11 20 0 0 103 -20 0 0 10 61 0 0 -10 -20 0 0 -44 13 0 29 43c7,10 9,11 21,11l20 0 0 -10zm-82 -103l19 0c14,0 21,8 21,23 0,15 -8,25 -21,25l-19 0 0 -48z"/>
  <polygon class="fil2" points="4823,699 4813,699 4813,716 4768,716 4768,613 4788,613 4788,603 4727,603 4727,613 4748,613 4748,717 4727,717 4727,726 4823,726 "/>
  <polygon class="fil2" points="4947,717 4927,717 4927,613 4947,613 4947,603 4886,603 4886,613 4906,613 4906,717 4886,717 4886,726 4947,726 "/>
  <polygon class="fil2" points="5148,613 5168,613 5168,603 5114,603 5114,613 5134,613 5134,690 5059,603 5025,603 5025,613 5043,613 5049,620 5049,717 5029,717 5029,726 5083,726 5083,717 5062,717 5062,638 5140,729 5148,729 "/>
 </g>
<svg id="midnight-lizard-filters" style="height: 0px; width: 0px; position: absolute;"><filter id="ml-blue-filter" color-interpolation-filters="sRGB" x="0" y="0" width="99999" height="99999"/><filter id="ml-content-filter" color-interpolation-filters="sRGB" x="0" y="0" width="99999" height="99999"/><filter id="pdf-bg-filter" color-interpolation-filters="sRGB" x="0" y="0" width="99999" height="99999"><feComponentTransfer><feFuncR type="discrete" tableValues="0 0 0 0 0 0 0 0 0 0 0 0 0 0 0 0 0 0 0 0 0 0 0 0 0 0 0 0 0 0 0 0 0 0 0 0 0 0 0 0 0 0 0 0 0 0 0 0 0 0 0 0 0 0 0 0 0 0 0 0 0 0 0 0 0 0 0 0 0 0 0 0 0 0 0 0 0 0 0 0 0 0 1 0 0 0 0 0 0 0 0 0 0 0 0 0 0 0 0 0 0 0 0 0 0 0 0 0 0 0 0 0 0 0 0 0 0 0 0 0 0 0 0 0 0 0 0 0 0 0 0 0 0 0 0 0 0 0 0 0 0 0 0 0 0 0 0 0 0 0 0 0 0 0 0 0 0 0 0 0 0 0 0 0 0 0 0 0 0 0 0 0 0 0 0 0 0 0 0 0 0 0 0 0 0 0 0 0 0 0 0 0 0 0 0 0 0 0 0 0 0 0 0 0 0 0 0 0 0 0 0 0 0 0 0 0 0 0 0 0 0 0 0 0 0 0 0 0 0 0 0 0 0 0 0 0 0 0 0 0 0 0 0 0 0 0 0 0 0 0 0 0 0 0 0 0"/><feFuncG type="discrete" tableValues="0 0 0 0 0 0 0 0 0 0 0 0 0 0 0 0 0 0 0 0 0 0 0 0 0 0 0 0 0 0 0 0 0 0 0 0 0 0 0 0 0 0 0 0 0 0 0 0 0 0 0 0 0 0 0 0 0 0 0 0 0 0 0 0 0 0 0 0 0 0 0 0 0 0 0 0 0 0 0 0 0 0 0 0 0 0 1 0 0 0 0 0 0 0 0 0 0 0 0 0 0 0 0 0 0 0 0 0 0 0 0 0 0 0 0 0 0 0 0 0 0 0 0 0 0 0 0 0 0 0 0 0 0 0 0 0 0 0 0 0 0 0 0 0 0 0 0 0 0 0 0 0 0 0 0 0 0 0 0 0 0 0 0 0 0 0 0 0 0 0 0 0 0 0 0 0 0 0 0 0 0 0 0 0 0 0 0 0 0 0 0 0 0 0 0 0 0 0 0 0 0 0 0 0 0 0 0 0 0 0 0 0 0 0 0 0 0 0 0 0 0 0 0 0 0 0 0 0 0 0 0 0 0 0 0 0 0 0 0 0 0 0 0 0 0 0 0 0 0 0 0 0 0 0 0 0"/><feFuncB type="discrete" tableValues="0 0 0 0 0 0 0 0 0 0 0 0 0 0 0 0 0 0 0 0 0 0 0 0 0 0 0 0 0 0 0 0 0 0 0 0 0 0 0 0 0 0 0 0 0 0 0 0 0 0 0 0 0 0 0 0 0 0 0 0 0 0 0 0 0 0 0 0 0 0 0 0 0 0 0 0 0 0 0 0 0 0 0 0 0 0 0 0 0 1 0 0 0 0 0 0 0 0 0 0 0 0 0 0 0 0 0 0 0 0 0 0 0 0 0 0 0 0 0 0 0 0 0 0 0 0 0 0 0 0 0 0 0 0 0 0 0 0 0 0 0 0 0 0 0 0 0 0 0 0 0 0 0 0 0 0 0 0 0 0 0 0 0 0 0 0 0 0 0 0 0 0 0 0 0 0 0 0 0 0 0 0 0 0 0 0 0 0 0 0 0 0 0 0 0 0 0 0 0 0 0 0 0 0 0 0 0 0 0 0 0 0 0 0 0 0 0 0 0 0 0 0 0 0 0 0 0 0 0 0 0 0 0 0 0 0 0 0 0 0 0 0 0 0 0 0 0 0 0 0 0 0 0 0 0 0"/></feComponentTransfer><feColorMatrix result="selectedColor" type="matrix" values="1 0 0 0 0&#xA;                                               0 1 0 0 0&#xA;                                               0 0 1 0 0&#xA;                                               1 1 1 1 -3"/><feFlood flood-color="rgb(240, 240, 240)"/><feComposite operator="in" in2="selectedColor"/><feComposite operator="over" in2="SourceGraphic"/></filter></svg><style xmlns="" id="midnight-lizard-dynamic-values">:root { 
--ml-main-background-color:rgb(34, 36, 37);
--ml-main-background-color-filtered:rgb(34, 36, 37);
--ml-main-alt-background-color:rgb(24, 26, 27);
--ml-main-alt-background-color-filtered:rgb(24, 26, 27);
--ml-main-trans-background-color:rgba(34, 36, 37, 0.5);
--ml-main-trans-alt-background-color:rgba(24, 26, 27, 0.3);
--ml-main-text-color:rgb(209, 203, 199);
--ml-main-trans-text-color:rgba(232, 229, 227, 0.6);
--ml-main-text-color-filtered:rgb(209, 203, 199);
--ml-main-border-color:rgb(123, 107, 101);
--ml-main-trans-border-color:rgba(140, 122, 115, 0.3);
--ml-main-range-fill-color:rgb(87, 74, 69);
--ml-main-selection-color:rgb(12, 128, 223);
--ml-main-selection-text-color:rgb(255, 255, 255);
--ml-main-selection-shadow-color:rgba(0, 0, 0, 0.8);
--ml-main-button-background-color:rgb(23, 27, 28);
--ml-main-button-border-color:rgb(112, 97, 92);
--ml-main-red-button-background-color:rgb(46, 5, 5);
--ml-main-scrollbar-thumb-hover-color:rgb(107, 100, 97);
--ml-main-scrollbar-thumb-normal-color:rgb(86, 80, 78);
--ml-main-scrollbar-thumb-active-color:rgb(75, 70, 68);
--ml-main-scrollbar-track-color:rgb(34, 36, 37);
--ml-main-scrollbar-marks-color:rgb(209, 203, 199);
--ml-main-scrollbar-shadow-color:rgba(0, 0, 0, 0.3);
--ml-main-scrollbar-size:10px;
--ml-main-moz-scrollbar-width:auto;
--ml-main-moz-scrollbar-track-color:rgb(24, 26, 27);
--ml-main-link-color:rgb(117, 182, 234);
--ml-main-link-color-hover:rgb(144, 196, 238);
--ml-main-link-color-active:rgb(113, 179, 234);
--ml-main-visited-color:rgb(160, 117, 234);
--ml-main-visited-color-hover:rgb(179, 144, 238);
--ml-main-visited-color-active:rgb(157, 113, 234);
--ml-main-scrollbar-marks-color-original:rgb(209, 203, 199);
--ml-main-scrollbar-thumb-hover-color-original:rgb(107, 100, 97);
--ml-main-scrollbar-thumb-normal-color-original:rgb(86, 80, 78);
--ml-main-scrollbar-thumb-active-color-original:rgb(75, 70, 68);
--ml-main-scrollbar-track-color-original:rgb(34, 36, 37);
--ml-main-moz-scrollbar-track-color-original:rgb(24, 26, 27);
--ml-main-scrollbar-shadow-color-original:rgba(0, 0, 0, 0.3);
--ml-main-scrollbar-marks-color-filtered:rgb(209, 203, 199);
--ml-main-scrollbar-thumb-hover-color-filtered:rgb(107, 100, 97);
--ml-main-scrollbar-thumb-normal-color-filtered:rgb(86, 80, 78);
--ml-main-scrollbar-thumb-active-color-filtered:rgb(75, 70, 68);
--ml-main-scrollbar-track-color-filtered:rgb(34, 36, 37);
--ml-main-moz-scrollbar-track-color-filtered:rgb(24, 26, 27);
--ml-main-scrollbar-shadow-color-filtered:rgba(0, 0, 0, 0.3);
--ml-background-saturation-limit:0.7;
--ml-background-contrast:0.5;
--ml-background-lightness-limit:0.14;
--ml-background-gray-saturation:0.05;
--ml-background-gray-hue:200;
--ml-background-replace-all-hues:false;
--ml-background-hue-gravity:0;
--ml-highlighted-background-saturation-limit:0.91;
--ml-highlighted-background-contrast:0.06;
--ml-highlighted-background-lightness-limit:0.4;
--ml-highlighted-background-gray-saturation:0.05;
--ml-highlighted-background-gray-hue:200;
--ml-highlighted-background-replace-all-hues:false;
--ml-highlighted-background-hue-gravity:0;
--ml-button-background-saturation-limit:0.8;
--ml-button-background-contrast:0.04;
--ml-button-background-lightness-limit:0.17;
--ml-button-background-gray-saturation:0.1;
--ml-button-background-gray-hue:190;
--ml-button-background-replace-all-hues:false;
--ml-button-background-hue-gravity:0;
--ml-text-selection-saturation-limit:0.9;
--ml-text-selection-contrast:0;
--ml-text-selection-lightness-limit:0.46;
--ml-text-selection-gray-saturation:0.9;
--ml-text-selection-gray-hue:207;
--ml-text-selection-replace-all-hues:true;
--ml-text-selection-hue-gravity:0;
--ml-text-saturation-limit:0.9;
--ml-text-contrast:0.66;
--ml-text-lightness-limit:0.9;
--ml-text-gray-saturation:0.1;
--ml-text-gray-hue:22;
--ml-text-replace-all-hues:false;
--ml-text-hue-gravity:0;
--ml-highlighted-text-saturation-limit:1;
--ml-highlighted-text-contrast:0.79;
--ml-highlighted-text-lightness-limit:1;
--ml-highlighted-text-gray-saturation:0.1;
--ml-highlighted-text-gray-hue:22;
--ml-highlighted-text-replace-all-hues:false;
--ml-highlighted-text-hue-gravity:0;
--ml-link-saturation-limit:0.8;
--ml-link-contrast:0.55;
--ml-link-lightness-limit:0.75;
--ml-link-gray-saturation:0.74;
--ml-link-gray-hue:207;
--ml-link-replace-all-hues:false;
--ml-link-hue-gravity:0.8;
--ml-link-active-saturation-limit:0.8;
--ml-link-active-contrast:0.55;
--ml-link-active-lightness-limit:0.68;
--ml-link-active-gray-saturation:0.74;
--ml-link-active-gray-hue:207;
--ml-link-active-replace-all-hues:false;
--ml-link-active-hue-gravity:0.8;
--ml-link-hover-saturation-limit:0.8;
--ml-link-hover-contrast:0.61;
--ml-link-hover-lightness-limit:0.83;
--ml-link-hover-gray-saturation:0.74;
--ml-link-hover-gray-hue:207;
--ml-link-hover-replace-all-hues:false;
--ml-link-hover-hue-gravity:0.8;
--ml-visited-link-saturation-limit:0.8;
--ml-visited-link-contrast:0.55;
--ml-visited-link-lightness-limit:0.75;
--ml-visited-link-gray-saturation:0.74;
--ml-visited-link-gray-hue:262;
--ml-visited-link-replace-all-hues:true;
--ml-visited-link-hue-gravity:0;
--ml-visited-link-hover-saturation-limit:0.8;
--ml-visited-link-hover-contrast:0.61;
--ml-visited-link-hover-lightness-limit:0.83;
--ml-visited-link-hover-gray-saturation:0.74;
--ml-visited-link-hover-gray-hue:262;
--ml-visited-link-hover-replace-all-hues:true;
--ml-visited-link-hover-hue-gravity:0;
--ml-visited-link-active-saturation-limit:0.8;
--ml-visited-link-active-contrast:0.55;
--ml-visited-link-active-lightness-limit:0.68;
--ml-visited-link-active-gray-saturation:0.74;
--ml-visited-link-active-gray-hue:262;
--ml-visited-link-active-replace-all-hues:true;
--ml-visited-link-active-hue-gravity:0;
--ml-text-shadow-saturation-limit:0.8;
--ml-text-shadow-contrast:0.8;
--ml-text-shadow-lightness-limit:1;
--ml-text-shadow-gray-saturation:0.1;
--ml-text-shadow-gray-hue:16;
--ml-text-shadow-replace-all-hues:false;
--ml-text-shadow-hue-gravity:0;
--ml-border-saturation-limit:0.8;
--ml-border-contrast:0.3;
--ml-border-lightness-limit:0.5;
--ml-border-gray-saturation:0.1;
--ml-border-gray-hue:16;
--ml-border-replace-all-hues:false;
--ml-border-hue-gravity:0;
--ml-button-border-saturation-limit:0.64;
--ml-button-border-contrast:0.15;
--ml-button-border-lightness-limit:0.4;
--ml-button-border-gray-saturation:0.1;
--ml-button-border-gray-hue:16;
--ml-button-border-replace-all-hues:false;
--ml-button-border-hue-gravity:0;
--ml-scrollbar-hover-saturation-limit:0.05;
--ml-scrollbar-hover-contrast:0;
--ml-scrollbar-hover-lightness-limit:0.4;
--ml-scrollbar-hover-gray-saturation:0.05;
--ml-scrollbar-hover-gray-hue:16;
--ml-scrollbar-hover-replace-all-hues:false;
--ml-scrollbar-hover-hue-gravity:0;
--ml-scrollbar-normal-saturation-limit:0.05;
--ml-scrollbar-normal-contrast:0;
--ml-scrollbar-normal-lightness-limit:0.32;
--ml-scrollbar-normal-gray-saturation:0.05;
--ml-scrollbar-normal-gray-hue:16;
--ml-scrollbar-normal-replace-all-hues:false;
--ml-scrollbar-normal-hue-gravity:0;
--ml-scrollbar-active-saturation-limit:0.05;
--ml-scrollbar-active-contrast:0;
--ml-scrollbar-active-lightness-limit:0.28;
--ml-scrollbar-active-gray-saturation:0.05;
--ml-scrollbar-active-gray-hue:16;
--ml-scrollbar-active-replace-all-hues:false;
--ml-scrollbar-active-hue-gravity:0;
--ml-image-saturation-limit:0.9;
--ml-image-contrast:0.66;
--ml-image-lightness-limit:0.8;
--ml-image-gray-saturation:0.1;
--ml-image-gray-hue:22;
--ml-image-replace-all-hues:false;
--ml-image-hue-gravity:0;
--ml-svg-background-saturation-limit:0.8;
--ml-svg-background-contrast:0.5;
--ml-svg-background-lightness-limit:0.5;
--ml-svg-background-gray-saturation:0.1;
--ml-svg-background-gray-hue:190;
--ml-svg-background-replace-all-hues:false;
--ml-svg-background-hue-gravity:0;
--ml-background-image-saturation-limit:0.8;
--ml-background-image-contrast:0.5;
--ml-background-image-lightness-limit:0.4;
--ml-background-image-gray-saturation:0.05;
--ml-background-image-gray-hue:200;
--ml-background-image-replace-all-hues:false;
--ml-background-image-hue-gravity:0;
--ml-video-saturation-limit:1;
--ml-video-contrast:0.5;
--ml-video-lightness-limit:1;
--ml-video-gray-saturation:0;
--ml-video-gray-hue:0;
--ml-video-replace-all-hues:false;
--ml-video-hue-gravity:0;
--ml-browser:Firefox!important;
--ml-app-id:{8fbc7259-8015-4172-9af1-20e1edfbbd3a};
--ml-version:10.7.1;
--ml-content-filter:'';
--ml-blue-filter:'';
--pdf-bg-filter:url("#pdf-bg-filter");
--ml-invert:1!important;
--ml-is-active:1!important;
--ml-text-filter:saturate(0.9) brightness(0.8);
--ml-contrast-text-filter:saturate(0.9) brightness(0.8);
--ml-highlighted-text-filter:saturate(0.9) brightness(0.8);
--ml-dynamic-content-text-filter:saturate(0.9) brightness(0.8);
--ml-dynamic-content-contrast-text-filter:saturate(0.9) brightness(0.8);
--ml-dynamic-content-highlighted-text-filter:saturate(0.9) brightness(0.8);
--ml-image-filter:saturate(0.9) brightness(0.8);
--ml-image-revert-filter:saturate(1.2);
--ml-bg-image-revert-filter:saturate(1.1);
--ml-button-revert-filter:saturate(1.1);
--ml-text-revert-filter:saturate(1.2);
--ml-video-revert-filter:saturate(1.3);
--ml-bg-revert-filter:none; }</style></svg>