<?xml version="1.0" encoding="UTF-8" standalone="no"?>
<!-- Generator: Adobe Illustrator 26.3.1, SVG Export Plug-In . SVG Version: 6.00 Build 0)  -->
<svg version="1.1" id="Ebene_1" x="0px" y="0px" viewBox="0 0 290.3 136" xml:space="preserve" sodipodi:docname="HU_Siegel-Kombi_RGB.svg" width="290.29999" height="136" inkscape:version="1.1.2 (b8e25be833, 2022-02-05)" xmlns:inkscape="http://www.inkscape.org/namespaces/inkscape" xmlns:sodipodi="http://sodipodi.sourceforge.net/DTD/sodipodi-0.dtd" xmlns="http://www.w3.org/2000/svg" xmlns:svg="http://www.w3.org/2000/svg" ml-is-active="" style="--ml-background-lightness-limit: 0.14; --ml-zoom: 1 !important;" ml-update="aware"><defs id="defs149"/><sodipodi:namedview id="namedview147" pagecolor="#ffffff" bordercolor="#666666" borderopacity="1.0" inkscape:pageshadow="2" inkscape:pageopacity="0.0" inkscape:pagecheckerboard="0" showgrid="false" inkscape:zoom="3.2066704" inkscape:cx="141.7358" inkscape:cy="92.931284" inkscape:window-width="1920" inkscape:window-height="1137" inkscape:window-x="-8" inkscape:window-y="-8" inkscape:window-maximized="1" inkscape:current-layer="Ebene_1"/>
<style type="text/css" id="style2">
	.st0{fill:#FFFFFF;}
	.st1{fill:#084780;}
</style>
<g id="g144" transform="translate(-41.1,-33.3)">
	<path class="st0" d="m 331.4,101.3 c 0,37.6 -30.5,68 -68,68 -37.6,0 -68,-30.5 -68,-68 0,-37.6 30.5,-68 68,-68 37.6,0 68,30.5 68,68 z" id="path4"/>
	<polygon class="st1" points="59.4,75 65.7,75 65.7,79.1 64,79.1 64,79.9 69.2,79.9 69.2,79.1 67.5,79.1 67.5,70.1 69.2,70.1 69.2,69.3 64,69.3 64,70.1 65.7,70.1 65.7,74.1 59.4,74.1 59.4,70.1 61.1,70.1 61.1,69.3 55.9,69.3 55.9,70.1 57.6,70.1 57.6,79.1 55.9,79.1 55.9,79.9 61.1,79.9 61.1,79.1 59.4,79.1 " id="polygon6"/>
	<path class="st1" d="m 83.7,76 v -5.8 h 1.7 v -0.9 h -4.6 v 0.9 h 1.7 V 76 c 0,1.9 -1.2,3.2 -3,3.2 -1.7,0 -2.8,-1.3 -2.8,-3.2 v -5.8 h 1.8 v -0.9 h -5.2 v 0.9 H 75 v 6.3 c 0,2.2 1.8,3.8 4.3,3.8 2.6,-0.1 4.4,-1.8 4.4,-4.3 z" id="path8"/>
	<polygon class="st1" points="100.2,71.4 100.2,79.1 98.4,79.1 98.4,79.9 103.6,79.9 103.6,79.1 101.9,79.1 101.9,70.2 103.6,70.2 103.6,69.3 100,69.3 96.3,77.1 92.7,69.3 89.2,69.3 89.2,70.2 91,70.2 91,79.1 89.2,79.1 89.2,79.9 93.9,79.9 93.9,79.1 92.1,79.1 92.1,71.8 96,80.1 " id="polygon10"/>
	<path class="st1" d="m 111.1,79 v -4.2 h 1.7 c 1.5,0 2.3,0.7 2.3,2.2 0,1.3 -0.8,2 -2.3,2 z m 0,-8.8 h 1.6 c 1.1,0 1.7,0.6 1.7,1.8 0,1.2 -0.7,1.9 -1.9,1.9 H 111 v -3.7 z m 6,6.9 c 0,-1.7 -1.3,-2.8 -3.5,-2.8 1.7,0 2.9,-1 2.9,-2.4 0,-1.6 -1.2,-2.7 -3.2,-2.7 h -5.6 v 0.9 h 1.7 v 9 h -1.7 V 80 h 6 c 2.1,-0.1 3.4,-1.1 3.4,-2.9 z" id="path12"/>
	<path class="st1" d="m 126.2,70 c 1.9,0 3.5,2.1 3.5,4.6 0,2.6 -1.5,4.7 -3.5,4.7 -1.9,0 -3.5,-2.1 -3.5,-4.7 0,-2.6 1.6,-4.6 3.5,-4.6 z m 0,10.2 c 2.9,0 5.4,-2.6 5.4,-5.7 0,-3 -2.5,-5.6 -5.4,-5.6 -3,0 -5.5,2.6 -5.5,5.6 0.1,3.1 2.6,5.7 5.5,5.7 z" id="path14"/>
	<polygon class="st1" points="143.1,79 139.3,79 139.3,70.2 141,70.2 141,69.3 135.8,69.3 135.8,70.2 137.5,70.2 137.5,79.1 135.8,79.1 135.8,79.9 144,79.9 144,77.6 143.1,77.6 " id="polygon16"/>
	<path class="st1" d="m 150.6,79 v -8.8 h 1.8 c 2.1,0 3.8,1.9 3.8,4.4 0,2.5 -1.6,4.4 -3.8,4.4 z m 7.6,-4.4 c 0,-3 -2.4,-5.3 -5.6,-5.3 h -5.5 v 0.9 h 1.7 v 9 h -1.7 v 0.9 h 5.5 c 3.2,-0.2 5.6,-2.5 5.6,-5.5 z" id="path18"/>
	<polygon class="st1" points="164.9,79.1 163,79.1 163,79.9 168.6,79.9 168.6,79.1 166.7,79.1 166.7,70.2 170.1,70.2 170.1,71.5 170.9,71.5 170.9,68.8 170.1,68.8 170.1,69.3 161.6,69.3 161.6,68.8 160.7,68.8 160.7,71.5 161.6,71.5 161.6,70.2 164.9,70.2 " id="polygon20"/>
	<polygon class="st1" points="176.7,74.5 172.8,74.5 172.8,75.9 176.7,75.9 " id="polygon22"/>
	<path class="st1" d="m 48.6,93.5 h 1.7 v 5.8 c 0,1.9 -1.2,3.2 -3,3.2 -1.7,0 -2.8,-1.3 -2.8,-3.2 v -5.8 h 1.8 v -0.9 h -5.2 v 0.9 h 1.8 v 6.3 c 0,2.2 1.8,3.8 4.3,3.8 2.6,0 4.4,-1.7 4.4,-4.2 v -5.8 h 1.7 v -0.9 h -4.6 v 0.8 z" id="path24"/>
	<polygon class="st1" points="64.3,93.5 66.1,93.5 66.1,100.1 59.6,92.6 56.6,92.6 56.6,93.5 58.2,93.5 58.7,94.1 58.7,102.4 57,102.4 57,103.3 61.6,103.3 61.6,102.4 59.9,102.4 59.9,95.6 66.5,103.5 67.2,103.5 67.2,93.5 69,93.5 69,92.6 64.3,92.6 " id="polygon26"/>
	<polygon class="st1" points="74.4,102.4 72.7,102.4 72.7,103.3 77.9,103.3 77.9,102.4 76.2,102.4 76.2,93.5 77.9,93.5 77.9,92.6 72.7,92.6 72.7,93.5 74.4,93.5 " id="polygon28"/>
	<polygon class="st1" points="81.4,93.5 82.5,93.5 86.6,103.5 87.2,103.5 91.3,93.5 92.3,93.5 92.3,92.6 88.9,92.6 88.9,93.5 90.3,93.5 87.4,100.7 84.4,93.5 85.8,93.5 85.8,92.6 81.4,92.6 " id="polygon30"/>
	<polygon class="st1" points="102.2,102.3 98.3,102.3 98.3,98.3 101.2,98.3 101.2,99.5 102.1,99.5 102.1,96.3 101.2,96.3 101.2,97.4 98.3,97.4 98.3,93.5 102,93.5 102,94.7 102.9,94.7 102.9,92.2 102,92.2 102,92.6 94.8,92.6 94.8,93.5 96.5,93.5 96.5,102.4 94.8,102.4 94.8,103.3 103,103.3 103,101.1 102.2,101.1 " id="polygon32"/>
	<path class="st1" d="m 110.8,97.7 v -4.1 h 1.6 c 1.2,0 1.8,0.7 1.8,2 0,1.3 -0.7,2.1 -1.8,2.1 z m 7.1,5.6 v -0.9 h -0.6 c -0.5,0 -0.9,-0.3 -1.3,-0.9 l -2.1,-3.1 c 1.5,-0.3 2.5,-1.4 2.5,-3 0,-1.9 -1.2,-2.9 -3.4,-2.9 h -5.4 v 0.9 h 1.7 v 8.9 h -1.7 v 0.9 h 5.2 v -0.9 h -1.7 v -3.8 h 1.1 l 2.5,3.7 c 0.6,0.9 0.8,1 1.8,1 h 1.4 z" id="path34"/>
	<path class="st1" d="m 125.7,97.2 c -0.5,-0.3 -1,-0.6 -1.6,-0.9 -0.8,-0.5 -1,-0.8 -1,-1.4 0,-0.9 0.7,-1.5 1.8,-1.5 0.6,0 1,0.1 1.9,0.6 v 1.2 h 0.9 v -2.8 h -0.9 V 93 c -0.7,-0.4 -1.3,-0.5 -2.1,-0.5 -1.8,0 -3.3,1.3 -3.3,3 0,1.4 0.7,2.2 2.7,3.2 1.9,1 2.5,1.6 2.5,2.4 0,0.9 -0.8,1.5 -2,1.5 -0.8,0 -1.4,-0.2 -2.4,-0.8 v -1.2 h -0.9 v 2.9 h 0.9 v -0.6 c 0.9,0.5 1.7,0.8 2.6,0.8 1.9,0 3.3,-1.3 3.3,-3 0.2,-1.7 -0.4,-2.4 -2.4,-3.5 z" id="path36"/>
	<polygon class="st1" points="135.7,93.5 137.5,93.5 137.5,92.6 132.3,92.6 132.3,93.5 134,93.5 134,102.4 132.3,102.4 132.3,103.3 137.5,103.3 137.5,102.4 135.7,102.4 " id="polygon38"/>
	<polygon class="st1" points="141.3,92.2 140.4,92.2 140.4,94.8 141.3,94.8 141.3,93.5 144.6,93.5 144.6,102.4 142.7,102.4 142.7,103.3 148.4,103.3 148.4,102.4 146.4,102.4 146.4,93.5 149.8,93.5 149.8,94.8 150.6,94.8 150.6,92.2 149.8,92.2 149.8,92.6 141.3,92.6 " id="polygon40"/>
	<path class="st1" d="m 155.6,88.5 c -0.6,0 -1.2,0.5 -1.2,1.2 0,0.6 0.5,1.2 1.2,1.2 0.6,0 1.2,-0.5 1.2,-1.2 0,-0.6 -0.6,-1.2 -1.2,-1.2 z" id="path42"/>
	<path class="st1" d="m 155.5,99 1.8,-4.1 1.7,4.1 z m 3.8,4.3 h 3.9 v -0.9 h -1 L 158,92.3 h -0.6 l -4.4,10.2 h -0.9 v 0.9 h 3.2 v -0.9 H 154 l 1.1,-2.5 h 4.2 l 1,2.5 h -1 z" id="path44"/>
	<path class="st1" d="m 159.7,90.9 c 0.6,0 1.2,-0.5 1.2,-1.2 0,-0.6 -0.5,-1.2 -1.2,-1.2 -0.6,0 -1.2,0.5 -1.2,1.2 0,0.6 0.6,1.2 1.2,1.2 z" id="path46"/>
	<polygon class="st1" points="174,92.2 174,92.6 165.5,92.6 165.5,92.2 164.7,92.2 164.7,94.8 165.5,94.8 165.5,93.5 168.9,93.5 168.9,102.4 166.9,102.4 166.9,103.3 172.6,103.3 172.6,102.4 170.6,102.4 170.6,93.5 174,93.5 174,94.8 174.8,94.8 174.8,92.2 " id="polygon48"/>
	<polygon class="st1" points="77.2,116.5 77.2,116 69,116 69,115.5 68.2,115.5 68.2,118.1 69,118.1 69,116.9 74.8,116.9 68.2,126.1 68.2,126.6 77.5,126.6 77.5,124.1 76.7,124.1 76.7,125.7 70.5,125.7 " id="polygon50"/>
	<path class="st1" d="m 88.5,116.9 h 1.7 v 5.8 c 0,1.9 -1.2,3.2 -3,3.2 -1.7,0 -2.8,-1.3 -2.8,-3.2 v -5.8 h 1.8 V 116 H 81 v 0.9 h 1.8 v 6.3 c 0,2.2 1.8,3.8 4.3,3.8 2.6,0 4.4,-1.7 4.4,-4.2 V 117 h 1.7 v -1 h -4.6 v 0.9 z" id="path52"/>
	<path class="st1" d="m 107.4,125.7 h -1.6 v -4.2 h 1.7 c 1.5,0 2.3,0.7 2.3,2.2 -0.1,1.3 -0.9,2 -2.4,2 z m -1.6,-8.8 h 1.6 c 1.1,0 1.7,0.6 1.7,1.8 0,1.2 -0.7,1.9 -1.9,1.9 h -1.5 v -3.7 z m 2.4,4.1 c 1.7,0 2.9,-1 2.9,-2.4 0,-1.6 -1.2,-2.7 -3.2,-2.7 h -5.6 v 0.9 h 1.7 v 9 h -1.7 v 0.9 h 6 c 2.2,0 3.5,-1 3.5,-2.8 -0.1,-1.8 -1.4,-2.8 -3.6,-2.9 z" id="path54"/>
	<polygon class="st1" points="119.2,121.7 122.2,121.7 122.2,122.8 123,122.8 123,119.6 122.2,119.6 122.2,120.7 119.2,120.7 119.2,116.9 123,116.9 123,118.1 123.8,118.1 123.8,115.5 123,115.5 123,116 115.7,116 115.7,116.8 117.5,116.8 117.5,125.8 115.7,125.8 115.7,126.6 124,126.6 124,124.5 123.1,124.5 123.1,125.7 119.2,125.7 " id="polygon56"/>
	<path class="st1" d="m 131.8,121 v -4.1 h 1.6 c 1.2,0 1.8,0.7 1.8,2 0,1.3 -0.7,2.1 -1.8,2.1 z m 5.1,3.9 -2.1,-3.1 c 1.5,-0.3 2.5,-1.4 2.5,-3 0,-1.9 -1.2,-2.9 -3.4,-2.9 h -5.4 v 0.9 h 1.7 v 8.9 h -1.7 v 0.9 h 5.2 v -0.9 H 132 v -3.8 h 1.1 l 2.5,3.7 c 0.6,0.9 0.8,1 1.8,1 h 1.7 v -0.9 h -0.6 c -0.8,0.1 -1.3,-0.2 -1.6,-0.8 z" id="path58"/>
	<polygon class="st1" points="145.5,116.9 147.2,116.9 147.2,116 142,116 142,116.9 143.7,116.9 143.7,125.8 142,125.8 142,126.6 150.2,126.6 150.2,124.3 149.4,124.3 149.4,125.7 145.5,125.7 " id="polygon60"/>
	<polygon class="st1" points="155.1,125.8 153.4,125.8 153.4,126.6 158.6,126.6 158.6,125.8 156.8,125.8 156.8,116.9 158.6,116.9 158.6,116 153.4,116 153.4,116.9 155.1,116.9 " id="polygon62"/>
	<polygon class="st1" points="172,123.5 165.5,116 162.5,116 162.5,116.9 164.1,116.9 164.6,117.5 164.6,125.8 162.8,125.8 162.8,126.6 167.5,126.6 167.5,125.8 165.7,125.8 165.7,119 172.4,126.8 173.1,126.8 173.1,116.9 174.8,116.9 174.8,116 170.2,116 170.2,116.9 172,116.9 " id="polygon64"/>
	<path class="st1" d="m 218.8,136.7 c 0.5,-0.4 0.6,-1.2 0.2,-1.7 -0.4,-0.5 -1.2,-0.6 -1.7,-0.2 -0.5,0.4 -0.6,1.1 -0.2,1.7 0.4,0.5 1.2,0.6 1.7,0.2 v 0 z" id="path66"/>
	<polygon class="st1" points="225.9,148.2 222.5,145.4 230.4,143.3 230.6,143.1 226.1,139.3 226.3,139 225.9,138.6 224.7,140.1 225.1,140.4 225.7,139.8 228.9,142.4 221,144.5 220.7,144.8 225.9,149.1 227,147.7 226.6,147.3 " id="polygon68"/>
	<path class="st1" d="m 241.2,149.5 -2.9,-1.6 -0.3,0.6 1.1,0.6 -2,3.6 c -0.7,1.2 -1.9,1.6 -3,1 -1.1,-0.6 -1.3,-1.8 -0.7,-3 l 2,-3.6 1.1,0.6 0.3,-0.6 -3.3,-1.8 -0.3,0.6 1.1,0.6 -2.2,3.9 c -0.8,1.4 -0.2,3 1.4,3.9 1.7,0.9 3.4,0.5 4.3,-1.1 l 2,-3.7 1.1,0.6 0.3,-0.6 z" id="path70"/>
	<path class="st1" d="m 249.1,152.8 1.1,0.3 c 0.8,0.2 1.1,0.8 0.9,1.6 -0.2,0.8 -0.9,1.2 -1.7,1 l -1,-0.3 0.7,-2.6 z m -0.8,3.3 1.2,0.3 c 1.1,0.3 1.5,0.9 1.2,1.9 -0.2,0.9 -0.9,1.2 -2,1 l -1.1,-0.3 0.7,-2.9 z m 0.9,3.9 c 1.5,0.4 2.6,-0.1 2.9,-1.3 0.3,-1.2 -0.4,-2.2 -1.9,-2.6 1.2,0.3 2.2,-0.2 2.4,-1.2 0.3,-1.1 -0.4,-2.1 -1.8,-2.4 l -3.9,-1 -0.1,0.6 1.2,0.3 -1.6,6.3 -1.2,-0.3 -0.2,0.6 4.2,1 v 0 z" id="path72"/>
	<polygon class="st1" points="262.9,160.9 260.1,160.8 260.2,157.9 262.3,158 262.3,158.8 262.9,158.8 263,156.5 262.4,156.5 262.3,157.3 260.2,157.2 260.3,154.5 263,154.5 263,155.4 263.6,155.4 263.7,153.6 263.1,153.5 263,153.9 257.8,153.7 257.8,154.3 259.1,154.4 258.8,160.8 257.6,160.8 257.6,161.4 263.5,161.6 263.6,160 262.9,160 " id="polygon74"/>
	<path class="st1" d="m 270.9,153.9 1.1,-0.2 c 0.9,-0.1 1.4,0.3 1.5,1.2 0.1,0.9 -0.3,1.6 -1.1,1.7 l -1.2,0.2 -0.3,-2.9 z m 6,5.5 -0.5,0.1 c -0.4,0.1 -0.7,-0.1 -1,-0.5 l -1.9,-2 c 1.1,-0.4 1.6,-1.3 1.4,-2.4 -0.2,-1.3 -1.2,-1.9 -2.8,-1.6 l -3.9,0.6 0.1,0.7 1.2,-0.2 1,6.3 -1.2,0.2 0.1,0.6 3.7,-0.6 -0.1,-0.6 -1.2,0.2 -0.4,-2.7 0.8,-0.1 2.2,2.4 c 0.5,0.6 0.7,0.6 1.4,0.5 l 1.2,-0.2 -0.1,-0.7 z" id="path76"/>
	<polygon class="st1" points="286.8,155.9 284.2,156.8 282,150.9 283.1,150.5 282.9,149.9 279.4,151.2 279.6,151.8 280.8,151.4 283.1,157.3 281.9,157.8 282.1,158.4 287.6,156.3 287,154.7 286.5,154.9 " id="polygon78"/>
	<polygon class="st1" points="290.4,146.8 291.4,146.1 291.1,145.6 287.9,147.5 288.2,148.1 289.3,147.4 292.6,152.9 291.5,153.5 291.8,154.1 295,152.1 294.7,151.6 293.7,152.3 " id="polygon80"/>
	<polygon class="st1" points="301.5,137 299.1,139.3 299.5,139.8 300.5,138.9 303.7,142.4 296.6,141.6 295,143.1 295.5,143.6 296.3,142.8 296.9,142.9 300.9,147.2 300,148.1 300.4,148.5 302.9,146.3 302.5,145.8 301.5,146.7 298.2,143.1 305.6,143.9 305.9,143.6 301.1,138.4 302,137.5 " id="polygon82"/>
	<path class="st1" d="m 309.3,133 c -0.5,-0.4 -1.3,-0.2 -1.6,0.3 -0.4,0.5 -0.2,1.3 0.3,1.6 0.5,0.4 1.3,0.3 1.6,-0.3 0.3,-0.4 0.2,-1.2 -0.3,-1.6 v 0 z" id="path84"/>
	<polygon class="st1" points="206.6,122.4 206.1,121.3 205.6,121.5 207.1,124.9 207.7,124.7 207.2,123.6 209.8,122.4 211.6,126.6 209,127.7 208.5,126.6 207.9,126.8 209.5,130.3 210,130 209.5,128.9 215.4,126.2 215.9,127.4 216.5,127.1 215,123.7 214.4,124 214.9,125.1 212.2,126.3 210.4,122.1 213.1,121 213.6,122.1 214.1,121.8 212.6,118.4 212,118.6 212.5,119.8 " id="polygon86"/>
	<path class="st1" d="m 202.5,106.3 0.5,3.3 0.7,-0.1 -0.2,-1.2 4.1,-0.6 c 1.3,-0.2 2.4,0.5 2.6,1.8 0.2,1.2 -0.6,2.1 -1.9,2.4 l -4.1,0.7 -0.2,-1.2 -0.7,0.1 0.6,3.7 0.7,-0.1 -0.2,-1.2 4.5,-0.7 c 1.5,-0.2 2.5,-1.7 2.2,-3.5 -0.3,-1.9 -1.7,-3 -3.5,-2.7 l -4.1,0.7 -0.2,-1.2 -0.8,-0.2 z" id="path88"/>
	<polygon class="st1" points="204,90.6 204.2,89.4 203.5,89.3 203.2,91.9 208.4,95.2 202.5,97.1 202.2,99.6 202.9,99.7 203.1,98.5 209.4,99.2 209.3,100.5 209.9,100.5 210.3,97.2 209.7,97.2 209.5,98.4 204.3,97.8 210.6,95.7 204.7,92 210.2,92.7 210.1,93.9 210.7,94 211.1,90.2 210.5,90.2 210.4,91.4 " id="polygon90"/>
	<path class="st1" d="m 206.9,80.6 0.4,-1.1 c 0.3,-0.8 0.9,-1 1.7,-0.7 0.8,0.3 1.1,1 0.8,1.8 l -0.4,1 -2.5,-1 z m 3.1,1.2 0.4,-1.1 c 0.4,-1 1.1,-1.3 2,-1 0.9,0.3 1.1,1 0.7,2.1 l -0.4,1.1 -2.7,-1.1 z m 4,-0.4 c 0.6,-1.5 0.2,-2.6 -1,-3 -1.2,-0.4 -2.2,0.1 -2.8,1.6 0.4,-1.1 0.1,-2.2 -0.8,-2.6 -1.1,-0.4 -2.1,0.2 -2.6,1.5 l -1.5,3.8 0.6,0.2 0.4,-1.2 6,2.3 -0.4,1.2 0.6,0.2 1.5,-4 v 0 z" id="path92"/>
	<path class="st1" d="m 213.3,67.8 c 0.8,-1.1 2.7,-1.2 4.2,-0.2 1.5,1.1 2.1,2.8 1.3,4 -0.8,1.1 -2.7,1.2 -4.2,0.1 -1.5,-1 -2.1,-2.8 -1.3,-3.9 v 0 z m 6.1,4.2 c 1.2,-1.7 0.7,-4.3 -1.1,-5.5 -1.8,-1.2 -4.3,-0.8 -5.5,0.9 -1.2,1.7 -0.7,4.3 1,5.5 1.8,1.3 4.4,0.8 5.6,-0.9 v 0 z" id="path94"/>
	<polygon class="st1" points="227.9,61 225.9,62.9 221.5,58.4 222.4,57.5 222,57 219.3,59.6 219.7,60.1 220.6,59.2 225.1,63.8 224.2,64.7 224.6,65.1 228.8,61 227.7,59.8 227.2,60.3 " id="polygon96"/>
	<path class="st1" d="m 233.4,56.9 -3.4,-5.4 1.1,-0.7 c 1.3,-0.8 3,-0.3 4,1.3 1,1.5 0.7,3.3 -0.6,4.1 l -1.1,0.7 z m -1.8,1.9 3.3,-2.1 c 1.9,-1.2 2.5,-3.5 1.4,-5.4 -1.1,-1.8 -3.5,-2.3 -5.4,-1.1 l -3.3,2.1 0.3,0.5 1.1,-0.7 3.4,5.5 -1.1,0.7 0.3,0.5 z" id="path98"/>
	<polygon class="st1" points="243.4,45 245.7,44.2 246,45.1 246.6,44.9 246,43.1 245.4,43.3 245.5,43.6 239.7,45.6 239.6,45.3 239.1,45.5 239.7,47.3 240.3,47.1 240,46.2 242.2,45.4 244.3,51.5 243,52 243.2,52.5 247.1,51.2 246.9,50.6 245.5,51.1 " id="polygon100"/>
	<polygon class="st1" points="251.6,46.7 254.8,46.2 254.5,44.9 251.4,45.5 " id="polygon102"/>
	<path class="st1" d="m 267.7,41.3 -3.3,-0.1 v 0.7 h 1.2 l -0.1,4.2 c 0,1.3 -0.9,2.3 -2.2,2.3 -1.2,0 -2,-1 -2,-2.3 l 0.1,-4.2 h 1.3 v -0.7 l -3.8,-0.1 v 0.7 h 1.3 l -0.1,4.5 c 0,1.6 1.2,2.7 3,2.8 1.9,0 3.2,-1.2 3.2,-3 l 0.1,-4.2 h 1.2 l 0.1,-0.6 z" id="path104"/>
	<polygon class="st1" points="282.7,44.3 279.5,43.5 279.3,44.1 280.5,44.4 279.3,49 276.2,42.6 274.1,42 273.9,42.7 275.1,43 275.3,43.5 273.7,49.2 272.5,48.9 272.4,49.5 275.6,50.4 275.7,49.8 274.5,49.5 275.8,44.7 279,51.4 279.5,51.6 281.3,44.7 282.5,45 " id="polygon106"/>
	<polygon class="st1" points="290.6,48.7 291.7,49.3 292,48.7 288.7,47 288.4,47.5 289.5,48.1 286.5,53.8 285.4,53.2 285.1,53.7 288.4,55.5 288.7,55 287.6,54.4 " id="polygon108"/>
	<polygon class="st1" points="302,55.5 300.1,54.1 299.7,54.6 300.5,55.2 295.7,58 297.1,52.6 297.9,53.2 298.3,52.7 295.8,50.8 295.4,51.3 296,51.8 294.1,59.3 294.4,59.6 301.1,55.6 301.6,56 " id="polygon110"/>
	<polygon class="st1" points="304.3,67.9 302.4,65.8 304.6,63.8 306,65.4 305.4,66 305.8,66.4 307.5,64.9 307.1,64.5 306.5,65 305,63.4 307.1,61.5 308.9,63.6 308.3,64.2 308.7,64.6 310.1,63.4 309.7,62.9 309.4,63.1 305.9,59.2 305.5,59.7 306.3,60.6 301.5,64.9 300.7,64 300.2,64.4 304.2,68.8 305.4,67.8 304.9,67.3 " id="polygon112"/>
	<path class="st1" d="m 312.7,83.6 c -0.1,0.7 -0.1,1.4 0.1,2 0.4,1.3 1.6,2 2.8,1.6 1,-0.3 1.4,-0.9 1.7,-2.5 0.1,-0.4 0.2,-0.8 0.3,-1.3 0.1,-0.6 0.3,-0.9 0.7,-1 0.6,-0.2 1.2,0.1 1.5,0.9 0.1,0.4 0.2,0.7 0,1.5 l -0.8,0.2 0.2,0.6 1.9,-0.6 -0.2,-0.6 -0.4,0.1 c 0.1,-0.5 0.1,-1 -0.1,-1.6 -0.4,-1.3 -1.6,-2 -2.8,-1.6 -0.9,0.3 -1.3,1 -1.6,2.6 -0.2,1.5 -0.5,2.1 -1.1,2.3 -0.6,0.2 -1.2,-0.2 -1.5,-1 -0.2,-0.5 -0.2,-1 0,-1.8 l 0.8,-0.3 -0.2,-0.6 -2,0.6 0.2,0.6 0.5,-0.1 v 0 z" id="path114"/>
	<polygon class="st1" points="321.9,93.9 322.1,95.1 322.8,95 322.2,91.3 321.6,91.4 321.7,92.6 315.4,93.5 315.2,92.3 314.6,92.3 315.2,96.1 315.8,96 315.6,94.7 " id="polygon116"/>
	<polygon class="st1" points="322.3,104.5 322.3,106.9 321.3,106.9 321.3,107.5 323.2,107.5 323.3,106.9 322.9,106.9 323.1,100.8 323.5,100.8 323.5,100.2 321.6,100.2 321.5,100.8 322.5,100.8 322.4,103.2 316,103 316,101.6 315.4,101.6 315.3,105.6 315.9,105.7 316,104.2 " id="polygon118"/>
	<path class="st1" d="m 317.2,113.3 2.5,1.9 -3.1,0.5 0.6,-2.4 z m 6.3,2.6 c 0.5,0.1 1,-0.2 1.1,-0.6 0.1,-0.5 -0.2,-1 -0.7,-1.1 -0.5,-0.1 -0.9,0.2 -1.1,0.7 -0.1,0.4 0.2,0.9 0.7,1 v 0 z m -0.8,2.9 c 0.5,0.1 1,-0.2 1.1,-0.6 0.1,-0.5 -0.2,-1 -0.7,-1.1 -0.5,-0.1 -0.9,0.2 -1.1,0.7 0,0.4 0.3,0.8 0.7,1 v 0 z m -9.2,-0.7 0.2,-0.7 7.8,-1.2 0.1,-0.4 -6.3,-4.9 0.2,-0.6 -0.6,-0.1 -0.6,2.3 0.6,0.1 0.2,-0.9 1.6,1.2 -0.7,2.9 -1.9,0.3 0.2,-0.7 -0.6,-0.1 -0.7,2.7 0.5,0.1 z" id="path120"/>
	<polygon class="st1" points="316.4,127.5 315.4,129.7 314.6,129.4 314.3,129.9 316,130.7 316.3,130.2 316,130 318.6,124.5 318.9,124.6 319.1,124.1 317.4,123.3 317.1,123.8 318,124.2 317,126.4 311.2,123.7 311.8,122.4 311.2,122.2 309.5,125.9 310,126.1 310.6,124.8 " id="polygon122"/>
	<path class="st1" d="m 314.4,71.6 0.6,1 c 0.4,0.8 0.2,1.4 -0.6,1.9 -0.8,0.4 -1.6,0.3 -2,-0.4 l -0.6,-1 2.6,-1.5 z m -3.1,7.5 -0.2,-0.4 c -0.2,-0.3 -0.2,-0.7 0.1,-1.1 l 1.2,-2.5 c 0.7,0.9 1.8,1.1 2.7,0.5 1.2,-0.7 1.4,-1.8 0.6,-3.2 l -1.9,-3.4 -0.6,0.3 0.6,1.1 -5.6,3.1 -0.6,-1.1 -0.5,0.3 1.8,3.3 0.5,-0.3 -0.6,-1.1 2.4,-1.3 0.4,0.7 -1.5,2.9 c -0.3,0.7 -0.3,0.8 0,1.5 l 0.6,1.1 0.6,-0.4 z" id="path124"/>
	<path class="st1" d="m 276,76.8 c -0.1,0 -1.5,-0.7 -1.8,-0.7 -0.1,0 -0.8,-0.5 -1.4,-0.9 -0.6,-0.4 -0.9,-0.6 -1,-0.7 -0.1,0 -0.8,-0.4 -1.1,-0.5 l -1.7,-1.1 -1.7,-1.2 c 0,0 -0.3,-0.3 -0.7,-0.3 0,0 -1,-0.4 -2.3,-0.2 -0.8,0.1 -2.8,0.4 -2.8,0.4 -0.1,0 -2,0.4 -2.1,0.5 0,0 -1.6,1 -2.1,1.3 v 0 l -0.2,1.1 0.1,-0.1 c 0,0 1.4,-1.3 2.6,-1.7 0,0 2.7,-0.6 4.6,-0.6 0,0 1.9,0 3.3,1.1 l 1.2,1 1.8,1 c 0,0 1.4,1.1 4.4,2.3 0,0 1.6,0.6 2.5,1.5 l 0.1,0.1 V 79 c 0.5,-1 -1.6,-2.1 -1.7,-2.2 z" id="path126"/>
	<path class="st1" d="m 283.6,85.6 -0.3,-1.8 -0.2,-1.1 -0.4,-1.2 c -0.4,-1.5 -1.1,-2.6 -1.9,-3.6 0,0 -0.3,-0.7 -1.4,-1.7 -0.1,-0.1 -0.2,-0.2 -0.3,-0.3 -0.4,-0.4 -1,-1 -1.8,-1.4 -0.2,-0.1 -1.9,-1.2 -2,-1.2 0,0 -0.1,-0.1 -0.3,-0.1 -0.4,-0.1 -0.9,-0.3 -1,-0.4 -0.4,-0.1 -0.8,-0.2 -1.1,-0.2 l 0.2,-0.1 h -0.5 v 0 c 0,0 -0.1,0.1 -0.1,0.1 0,0.1 0.1,0.2 0.9,0.4 0.2,0.1 1.8,0.6 1.8,0.7 0,0 2,1.2 2.3,1.4 0,0 1.6,1.2 2.6,2.7 0,0 1.3,1.7 2.1,4.7 l 0.9,2.6 1,1.8 z" id="path128"/>
	<path class="st1" d="m 286.5,93.2 c -0.1,-0.7 -0.2,-1.6 -0.3,-2.1 -0.1,-0.8 -0.6,-2.1 -1,-2.8 -0.4,-0.6 -1.2,-1.2 -1.3,-1.3 l -0.2,-0.1 0.7,1.6 c 0,0 0.8,1.7 1.3,5.7 l -0.3,3.6 -0.4,1.3 c -0.1,1.2 -0.1,1.2 -0.1,1.2 v 0 0 c 0,0 0.8,-0.8 1,-1.7 0,-0.1 0.3,-1.5 0.3,-1.8 0,0 0.3,-2.1 0.2,-2.8 0.2,-0.1 0.1,-0.4 0.1,-0.8 z" id="path130"/>
	<path class="st1" d="m 291.7,117.3 c -0.3,-0.2 -0.6,-0.5 -1,-1 -0.9,-0.9 -1.8,-1.6 -2.8,-2.1 -0.1,-0.1 -0.2,-0.1 -0.3,-0.2 -1,-0.5 -1.9,-1 -2.2,-1.7 -0.1,-0.4 0,-0.6 0.1,-0.9 0.2,-0.4 0.4,-0.8 0.2,-1.5 -0.2,-0.8 -0.4,-1.5 -0.5,-1.9 0.4,-0.2 0.6,-0.4 0.7,-0.4 0.1,-0.1 0.3,-0.2 0.4,-0.4 0.1,0.2 0.3,0.5 0.3,0.6 v 0 c 0,0 0.8,0.7 0.9,1.2 -0.1,0.2 -0.8,2.1 -0.8,2.1 -0.2,0.7 -0.2,1.2 0.1,1.5 0.2,0.2 0.4,0.2 0.8,0.2 l 4.4,0.3 c 0.8,1.2 0.8,2.2 0.7,2.7 0,0 0,0 0,0 0,0.1 0,0.2 -0.6,1 -0.2,0.1 -0.3,0.3 -0.4,0.5 z m -32.4,-7.5 c 0,-0.1 0,-0.1 0,-0.2 0,-0.1 0.6,-0.3 1.1,-0.3 5.2,-0.9 6,-2.3 6.3,-2.8 0,-0.1 0.1,-0.1 0.1,-0.1 0.9,-1.6 2.5,-6.2 2.6,-6.4 0.1,-0.1 0.6,-0.6 1,-0.8 0.5,-0.2 1,0.4 1.1,0.4 v 0 c 0.2,0.1 1.3,1 1.3,1 0.4,0.3 1.3,0.5 1.3,0.5 0.3,0.1 1.1,0.4 1.5,0.5 0.2,0.1 0.3,0.1 0.4,0.1 0.1,0 0.8,0.5 0.8,0.6 0,0.1 0.1,0.1 0.1,0.2 0,0.1 0.1,0.3 0.1,0.4 l -0.3,0.3 -4.4,3.2 c -3.5,2.7 -8.1,8.5 -8.1,8.6 l -2.6,3.2 -0.3,0.5 -0.3,-1.8 -1.1,-5 c -0.4,-1.5 -0.6,-1.9 -0.6,-2.1 z m -5.6,-0.8 c -0.1,0 -0.2,0 -0.3,0 -1.5,0 -2.4,-0.4 -2.9,-1.1 -0.7,-1.1 0,-2.7 0,-2.8 L 251,104 c 0.1,-0.2 0.2,-0.2 0.4,-0.1 0.1,0 0.1,0 0.2,0 0,0 0,0 0.1,0 0.2,0 0.3,0 0.4,-0.2 0.1,-0.2 -0.2,-0.6 -0.2,-0.6 -0.2,-0.2 -0.4,-0.5 -0.4,-0.9 0,-0.2 0.1,-0.4 0.3,-0.6 v 0 0 c 0,0 0,-0.1 0,-0.1 -0.1,-0.1 -0.3,-0.1 -0.3,0 v 0 c -0.6,0.4 -0.9,0.1 -0.9,0.1 -0.1,-0.2 -0.2,-0.3 -0.1,-0.5 0.1,-0.2 0.3,-0.4 0.3,-0.4 v 0 c 0,0 0.3,-0.3 1.5,0 0.3,0.1 1,0 1,0 0.5,-0.1 0.5,-0.5 0.5,-0.5 v 0 0 c -0.3,-0.2 -0.4,-0.3 -0.5,-0.4 -0.1,-0.1 -0.1,-0.1 -0.3,-0.2 -0.1,0 -0.1,0 -0.2,0.1 -0.2,0.2 -0.4,0.5 -1.1,0 -0.5,-0.5 -0.7,-0.5 -0.8,-0.5 -0.1,0 -0.2,0 -0.3,0 -0.3,0 -0.4,0 -0.5,-0.5 L 250,96.3 v -0.7 l 1,0.1 c 0.5,0.2 0.9,0.2 1,0.2 v 0 c 0.1,0 0.4,-0.1 0.6,-0.3 0.2,-0.2 0.4,-0.5 0.1,-1.1 l -0.1,-0.1 -0.1,0.1 c -0.3,0.6 -1.5,0.5 -1.7,0.5 -1.1,-0.8 -2.5,-0.4 -2.5,-0.4 -0.5,0.1 -0.9,0 -1,-0.2 -0.3,-0.4 0.1,-1 0.1,-1 l 1.8,-2.8 c 0,0 2,-2.7 3,-4.5 v 0 c 0.2,-1.8 0.5,-2.5 0.6,-2.6 0.7,-0.8 1,-1.5 1,-1.7 1,-3.4 1.2,-4.1 1.2,-4.1 0.1,-0.5 0.8,-1.7 1.6,-1.8 0.1,0 0.2,0 0.3,0 0.5,-0.1 1.3,-0.2 1.6,-0.1 0.1,0 0.2,0 0.3,0 0.5,0.1 1.3,0.2 2.5,0.7 1.2,0.3 0.4,3.3 0.4,3.3 l -1.7,3.7 c -0.2,0.3 0.5,0.9 0.5,0.9 0.1,0.1 1,1.2 1,1.3 0,0 0.8,0.7 0.7,2.1 0.1,0.9 -0.1,1.2 -0.3,1.6 -0.1,0.2 -0.2,0.3 -0.3,0.5 v 0 c 0,0.8 0.3,2.2 0.4,2.3 0,0 0,0 0,0.1 -0.4,0.3 -1,0.7 -2.1,1.1 -0.2,0.1 -0.5,0.2 -0.8,0.3 -1.4,0.5 -1.9,0.7 -1.9,0.9 0,0 0,0.1 0,0.1 0.1,0.1 0.3,0.1 0.6,0.1 0.3,0 0.6,0 0.7,-0.1 0.4,-0.1 1.4,-0.4 1.8,-0.6 0.3,-0.1 1.3,-0.5 1.8,-0.8 0.1,0.4 0.2,0.8 0.2,1.1 -0.2,0.1 -0.4,0.2 -0.6,0.3 -0.3,0.2 -0.8,0.4 -1.2,0.6 -0.2,0.1 -0.3,0.2 -0.4,0.2 -0.2,0.1 -0.9,0.5 -0.9,0.6 0,0 0,0.1 0,0.1 0.1,0.1 0.4,0.2 0.5,0.2 0,0 0,0 0,0 0.1,0 0.6,-0.2 1.2,-0.5 0.2,-0.1 0.4,-0.2 0.5,-0.2 0.3,-0.1 0.7,-0.3 0.9,-0.4 0,0 0,0.1 0,0.1 0.2,2.3 0.3,2.7 0.3,2.8 0.2,0.2 1.5,0.2 4,0 1.1,0.5 1.3,1.3 1.3,1.7 l -0.2,0.7 c -0.4,0.9 -1.9,5 -1.9,5 0,0.1 -0.1,0.2 -0.1,0.3 -0.2,0.5 -0.5,1.2 -1.7,1.4 -1.2,0.5 -2,0.7 -3.4,0.9 -2.4,0.5 -4.1,0.6 -4.2,0.6 z m -9.1,-35.3 c 0.4,0 0.8,0.2 1.3,0.5 0.3,0.2 0.7,0.7 1,0.9 -0.7,0.5 -1.3,1 -1.5,1.2 -0.1,0.1 -0.3,0.3 -0.5,0.5 -1.8,-0.3 -2.8,0.5 -3.1,0.8 -0.9,1 -2,1 -2.6,0.7 0.3,-0.3 0.8,-0.6 1,-0.8 0.5,-0.4 0.9,-1 1.4,-1.7 0.5,-0.7 2.1,-1.8 2.2,-1.8 z m 7.1,0.4 c -0.2,0.1 -0.4,0.2 -0.6,0.3 0,0 -0.1,-0.1 -0.1,-0.1 -0.8,-0.6 -1.9,-0.4 -2.5,-0.2 -0.2,0.1 -0.5,0.2 -0.8,0.5 -0.1,0 -0.3,0 -0.4,-0.2 l -0.1,-0.1 c -0.4,-0.4 -0.8,-0.8 -0.9,-0.9 -0.4,-0.2 -0.8,-0.4 -1.1,-0.5 l 0.1,-0.2 0.3,-0.4 c 0,0 0.5,-0.7 0.9,-1 h 0.1 c 0.3,-0.2 0.7,-0.3 1,-0.3 0,0 0,0 0,0 l 1.8,0.1 c 0,0 1.2,0 1.4,1 l 0.6,1.7 c 0.1,0 0.1,0.1 0.3,0.3 0,0 0,0 0,0 z m 3.4,1.1 -0.8,1.3 c 0,0 -0.1,0.2 -0.2,0.4 -0.1,0 -0.3,0 -0.5,-0.1 -0.3,-0.1 -1.1,-0.9 -1.7,-1.5 -0.1,-0.1 -0.1,-0.1 -0.2,-0.2 0.1,-0.1 0.3,-0.1 0.5,-0.2 0.1,0 0.1,0 0.2,0 0.4,0.3 1.1,0.5 2,0.3 0,0 0.6,-0.1 0.9,-0.1 -0.1,0 -0.2,0.1 -0.2,0.1 z m 36,36.8 c 0,0 0,0 0,0 -0.1,0 -0.1,0 -0.2,0 v 0 c -2.4,0.5 -3.2,0.2 -3.4,-0.2 -0.2,-0.2 -0.1,-0.5 0,-0.7 0.1,0 0.2,-0.1 0.7,-1.8 0.2,-0.5 -0.3,-1.2 -0.4,-1.3 -0.1,-0.2 -0.9,-1.1 -1.2,-1.4 0,0 0.1,-0.1 0.1,-0.1 0,0 0,0 0,0 0.3,0 1.1,-0.2 1.1,-0.2 1.7,-0.2 3.2,-0.2 3.6,2.1 0,0.3 -0.4,2 -0.3,3.6 z M 268.3,98.7 v 0 C 268.1,98.4 268,98 268,97.9 c 0,-0.1 0,-0.2 -0.1,-0.3 0,0 0,0 0,0 h -0.1 c 0,0 -0.6,-0.5 -0.6,-1.1 0,-0.3 -0.1,-0.6 -0.1,-1 -0.1,-0.5 -0.2,-1 -0.1,-1.1 0.1,-0.1 0.3,-0.3 0.5,-0.4 0.2,0.2 0.4,0.4 0.5,0.5 0,0.1 0.1,0.1 0.1,0.2 0.3,0.4 0.5,0.8 1.1,0.8 h 0.1 c 0.5,0 0.8,0.1 1.2,0.2 -0.3,0 -0.7,0.1 -0.8,0.2 -0.3,0.3 -0.6,0.7 -0.7,1.2 0,0.3 0,0.7 0.1,1.1 v 0.1 c 0,0.1 0.1,0.2 0.2,0.4 -0.2,0.2 -0.4,0.3 -0.6,0.5 -0.3,-0.3 -0.3,-0.5 -0.4,-0.5 z M 265.5,96 265.4,95.8 C 265.2,95.2 265,94.5 265,94 c 0,-0.4 0,-0.9 -0.1,-1.2 0.2,0.1 0.4,0.2 0.6,0.3 0.2,0.1 0.4,0.3 0.6,0.3 0.1,0 0.2,0.1 0.3,0.1 0,0 0.1,0 0.1,0 -0.1,0.2 -0.1,0.3 -0.2,0.4 -0.1,0.3 -0.1,0.8 -0.1,1.2 0,0.4 0.1,1.1 0.2,1.4 0.1,0.2 0.2,0.6 0.2,0.9 -0.4,0 -0.8,0.1 -1.1,0.1 0.2,-0.3 0.1,-1 0,-1.5 z m -2.1,-4.2 c 0.3,0.1 0.5,0.3 0.7,0.6 0,0 0.1,0.1 0.1,0.1 0.1,0.7 0.2,1.9 0.3,2.4 0.1,0.3 0.2,0.5 0.3,0.7 0.1,0.3 0.2,0.6 0.2,0.9 0,0.3 0,0.8 0,1.2 -1.2,0 -1.3,-0.1 -1.4,-0.1 -0.2,-0.2 -0.6,-3 -0.8,-4.7 l -0.3,-1.4 c 0.3,0 0.6,0.2 0.9,0.3 z m -0.6,-3.1 c 0.1,-0.5 0.1,-1 0.1,-1.5 0.3,-0.3 0.6,-0.7 1,-0.7 0.7,-0.2 1.5,0 2.1,0.1 0.6,0.2 1.6,0.4 2.1,1.1 0.1,0.2 0.3,0.4 0.4,0.6 0.2,0.4 0.5,0.8 0.9,1 0.3,0.1 1,0.3 1.4,0.4 0.1,0 0.2,0.1 0.3,0.1 0.4,0.1 0.7,0.3 0.9,0.5 0,0 0,0 0,0 0.1,0.4 0.5,1.6 0.5,2.8 0,0.2 -0.1,0.9 -0.4,1.6 0,0.1 -0.1,0.1 -0.1,0.2 -0.1,0.2 -0.1,0.3 -0.2,0.3 0,0 -0.1,0 -0.2,0 -0.2,-0.1 -0.3,-0.1 -0.4,-0.2 -0.2,-0.1 -0.3,-0.1 -0.5,-0.2 -0.4,-0.1 -0.9,-0.1 -0.9,-0.1 0,0 -0.9,0.2 -1.3,-0.3 -0.2,-0.2 -0.2,-0.5 -0.3,-0.7 -0.1,-0.3 -0.2,-0.6 -0.4,-0.6 -0.1,0 -0.2,-0.1 -0.2,-0.1 0,0 0.1,-0.1 0.1,-0.1 0.3,-0.5 0.4,-0.7 0.5,-1.1 0.1,-0.4 0,-1.2 -0.1,-1.5 -0.2,-0.6 -0.6,-1.3 -0.7,-1.5 -0.2,-0.3 -1.5,-0.8 -1.8,-0.8 0,0 0,0 0,0 -0.1,0 -0.1,0.1 -0.1,0.1 0,0.2 0.8,0.7 0.9,0.8 0.5,0.3 0.9,1.1 1.1,1.6 0.1,0.4 -0.2,1.5 -0.3,1.7 -0.2,0.1 -1.1,0.4 -1.6,0.2 -0.3,-0.1 -0.6,-0.2 -0.8,-0.4 -0.2,-0.1 -0.4,-0.2 -0.7,-0.4 -0.4,-0.2 -1.1,-1 -1.5,-1.4 -0.2,-0.9 0.2,-1.5 0.2,-1.5 z m 1.1,-5 c 0.7,0.5 1.5,1.3 1.8,1.6 l 0.1,0.1 c 0.1,0.1 0.2,0.2 0.2,0.4 -0.6,-0.1 -1.2,-0.2 -1.5,-0.2 -0.4,0 -1.1,0.2 -1.6,0.6 -0.1,0 -0.1,0.1 -0.1,0.1 -0.4,-1 -1.3,-1.9 -1.3,-2 -0.6,-0.6 -0.5,-0.9 -0.5,-0.9 0.1,-0.2 0.2,-0.5 0.3,-0.7 0.6,0.1 1.7,0.3 2.6,1 z m 13,10.6 c -0.1,0.5 -0.3,1.3 -0.5,1.7 -0.3,0.6 -0.7,0.8 -1.1,1 -0.2,0.1 -0.6,0.1 -0.8,0.1 -0.1,-0.2 -0.4,-0.4 -0.7,-0.5 -0.2,-0.1 -0.4,-0.2 -0.5,-0.3 -0.2,-0.2 -0.6,-0.4 -0.9,-0.6 0.4,-0.3 0.7,-0.9 0.8,-1.3 0.1,-0.7 0.2,-1.1 0.1,-1.7 v -0.1 c 0,-0.5 0,-0.9 -0.1,-1.2 0.3,-0.3 0.9,-0.8 1.9,-0.6 0.8,0.2 1.5,1.9 1.8,2.8 0.1,0.1 0.1,0.4 0,0.7 z m -5.7,-5.7 c -0.5,0.1 -1.2,0.2 -1.5,-0.1 -0.2,-0.2 -0.5,-0.5 -0.7,-0.8 -0.2,-0.3 -0.4,-0.5 -0.5,-0.7 -0.3,-0.3 -0.7,-0.5 -1.1,-0.7 -0.1,-0.3 -0.6,-1.1 -0.9,-1.3 -0.7,-0.6 -1.2,-1 -1.6,-1.3 -0.2,-0.1 -0.4,-0.3 -0.6,-0.4 -1.1,-0.9 -2.3,-1.4 -2.8,-1.5 0.2,-0.7 0.4,-1.2 0.5,-1.6 0.3,0.1 0.7,0.1 1.1,0.1 1,0.1 2.2,0.1 3.2,0.9 0.1,0.1 0.2,0.6 0.2,1.1 0.1,0.7 0.2,1.5 0.5,1.6 0.3,0.2 0.7,0.3 1.1,0.5 0.8,0.3 1.7,0.7 2.3,1.4 0.8,0.8 0.8,2.3 0.8,2.8 z m 2.1,11.5 c -0.6,-0.3 -1,-0.7 -1.2,-0.8 0,0 -0.1,-0.1 -0.1,-0.1 -1,-0.8 -1.5,-0.9 -1.5,-1 -0.1,0 -0.1,0 -0.2,0 0,0 0,0 0,0 -0.3,-0.3 -0.7,-0.8 -0.6,-1.1 0.1,-0.4 0.3,-0.7 0.5,-0.8 0.2,-0.1 0.9,-0.1 1.4,-0.1 0,0 0,0 0,0 0.4,0.2 1.2,0.7 1.2,0.7 0.5,0.3 0.8,0.7 1,1.2 0.2,0.7 -0.1,1.7 -0.2,2 -0.1,0 -0.2,0 -0.3,0 z m 5,3.4 c -0.1,-0.2 -0.3,-0.6 -0.5,-1 -0.2,-0.3 -0.7,-0.8 -1.5,-1.5 -0.1,-0.1 -0.5,-0.2 -1,-0.4 0,-0.1 0,-0.2 -0.1,-0.2 l -0.1,-0.1 c -0.2,-0.2 -0.2,-0.2 -0.1,-0.7 v -0.2 c 0,-0.5 0,-0.6 0,-0.7 0,-0.1 0,-0.1 0,-0.2 0,-0.1 0,-0.3 -0.1,-0.5 0.2,0 0.3,-0.1 0.6,-0.1 0.5,-0.1 1.2,-0.6 1.7,-1.3 0.2,-0.2 0.4,-0.8 0.5,-1.4 0.3,-0.1 0.8,-0.2 1.1,-0.1 0.5,0.2 1.7,0.8 1.9,1.2 0.1,0.2 0.3,0.7 0.4,1.1 0,0.1 0.1,0.3 0.1,0.4 l -2,0.2 -1.3,0.3 -1.4,0.6 0.4,0.4 v 0 0 c 0.1,0 1.4,-0.2 1.5,-0.2 2,-0.6 3.2,-0.2 3.3,-0.2 v 0 c 0,0 0.1,0 0.1,0.1 0,0.1 0.1,0.2 0.1,0.2 0.3,0.4 0.5,0.8 0.5,1 0,0.2 -0.2,0.9 -0.6,1.5 -0.2,0.1 -0.7,0.3 -1.1,0.3 l -0.8,-0.1 -0.6,-0.1 c -0.1,0 -0.3,-0.1 -0.4,-0.1 0,0 -0.3,-0.1 -0.5,-0.2 -0.5,-0.4 -0.6,-0.4 -0.6,-0.4 0,0 -0.4,-0.1 -0.7,-0.2 l -0.7,-0.1 0.4,0.5 0.4,0.2 0.4,0.1 0.6,0.5 0.6,0.4 0.3,0.2 0.5,0.2 0.9,0.1 h 1.1 c 0.4,0.1 0.8,0.2 0.8,0.3 l 0.1,0.3 c -0.1,0 -0.1,0 -0.2,0.1 0,0 -1.1,0.7 -3.1,0.7 -0.1,0 -0.3,0 -0.4,0 l -0.5,-0.9 c 0,0 0,0 0,0 z m 5,-10.7 c -0.1,0.3 -0.2,0.6 -0.3,0.8 -0.2,-0.3 -0.4,-0.5 -0.5,-0.7 -0.1,-0.2 -0.1,-0.4 -0.2,-0.6 -0.2,-0.6 -0.3,-1.3 -1.2,-2 -0.6,-0.4 -1.5,-0.7 -2.3,-0.9 -0.8,-0.2 -1.6,-0.5 -2.1,-0.8 -0.4,-0.2 -0.6,-1.1 -0.9,-2 -0.2,-0.6 -0.3,-1.2 -0.5,-1.6 -0.4,-0.9 -1.3,-1.1 -2.1,-1.2 -0.2,0 -0.4,-0.1 -0.5,-0.1 -0.7,-0.2 -2.3,-1.4 -3.3,-3.7 -1,-2.3 -2.1,-2.5 -2.7,-2.6 h -0.1 c -0.4,-0.1 -1.8,0 -2.8,0.1 -0.4,0 -0.7,0.1 -0.8,0.1 -0.1,0 -0.3,-0.1 -0.5,-0.2 0.1,-0.5 0.4,-1.2 1,-1.2 1,0 2.7,0 4.5,1.1 0.4,0.3 0.9,0.6 1.5,0.9 1.7,1 3.7,2.3 5.2,2.7 h 0.1 c 1.8,0.5 2.6,0.7 2.8,1.5 0.1,0.3 0.1,0.7 0.2,1.2 0.1,1.1 0.3,2.4 0.8,3.2 0.4,0.5 1.1,1 1.8,1.5 0.8,0.5 1.6,1 2,1.7 0.8,1.1 1,2.2 0.9,2.8 z m 0.5,23.1 v -0.2 h 0.1 l 1.2,0.9 1,1 c 0,0 0.5,0.5 0.5,1 v 0.7 h -0.2 l -1.4,-0.1 v 0 0 c 0,0 -0.1,0.1 -0.3,0 v 0 c 0,0 0,0 0,0 -0.1,0 -0.7,-0.1 -0.9,-0.7 l 0.1,-1.1 0.1,-0.5 v 0 z m 7,2.8 v 0 c -0.1,0.5 -0.2,0.9 -0.2,1.2 -0.3,-0.3 -0.8,-0.6 -1.4,-0.6 -0.1,0 -0.6,-0.1 -0.9,-0.1 h -0.9 c -0.1,-0.5 -0.4,-2.1 -1.2,-3 -0.6,-0.6 -1,-0.9 -1.4,-1.2 -0.2,-0.1 -0.4,-0.3 -0.6,-0.5 -0.6,-0.5 -1.6,-1.3 -1.6,-1.3 -0.5,-0.6 -0.5,-1 0.1,-2.1 0.3,-0.3 0.4,-2.2 0.5,-2.8 0.4,-0.1 0.7,-0.1 1,-0.2 0,0.3 0,1.1 0.2,1.9 0.1,0.6 -0.1,1.2 -0.2,1.7 -0.1,0.3 -0.2,0.6 -0.1,0.7 0.1,0.3 1.3,1.4 1.8,1.7 0.1,0 0.2,0.1 0.4,0.2 0.6,0.3 1.7,0.8 2.1,1.1 0.3,0.2 0.8,0.7 1.3,1.2 0.3,0.3 0.6,0.6 0.8,0.8 0.2,0.1 0.4,0.5 0.6,0.7 -0.2,0.4 -0.2,0.6 -0.3,0.6 z M 286,105.1 c 0,0 0,0.1 0,0.1 l -0.2,0.6 c 0,0.1 -0.1,0.2 -0.1,0.2 0,0 0,0 0,0.1 l -0.1,0.3 c -0.2,0.7 -3.3,1.4 -4.6,1.6 h -0.7 -0.6 -0.3 c 0,-0.2 0,-0.4 0,-0.4 l -0.1,-0.6 c 0.1,-0.1 0.2,-0.1 0.2,-0.1 1.8,0 3.4,-0.7 3.4,-0.7 0.1,0 1,-0.4 1.4,-0.6 0.3,-0.1 0.7,-0.5 0.7,-0.8 0,-0.1 0,-0.1 0,-0.1 -0.1,0 -0.2,0 -0.4,0 -0.8,0.3 -3.4,1.2 -3.5,1.3 l -0.6,0.1 h -0.9 c -0.3,0 -0.5,-0.5 -0.6,-0.9 0.1,-0.1 0.3,-0.3 1.2,-0.3 0.1,0 0.3,0 0.4,0 v 0 c 0,0 2.8,-0.5 4.4,-1.7 0.1,0 0.4,-0.1 0.7,0 0,0.2 0.1,0.4 0.1,0.4 0.3,1 0.2,1.5 0.2,1.5 v 0 z m 2,-8.6 c -0.2,3.4 -1.7,4.7 -2.1,5 0,0 0,0 0,0 0,0 0,0 0,0 -0.1,0.1 -0.2,0.1 -0.3,0.2 -0.3,0.3 -0.7,0.6 -1.2,0.9 -0.1,0 -0.2,0.1 -0.3,0.1 -0.1,0 -0.2,0.1 -0.3,0.1 -0.3,-0.1 -0.7,-0.3 -0.9,-0.6 0.2,-0.4 0.6,-1.3 0.4,-1.9 -0.2,-0.5 -0.5,-0.8 -0.6,-1.1 -0.1,-0.1 -0.1,-0.2 -0.2,-0.3 -0.1,-0.1 -0.1,-0.4 -0.1,-0.8 -0.1,-0.7 -0.2,-1.5 -0.4,-1.9 -0.6,-0.8 -1.7,-1.6 -2.2,-1.9 -0.3,-0.1 -0.7,-0.1 -1.1,-0.1 -0.2,0 -0.5,0 -0.6,0 0,-0.9 -0.9,-3.3 -1.7,-4.1 -0.2,-0.2 -1.3,-0.4 -1.7,-0.3 -0.4,0.1 -1.4,0.2 -1.7,-0.2 0,0 -0.1,-0.1 -0.1,-0.1 0,-0.1 -0.1,-0.1 -0.1,-0.2 0,-0.1 -0.1,-0.1 -0.1,-0.2 0,0 0,-0.1 0,-0.1 0,-0.1 -1,-3 -1.3,-3.9 -0.4,-0.8 -1,-1 -1.6,-1.2 -0.6,-0.2 -1.5,-0.5 -1.9,-0.8 -0.2,-0.1 -0.3,-0.6 -0.3,-1.1 -0.1,-0.7 -0.2,-1.5 -0.7,-1.9 -0.8,-0.7 -3.8,-1 -3.9,-1 -0.1,0 -0.3,0 -0.5,0 0,-0.1 0,-0.2 0,-0.2 l 0.1,-0.9 c 0.3,0.1 0.7,0.1 1.1,0 0.6,-0.1 1.8,-0.3 2.7,-0.2 0.6,0 1,0.5 1.5,1 0.1,0.1 0.3,0.3 0.4,0.5 0.3,0.3 0.6,0.9 0.9,1.5 0.4,0.8 0.9,1.7 1.6,2.3 0.9,0.8 2.3,1.4 3.1,1.8 0.2,0.1 0.4,0.2 0.5,0.2 0.3,0.1 0.3,0.3 0.4,0.8 0.1,0.3 0.1,0.6 0.3,1.1 0.5,1.4 1.2,2 1.9,2.4 0.4,0.3 1.3,0.6 2.1,0.9 0.8,0.3 1.7,0.6 2,0.8 0.3,0.2 0.4,0.7 0.5,1.2 0.1,0.4 0.1,0.8 0.3,1.1 0.3,0.4 1,1 1.6,1.5 0.4,0.3 0.7,0.6 0.9,0.8 0.3,0.3 0.5,0.8 0.6,1.1 0.1,0.3 0.1,0.4 0.2,0.4 0,0 0,0 0,0 0,0 0.1,0 0.1,0 0.2,-0.2 0.1,-0.8 -0.1,-1.6 -0.1,-0.3 -0.5,-0.7 -1.1,-1.2 -0.1,-0.1 -0.2,-0.2 -0.3,-0.3 0.3,-0.3 0.6,-0.8 0.6,-1.4 0.1,-1 -0.3,-2.4 -0.8,-3.1 -0.5,-0.7 -1.1,-1.5 -2.1,-1.8 -0.2,-0.1 -0.4,-0.1 -0.5,-0.2 -0.4,-0.1 -0.5,-0.2 -0.9,-0.5 -0.5,-0.5 -1,-2.8 -1.1,-4.5 -0.1,-1.2 -0.6,-1.7 -1.4,-2 -0.4,-0.2 -1.2,-0.4 -2.1,-0.6 -0.7,-0.2 -1.4,-0.4 -2,-0.6 -0.8,-0.3 -2.4,-1.4 -3.6,-2.2 -0.6,-0.4 -1.1,-0.8 -1.4,-0.9 -0.9,-0.5 -4.7,-1.2 -5.5,-0.9 -0.4,0.2 -0.6,0.4 -0.7,0.7 -0.1,-0.2 -0.3,-0.3 -0.3,-0.3 -0.3,-0.2 -1,-0.5 -1.1,-0.5 -0.1,0 -0.1,0 -0.2,0 0.2,-0.2 0.5,-0.4 0.9,-0.6 0.6,-0.3 1.8,-0.5 2.7,-0.5 1,0 1.4,-0.2 1.4,-0.2 h 0.1 l -0.1,-0.1 c 0,0 -0.4,-0.2 -1,-0.3 -0.4,-0.1 -1.3,0 -2.1,0.1 -0.4,0 -0.8,0.1 -0.9,0.1 -0.5,0 -1.9,1.1 -2.1,1.2 -0.4,-0.1 -0.8,-0.1 -1,-0.1 0,0 0,0 -0.1,0 -0.4,0 -1.2,0.1 -1.3,0.1 -0.4,0.1 -0.8,0.2 -0.8,0.3 -0.2,-0.3 -0.3,-0.7 -0.3,-1.1 0,-0.4 0.2,-0.8 0.4,-1 v 0 c 0.4,-0.5 1.4,-1.2 1.4,-1.2 0.3,-0.2 3.2,-1.5 6.3,-1.6 2.8,-0.1 5.4,0 7.9,0.3 1.9,0.2 7.1,2.5 7.1,2.5 1.6,0.8 2.8,2.6 2.8,2.6 1,1 3.1,5.9 3.1,5.9 1.3,4.4 1.5,5.1 1.6,5.3 v 0 c 0,0.1 1.1,3.6 1.3,9.5 z m -52.1,11.2 c 0.1,-0.1 0.3,-0.3 0.6,-0.2 0.1,0.1 0.5,0.4 0.7,0.4 0,0 0.3,0 0.9,0 0.2,0 0.3,-0.1 0.3,-0.1 0.1,-0.1 0,-0.3 0,-0.4 0,-0.1 -0.1,-0.1 -0.2,-0.1 v 0 c -0.2,0 -0.7,0 -0.7,0 v 0 0 c 0,0 0,0 -0.1,0 -0.1,0 -0.2,-0.1 -0.5,-0.5 -0.1,-0.1 -0.2,-0.2 -0.4,-0.2 -0.1,0 -0.2,0 -0.4,-0.1 h -0.2 c -0.1,0 -0.2,0 -0.2,-0.1 -0.1,-0.1 0,-0.3 0,-0.3 l 0.1,-0.5 c 0,-0.1 0.3,-1.3 0,-1.9 0,0 0.1,0 0.1,0.1 l 0.8,0.1 1,0.4 c 0,0 0.5,0.2 1.6,-0.5 v 0 0 c -0.1,-0.9 -0.9,-2.1 -0.9,-2.1 v -0.1 l -0.2,0.4 v 0 c 0,0 0.2,0.6 0.3,0.7 0.2,0.5 0.2,0.7 0.2,0.8 0,0.1 -0.1,0.1 -0.2,0.1 v 0 c -0.3,0.1 -0.9,0.2 -1.3,-0.3 v 0 c 0,0 -0.6,-0.4 -1.5,-0.5 0,0 -1.1,0.1 -1.4,0.1 -0.5,0 -0.9,-0.1 -1,-0.2 -0.2,-0.2 -0.2,-0.5 -0.2,-0.8 0,-0.1 0,-0.2 0,-0.3 0.1,-0.2 0.9,-1.7 1.6,-2.3 l 0.4,-0.5 1.2,-2 0.9,-1.2 c 0,0 1.1,-1.1 1.1,-2 l 0.1,-1.1 v 0 0 c 0,0 -0.1,-0.6 0.2,-1.3 l 0.5,-1 0.5,-1.4 0.4,-1.4 0.2,-1.9 v -0.3 c 0.2,-0.3 0.7,-1.1 0.8,-1.7 0.1,-0.7 0.8,-1.3 1.4,-1.6 0.3,-0.2 0.7,-0.3 0.9,-0.4 0.2,-0.1 0.3,-0.1 0.4,-0.2 v 0 c 0,0 0.2,-0.2 0.1,-0.4 0,-0.1 -0.2,-0.2 -0.4,-0.3 0,0 0,0 0,0 -0.2,0 -0.9,0.4 -1.1,0.5 -0.5,0.3 -1,0.6 -1.3,0.9 -0.2,0.2 -0.4,0.5 -0.6,0.7 -0.1,0.2 -0.2,0.4 -0.4,0.5 v 0 c -0.2,0.2 -0.3,0.3 -0.5,0.4 -0.7,-0.3 -1.1,-0.7 -1.1,-1 0,0 0,-1.1 0,-1.5 0,-0.4 0,-1.2 0.5,-1.9 0.1,0.1 0.4,0.2 0.6,0.2 0.1,0 0.1,0 0.2,0 0.9,0 2.2,-0.4 2.9,-1.2 0.5,-0.6 1.4,-0.7 2,-0.6 -0.1,0.1 -0.1,0.1 -0.2,0.2 -0.2,0.2 -0.6,1.5 -0.4,1.8 0,0.1 0.1,0.2 0.1,0.3 0.2,0.4 0.3,0.8 0.6,0.8 0,0 0.1,0 0.1,0 0.1,-0.1 0,-0.3 0,-0.7 -0.1,-0.5 -0.2,-1.1 0,-1.5 0.7,-1.2 2.1,-2.3 3.2,-2.8 1.3,-0.6 2.3,-0.7 2.9,-0.4 0.5,0.3 1,0.9 1.4,1.3 0.2,0.2 0.4,0.4 0.6,0.6 0.3,0.3 0.8,0.4 1.2,0.4 -0.1,0.3 -0.2,0.6 -0.3,1 -0.3,0 -0.9,0 -1.5,0 -0.5,-0.5 -2.2,-2 -3.3,-1.5 -1.2,0.5 -2.1,1.2 -2.4,1.6 -0.2,0.2 -0.5,0.7 -0.5,1 0,0.1 0,0.1 0.1,0.1 0,0 0,0 0.1,0 0.3,0 0.8,-0.5 1,-0.7 0,0 1.3,-1.1 2.2,-1.1 0,0 0,0 0,0 0.7,0 1.6,0.7 1.9,1 -0.1,0.1 -0.2,0.1 -0.4,0.2 -0.8,0.5 -1.2,0.9 -1.4,1.2 -0.1,0.1 -0.1,0.1 -0.2,0.2 v 0 c -0.6,0.6 -1,0.9 -1.3,0.9 0,0 0,0 0,0 -0.3,0 -0.9,-0.3 -1.3,-0.5 -0.2,-0.1 -0.4,-0.2 -0.6,-0.2 -0.3,-0.1 -0.7,0 -1.1,0.2 -0.2,0.1 -0.5,0.3 -0.6,0.6 0,0 0,0.1 0,0.1 0.1,0.1 0.4,0.1 1,0 0.2,0 0.3,0 0.4,0 0.2,0 0.8,0.3 1.2,0.5 0.3,0.1 0.5,0.2 0.6,0.3 0.1,0 0.1,0 0.2,0 0.6,0 1.6,-0.8 1.7,-0.9 0.1,-0.1 0.3,-0.3 0.4,-0.5 0.4,-0.5 0.9,-1.2 1.7,-1.6 0.7,-0.4 1.3,-0.3 1.7,-0.2 -0.1,0.3 -0.2,0.6 -0.3,0.9 0,0.1 -0.1,0.2 -0.1,0.3 -0.2,0.1 -0.4,0.2 -0.6,0.5 -1.1,1 -2.4,1.7 -3.2,2.1 0,0 -0.1,0 -0.1,0 -0.6,0.4 -2.3,0 -3,-0.2 -0.1,0 -0.1,0 -0.1,0 0,0 0,0.1 0,0.1 0.1,0.2 0.6,0.7 1.4,0.9 0,0 0.3,0.1 0.8,0.1 0.7,0 1.8,-0.1 2.7,-0.8 l 1.7,-1.3 c 0,0.1 0,0.1 0,0.1 -0.1,0.2 -0.8,1.8 -0.9,2.1 -0.3,1.5 -0.8,2.3 -0.8,2.3 l -4,6.2 c -0.5,0.9 -0.5,1.7 -0.4,2.1 0.1,0.4 0.2,0.6 0.7,0.6 0.2,0 0.5,0 0.7,0 0.2,0 0.4,0 0.6,0 0,0 0,0 0.1,0 0.6,0 0.7,0.5 0.7,0.5 0,0.1 0,1.8 0,2 0,0.2 0.1,1.1 0.1,1.1 0,0 0,0.6 0.7,0.9 0.1,0.1 0,0.3 -0.1,0.5 -0.1,0.1 -0.3,1.2 -0.2,1.3 0,0 0,0 0,0.1 0,0.1 0.1,0.2 0.3,0.3 0.8,0.3 0.8,0.9 0.8,0.9 v 0 c 0.1,0.2 -0.4,1.2 -0.7,1.8 -0.5,0.8 -0.3,3.1 -0.3,3.2 0.3,1.1 2.4,1.6 2.5,1.6 2.1,0.1 3.6,0.3 3.6,0.3 h 0.6 c -0.1,0.1 -0.1,0.1 -0.2,0.2 l -3.8,3.2 c 0,0 -4.4,4 -7.9,4 -0.1,0 -0.1,0 -0.2,0 -0.1,0 -0.6,0 -1.1,-0.1 -0.6,0 -0.9,-0.1 -1,-0.1 0,0 -0.1,0 -0.2,0 -0.4,-0.1 -1.5,-0.3 -2.5,-0.3 -2.3,0 -3.8,-0.9 -3.9,-2.5 -0.2,-1.1 0,-1.7 0.1,-1.8 0.1,-0.1 1.1,-1.2 1.1,-1.7 0,0 -0.2,-1 -0.6,-1.3 v 0 0 c -0.3,0.1 -0.5,0 -0.6,-0.2 -0.4,-0.4 -0.3,-1.1 0.1,-1.5 z m 40.3,4.2 c 0,-0.8 0.5,-1.8 0.5,-1.9 0.8,-0.9 1.5,-1 1.5,-1 0.4,0 0.6,-0.1 0.8,-0.3 0.4,0 0.7,0 1,0 -0.3,0.4 -2.2,3 -0.8,4.8 1,1.3 2,3.2 1.9,3.9 0,0.1 -0.1,0.2 -0.2,0.3 v 0 c -0.3,0.4 -0.6,0.5 -0.9,0.5 -0.4,-0.1 -0.5,-0.6 -0.5,-0.7 l -0.5,-1 -0.3,-1.1 c -0.1,-0.3 -0.7,-1.1 -0.7,-1.1 l -0.3,-0.4 -0.3,-0.3 -0.4,-0.5 -0.4,-0.3 -0.2,-0.2 c 0,0 0,0 -0.1,0 -0.1,-0.2 -0.1,-0.5 -0.1,-0.7 z m 1.9,9.4 -0.6,-0.4 c 0,0 -0.1,-0.1 -0.2,-0.3 l -0.6,-1.4 v 0 c 0,0 -0.8,-1 -1.4,-1.1 0,0 -0.1,0 -0.1,0 -0.3,0 -0.5,0 -0.6,0 0,0 0,0 -0.1,0 -0.1,0 -0.6,0.2 -0.8,0.3 h -0.5 c -0.4,-1 -0.1,-2.1 0.2,-2.6 0.1,-0.1 0.3,-0.3 0.5,-0.3 0.3,-0.1 0.7,0 1.1,0.3 l 1.1,1.1 0.7,0.9 c 0.1,0.2 1.1,1.7 1.4,1.9 0,0 0,0 0,0 0,0 0.1,0 0.1,0 0,0 0.1,0 0.1,0 0.1,-0.2 -0.2,-0.9 -0.4,-1.3 -0.1,-0.1 -0.2,-0.3 -0.3,-0.5 -0.4,-0.7 -0.9,-1.6 -1.5,-2.1 -0.1,-0.1 -0.1,-0.1 -0.2,-0.2 -0.6,-0.6 -1.1,-1 -1.9,-1.2 0.6,-0.7 1.5,-0.8 1.9,-0.9 v 0 l 0.5,0.3 0.4,0.3 0.5,0.6 0.4,0.5 0.4,1.1 0.2,0.8 0.4,0.7 0.8,1.1 v 0 c 0.2,0.2 0.5,0.2 0.8,0.2 0.1,0 0.2,0 0.3,0 0.5,-0.1 0.9,-0.6 1.1,-1 0.8,-1.7 -1.7,-5.4 -1.9,-5.7 -0.2,-1.6 1,-3.3 1.3,-3.7 0.6,0 1.1,0 1.5,-0.1 v 0.2 l -0.2,1.1 c -0.1,0.2 -0.2,0.7 -0.4,0.8 0,0 -0.6,0.8 -0.7,1.7 0,0.1 0,0.7 0.1,0.9 0.6,0.7 1.5,1.9 1.5,2 v 0 c 0.3,2.2 0.1,2.7 -0.5,3.8 -0.1,0.3 -0.3,0.6 -0.5,1 l -0.6,0.6 c -0.5,0.7 -1.8,0.7 -1.9,0.7 l -1.3,-0.1 c 0,0.2 -0.1,0.1 -0.1,0 z m -3,-0.1 c 0.5,-0.3 1.1,-0.4 1.6,-0.2 l 0.8,0.7 c 0,0.3 -0.1,0.9 -0.8,1.2 v 0 c -0.5,0.6 -1,1 -1.4,1 0,0 0,0 0,0 -0.4,0 -0.5,-0.3 -0.5,-0.3 v 0 c -0.2,-0.1 -0.4,-0.3 -0.5,-0.5 0,-0.4 0,-1.4 0.8,-1.9 z m -1.5,-1.6 v 0 c 0,0 0,-0.3 0.2,-0.5 0.2,-0.2 0.6,-0.4 1.1,-0.4 0,0 0.7,0 0.9,0.6 v 0 c 0,0 0.4,0.4 0.4,0.8 -0.2,0 -1,0.1 -1.6,0.6 -0.5,0.3 -0.8,0.8 -0.9,1.1 -0.2,-0.7 -0.2,-1.4 -0.2,-1.9 z m 17.4,2.2 c 0.6,1 0.3,3.1 0.3,3.1 -0.3,1.8 -1.9,2.3 -2.5,2.5 -1.3,0.3 -2.6,0 -3.2,-0.8 -0.3,-0.4 -0.4,-1 -0.3,-1.6 0,0 0,-0.1 0.1,-0.1 0.2,-0.5 0.5,-1.5 2.7,-1.6 0.4,0 1.1,0.6 1.1,1 0,0.2 -0.2,0.3 -0.5,0.3 0,0 -0.1,0 -0.1,0 -0.2,0 -0.3,0 -0.3,0 -0.2,0 -0.4,0.1 -0.5,0.2 -0.1,0.1 0,0.2 0,0.2 0,0 0.2,0.5 1,0.5 0.1,0 0.1,0 0.2,0 0,0 0.1,0 0.1,0 0.2,0 0.4,0 0.4,0 0.8,-0.2 0.7,-1.3 0.7,-1.4 0,-0.8 -0.8,-1.2 -0.8,-1.2 l -0.8,-0.5 -0.5,-0.1 -0.9,0.1 c -1.1,0.2 -1.6,1 -1.8,1.4 -1.2,-1 -1.4,-1.8 -1.4,-1.8 l -0.5,-1.4 c 0.1,-0.2 0.2,-0.4 0.4,-0.7 l 0.4,0.1 c 0,0 1.1,0.3 2.2,0.3 0.1,0 0.3,0 0.4,0 0.1,0 1.3,-0.1 1.3,-0.1 h 0.8 c 0,0 1.2,0.3 1.7,0.8 l 0.3,0.4 c 0,0.2 0,0.3 0,0.4 z m 1.5,-9.2 c -0.7,-0.6 -0.5,-1.2 -0.5,-1.2 l 0.2,-2.6 c 0,-1.3 -0.5,-2.3 -0.5,-2.3 -0.2,-0.6 -1.1,-1 -1.2,-1.1 -0.6,-0.1 -1.3,-0.1 -1.6,-0.1 -0.1,0 -0.1,0 -0.1,0 -1.5,0.1 -1.9,0.3 -2.1,0.4 -0.1,0 -0.1,0.1 -0.2,0 0,0 0,-0.1 0.1,-0.2 0.1,-0.2 0.2,-0.6 0.1,-1.1 -0.3,-0.8 -0.3,-1.7 -0.3,-1.9 l 1.1,-1.6 c 1.6,-2.8 1.3,-6.2 1.3,-6.2 -0.4,-5.8 -1.5,-9 -1.5,-9 -1.6,-5.2 -4.1,-9.9 -4.1,-9.9 -3.2,-5.1 -10,-6.1 -10.1,-6.1 -3.3,-0.7 -9.1,-0.4 -9.2,-0.4 -3,0.2 -4.7,1 -4.7,1 0,0 -2.7,1.1 -3.8,2.8 0,0 -0.2,0.4 -0.3,0.7 -0.2,0.2 -1.1,0.7 -2.4,-0.1 -1.1,-0.5 -1.3,-2.7 -1.3,-2.7 0,0 -0.3,-0.8 -1.1,-0.8 -2.7,-0.4 -4.3,0.6 -4.3,0.6 -0.1,0 -1.4,1.1 -1.9,2.2 -0.3,0 -1.7,0.3 -3.3,2.7 l -1.3,1.6 -1.8,1.6 v 0 c 0,0.1 -0.7,1.5 -0.3,4.2 0.1,0.2 0.6,0.6 1.6,1.2 0,0 0,0 0,0 0.2,0.3 0.2,3.1 -0.3,3.8 0,0.1 -0.5,1.3 -0.6,1.5 l -0.6,1 c -0.1,0.1 -0.4,0.4 -0.4,1.4 v 0.8 c 0,0 -0.1,1.2 -0.5,1.7 l -1.3,1.8 -1.2,1.7 c 0,0 -0.8,1.4 -1,1.7 0,0.1 -0.1,0.1 -0.2,0.2 -0.3,0.4 -0.8,0.9 -0.9,1.6 0,0 0,0.9 0.6,1.5 0.3,0.3 0.8,0.5 1.4,0.5 0,0 0.1,0 0.1,0 h 0.6 c 0,0 0,0 0,0 0,0.1 0,0.3 0,0.5 l 0.1,0.5 -0.1,1.1 c 0,0 -0.2,0.9 0,1.3 0,0 0.3,0.3 0.2,0.5 l -0.1,0.5 -0.1,0.3 c 0,0.1 -0.2,0.9 0.2,1.1 l 0.5,0.3 c 0,0 0.6,0.5 0.3,1.1 l -0.5,0.8 c 0,0 -0.4,0.5 -0.5,1.2 0,0 -0.3,1.5 0.5,2.8 0.6,0.9 1.6,1.5 3,1.7 l 2.7,0.3 2.9,0.5 c 0,0 0.8,0.2 0.8,1.3 v 0.4 c 0,0 0.1,0.8 0.4,1.4 l 0.6,1.4 0.7,1.3 0.7,1.7 c 0,0 0.6,1.5 0.6,3.4 l -0.1,3.5 v 0.1 h 1 0.1 v -4.8 c 0,0 -0.2,-1.9 -1,-3.3 l -0.6,-1.2 -0.9,-1.5 c 0,0 -0.6,-1.2 -0.8,-2.9 v -0.9 c 0.3,-0.1 1.9,-0.6 3.4,-1.3 0.2,-0.1 2.7,-1.7 3.7,-2.5 2,-1.7 2.5,-2.1 2.7,-2.3 0,0 0,0 0,0 v 0 c 0.2,-0.2 1.6,-1.4 2.1,-2.2 h 0.4 c 0,0 0,0 0,0 0.1,0 0.2,0 0.3,0.1 0.4,0.3 0.4,1.4 0.4,1.4 l 1.9,8.5 -2.4,3.6 -2.6,6.1 -2.1,7.4 v 0.1 h 1.4 v 0.2 c 0.1,-6 4.7,-14.3 4.7,-14.4 l 4.4,-6 4.9,-5.4 4.3,-4.5 c 0.1,-0.1 3.5,-2.4 3.9,-2.7 0.1,-0.1 0.2,-0.1 0.3,0 0.3,0.1 0.4,0.6 0.4,0.6 0.4,0.8 0.6,1.6 0.6,1.6 0.4,1.3 0.3,1.7 0.2,1.9 -0.1,0.1 -0.2,0.1 -0.2,0.1 v 0 0 c -1.5,0.2 -2.2,1.3 -2.2,1.3 -0.8,1.3 -0.6,2.8 -0.5,3.3 0,0 0,0.1 0,0.1 -0.1,0 -0.2,0 -0.2,0 -1.8,0 -2.3,1.4 -2.3,1.4 -1.2,2.3 -0.3,4.7 -0.3,4.7 0,0 0.3,1.5 0.2,2.6 0,0.2 -0.1,1.7 0.6,2.1 0.5,0.4 0.9,0.5 1,0.5 0.1,0.1 0.4,0.7 0.9,0.8 0.1,0 0.1,0 0.1,0 0.6,0 1.1,-0.4 1.6,-1.2 0,0 0,-0.1 0,-0.1 0.1,-0.1 1.2,-1.1 1.2,-1.1 0,0 0.6,-0.4 1.5,-0.2 0.1,0 1.1,-0.1 1.3,-0.1 0.9,-0.1 1.4,-0.7 1.6,-1.1 0.1,0.7 0.4,2.8 2,3.3 -0.1,0.3 -0.1,0.7 -0.1,0.7 -0.4,1.6 0.8,2.5 0.8,2.5 2.6,1.6 5.2,0.1 5.2,0.1 1.6,-0.9 1.7,-3.1 1.7,-3.1 0.2,-1.7 0,-2.8 0,-2.8 v 0 c -1.4,-2.2 0,-3.8 0,-3.8 0.5,-0.4 0.8,-1.3 1,-2.6 v 0 c 0.4,-2.1 -0.6,-2.9 -0.6,-2.9 z" id="path132"/>
	<path class="st1" d="m 240.3,95 c 0,-0.3 0,-0.7 0,-1 0,-0.1 0,-0.2 0,-0.2 0,-0.1 0.1,-0.2 0.1,-0.2 0.1,0 0.2,0 0.4,0 h 0.1 c 0.2,0 0.3,0 0.5,0 0.2,0 0.6,0.1 0.7,0.1 0.1,0 0.1,0.1 0.2,0.1 0.1,0.1 0.2,0.1 0.3,0.2 0.1,0 0.1,0 0.2,0.1 0.2,0.1 0.6,0.2 0.7,0.3 0.2,0.1 0.5,0.6 0.6,0.7 0.1,0.1 0.2,0.3 0.3,0.4 0.1,0.1 0.3,0.2 0.4,0.2 0.2,0.1 0.4,0 0.4,0 h 0.1 l -0.1,-0.1 c -0.1,-0.1 -0.4,-0.6 -0.7,-1.1 -0.3,-0.5 -0.5,-0.7 -0.5,-0.8 -0.1,-0.1 -0.2,-0.2 -0.4,-0.2 -0.1,0 -0.2,-0.1 -0.3,-0.1 -0.1,0 -0.2,-0.1 -0.3,-0.1 -0.1,0 -0.2,-0.1 -0.4,-0.2 -0.1,-0.1 -0.3,-0.1 -0.4,-0.2 -0.1,0 -0.1,-0.1 -0.2,-0.1 -0.3,-0.1 -0.7,-0.3 -0.9,-0.3 -0.4,0 -1.7,0 -1.8,0.1 -0.1,0.1 -0.2,0.2 -0.2,0.3 0,0.1 0.1,0.2 0.1,0.4 0,0.1 0.1,0.1 0.1,0.2 0,0 0.1,0.2 0.1,0.4 0,0.2 0,0.8 0,1.1 0,0.3 -0.1,0.4 -0.1,0.6 v 0.1 c 0,0.1 -0.2,0.3 -0.3,0.4 -0.2,0.2 -0.2,0.3 -0.2,0.3 v 0 0 c 0,0 0,0 0.1,0 0.2,0 0.8,-0.1 0.9,-0.2 0.2,0 0.5,-0.8 0.5,-1.2 z" id="path134"/>
	<path class="st1" d="m 243.7,95.8 c 0,0 -0.1,-0.1 -0.1,-0.1 -0.1,-0.1 -0.2,-0.2 -0.3,-0.3 0,0 -0.1,-0.1 -0.2,-0.1 -0.1,0 -0.1,-0.1 -0.1,-0.1 -0.1,0 -0.1,-0.1 -0.2,-0.1 h -0.1 c 0,0 -0.3,-0.2 -0.4,-0.2 v 0 c -0.1,0 -0.2,-0.1 -0.3,-0.1 0,0 0,0 -0.1,-0.1 0,0 -0.1,-0.1 -0.1,-0.1 -0.1,0 -0.6,-0.1 -0.6,-0.1 0,0 0,0 0,0 -0.1,0 -0.3,0.2 -0.4,0.2 0,0 0,0.1 0,0.2 0,0 0.1,0.2 0.1,0.2 0,0 0.1,0.1 0.2,0.1 0,0.1 -0.1,0.3 -0.1,0.5 0,0.2 0,0.4 0,0.6 0,0.1 0.2,0.4 0.3,0.5 0.1,0.1 0.3,0.2 0.3,0.2 0,0 0,0 0,0 0,0 0.1,0 0.1,-0.1 0.1,-0.1 0.1,-0.2 0.1,-0.3 0,-0.3 -0.1,-0.4 -0.1,-0.5 V 96 c 0,-0.1 0.1,-0.3 0.2,-0.5 0.1,0 0.1,0 0.2,0.1 0.1,0.1 0.5,0.4 0.6,0.5 0,0 0.1,0.1 0.1,0.1 0.1,0.1 0.2,0.1 0.2,0.3 -0.1,0.3 -0.2,0.4 -0.4,0.4 -0.1,0.1 -0.4,0.2 -0.5,0.2 -0.2,0 -0.5,0.1 -0.6,0.1 -0.1,0 -0.4,0 -0.4,0 v 0 c 0,0 -0.2,0.1 -0.2,0.2 0,0.1 0.1,0.2 0.1,0.2 h 0.5 c 0,0 0.2,0 0.3,0 0,0 0.1,0 0.2,0 0.1,0 0.3,0 0.3,0 0.1,0 0.4,-0.1 0.5,-0.2 0.2,-0.1 0.8,-0.4 0.9,-0.5 0.1,-0.1 0.1,-0.2 0.2,-0.2 0,-0.1 0,-0.2 0,-0.3 0,-0.3 -0.1,-0.6 -0.2,-0.6 z" id="path136"/>
	<path class="st1" d="m 253.8,85.4 c 0,0 0.1,0 0,0 0.3,0 1.3,0.2 1.7,0.4 0.4,0.1 0.6,0.2 0.7,0.3 0.1,0.1 0.6,0.5 0.9,0.8 0.1,0.1 0.2,0.2 0.3,0.2 0.1,0.1 0.2,0.1 0.2,0.3 0,0 0,0.1 0.2,0.1 0,0 0.1,0 0.2,0 0.2,0 0.3,-0.1 0.4,-0.2 0.1,-0.1 0.1,-0.2 0,-0.2 -0.1,-0.2 -0.1,-0.2 -0.1,-0.2 0,0 -0.1,0 -0.2,-0.3 -0.2,-0.2 -0.4,-0.4 -0.6,-0.6 -0.1,-0.1 -0.2,-0.1 -0.2,-0.2 -0.4,-0.3 -0.6,-0.5 -0.8,-0.6 0,0 -0.1,0 -0.1,-0.1 -0.3,-0.2 -1.2,-0.7 -2.3,-0.7 0,0 0,0 0,0 -0.3,0 -0.9,0.4 -1,0.5 v 0 l 0.1,0.4 v 0 c 0.1,0.1 0.4,0.2 0.6,0.1 z" id="path138"/>
	<path class="st1" d="m 257.9,89 c 0.1,0 0.1,0 0.2,0 0.1,0 0.2,-0.1 0.2,-0.1 0,0 0,-0.1 0.2,-0.2 0.1,0 0.1,-0.1 0,-0.1 -0.1,-0.1 -1.2,-0.2 -1.4,-0.1 -0.1,0 -0.3,0.1 -0.5,0.1 -0.3,0.1 -0.6,0.1 -0.7,0.2 -0.1,0 -0.2,0.1 -0.3,0.1 -0.3,0.1 -0.5,0.2 -0.5,0.4 0,0.1 0,0.1 0.1,0.1 0,0 0.1,0 0.2,0 0.2,0 0.5,-0.1 0.8,-0.2 0.1,0 0.2,-0.1 0.2,-0.1 0.2,-0.1 0.2,-0.1 0.4,-0.1 0.1,0 0.2,0 0.5,-0.1 0.3,0.1 0.5,0.1 0.6,0.1 z" id="path140"/>
	<path class="st1" d="m 255.4,87 c 0.3,0.1 0.9,0.5 1,0.7 0,0 0,0 0,0 -0.1,0.1 -0.3,0.2 -0.6,0.3 -0.5,0.2 -0.6,0.3 -0.7,0.4 v 0 0 c 0,0 0,0 0.1,0 0,0 0,0 0,0 0.2,0 1.2,-0.3 1.4,-0.4 0.2,-0.1 0.3,-0.4 0.4,-0.4 v 0 l -0.1,-0.3 v 0 c 0,-0.1 -0.1,-0.2 -0.2,-0.4 -0.2,-0.2 -1.1,-0.8 -1.4,-0.8 0,0 -1.6,-0.3 -1.8,-0.1 -0.2,0.1 0,0.6 0,0.6 v 0 0 c 0,0 0,0 0,0 0.1,0 0.3,0 0.5,0 0,0.2 0,0.4 0,0.5 0,0 0,0.1 0,0.1 0,0.2 0,0.3 0.2,0.5 0,0 0,0.1 0.1,0.1 0.1,0.1 0.1,0.2 0.3,0.2 0,0 0.1,0 0.1,0 0.2,0 0.2,-0.3 0.2,-0.5 0,-0.1 0,-0.2 0,-0.3 0,-0.2 0.1,-0.4 0.2,-0.5 0,0.3 0.1,0.3 0.3,0.3 z" id="path142"/>
</g>
<svg id="midnight-lizard-filters" style="height: 0px; width: 0px; position: absolute;"><filter id="ml-blue-filter" color-interpolation-filters="sRGB" x="0" y="0" width="99999" height="99999"/><filter id="ml-content-filter" color-interpolation-filters="sRGB" x="0" y="0" width="99999" height="99999"/><filter id="pdf-bg-filter" color-interpolation-filters="sRGB" x="0" y="0" width="99999" height="99999"><feComponentTransfer><feFuncR type="discrete" tableValues="0 0 0 0 0 0 0 0 0 0 0 0 0 0 0 0 0 0 0 0 0 0 0 0 0 0 0 0 0 0 0 0 0 0 0 0 0 0 0 0 0 0 0 0 0 0 0 0 0 0 0 0 0 0 0 0 0 0 0 0 0 0 0 0 0 0 0 0 0 0 0 0 0 0 0 0 0 0 0 0 0 0 1 0 0 0 0 0 0 0 0 0 0 0 0 0 0 0 0 0 0 0 0 0 0 0 0 0 0 0 0 0 0 0 0 0 0 0 0 0 0 0 0 0 0 0 0 0 0 0 0 0 0 0 0 0 0 0 0 0 0 0 0 0 0 0 0 0 0 0 0 0 0 0 0 0 0 0 0 0 0 0 0 0 0 0 0 0 0 0 0 0 0 0 0 0 0 0 0 0 0 0 0 0 0 0 0 0 0 0 0 0 0 0 0 0 0 0 0 0 0 0 0 0 0 0 0 0 0 0 0 0 0 0 0 0 0 0 0 0 0 0 0 0 0 0 0 0 0 0 0 0 0 0 0 0 0 0 0 0 0 0 0 0 0 0 0 0 0 0 0 0 0 0 0 0"/><feFuncG type="discrete" tableValues="0 0 0 0 0 0 0 0 0 0 0 0 0 0 0 0 0 0 0 0 0 0 0 0 0 0 0 0 0 0 0 0 0 0 0 0 0 0 0 0 0 0 0 0 0 0 0 0 0 0 0 0 0 0 0 0 0 0 0 0 0 0 0 0 0 0 0 0 0 0 0 0 0 0 0 0 0 0 0 0 0 0 0 0 0 0 1 0 0 0 0 0 0 0 0 0 0 0 0 0 0 0 0 0 0 0 0 0 0 0 0 0 0 0 0 0 0 0 0 0 0 0 0 0 0 0 0 0 0 0 0 0 0 0 0 0 0 0 0 0 0 0 0 0 0 0 0 0 0 0 0 0 0 0 0 0 0 0 0 0 0 0 0 0 0 0 0 0 0 0 0 0 0 0 0 0 0 0 0 0 0 0 0 0 0 0 0 0 0 0 0 0 0 0 0 0 0 0 0 0 0 0 0 0 0 0 0 0 0 0 0 0 0 0 0 0 0 0 0 0 0 0 0 0 0 0 0 0 0 0 0 0 0 0 0 0 0 0 0 0 0 0 0 0 0 0 0 0 0 0 0 0 0 0 0 0"/><feFuncB type="discrete" tableValues="0 0 0 0 0 0 0 0 0 0 0 0 0 0 0 0 0 0 0 0 0 0 0 0 0 0 0 0 0 0 0 0 0 0 0 0 0 0 0 0 0 0 0 0 0 0 0 0 0 0 0 0 0 0 0 0 0 0 0 0 0 0 0 0 0 0 0 0 0 0 0 0 0 0 0 0 0 0 0 0 0 0 0 0 0 0 0 0 0 1 0 0 0 0 0 0 0 0 0 0 0 0 0 0 0 0 0 0 0 0 0 0 0 0 0 0 0 0 0 0 0 0 0 0 0 0 0 0 0 0 0 0 0 0 0 0 0 0 0 0 0 0 0 0 0 0 0 0 0 0 0 0 0 0 0 0 0 0 0 0 0 0 0 0 0 0 0 0 0 0 0 0 0 0 0 0 0 0 0 0 0 0 0 0 0 0 0 0 0 0 0 0 0 0 0 0 0 0 0 0 0 0 0 0 0 0 0 0 0 0 0 0 0 0 0 0 0 0 0 0 0 0 0 0 0 0 0 0 0 0 0 0 0 0 0 0 0 0 0 0 0 0 0 0 0 0 0 0 0 0 0 0 0 0 0 0"/></feComponentTransfer><feColorMatrix result="selectedColor" type="matrix" values="1 0 0 0 0&#xA;                                               0 1 0 0 0&#xA;                                               0 0 1 0 0&#xA;                                               1 1 1 1 -3"/><feFlood flood-color="rgb(240, 240, 240)"/><feComposite operator="in" in2="selectedColor"/><feComposite operator="over" in2="SourceGraphic"/></filter></svg><style xmlns="" id="midnight-lizard-dynamic-values">:root { 
--ml-main-background-color:rgb(34, 36, 37);
--ml-main-background-color-filtered:rgb(34, 36, 37);
--ml-main-alt-background-color:rgb(24, 26, 27);
--ml-main-alt-background-color-filtered:rgb(24, 26, 27);
--ml-main-trans-background-color:rgba(34, 36, 37, 0.5);
--ml-main-trans-alt-background-color:rgba(24, 26, 27, 0.3);
--ml-main-text-color:rgb(209, 203, 199);
--ml-main-trans-text-color:rgba(232, 229, 227, 0.6);
--ml-main-text-color-filtered:rgb(209, 203, 199);
--ml-main-border-color:rgb(123, 107, 101);
--ml-main-trans-border-color:rgba(140, 122, 115, 0.3);
--ml-main-range-fill-color:rgb(87, 74, 69);
--ml-main-selection-color:rgb(12, 128, 223);
--ml-main-selection-text-color:rgb(255, 255, 255);
--ml-main-selection-shadow-color:rgba(0, 0, 0, 0.8);
--ml-main-button-background-color:rgb(23, 27, 28);
--ml-main-button-border-color:rgb(112, 97, 92);
--ml-main-red-button-background-color:rgb(46, 5, 5);
--ml-main-scrollbar-thumb-hover-color:rgb(107, 100, 97);
--ml-main-scrollbar-thumb-normal-color:rgb(86, 80, 78);
--ml-main-scrollbar-thumb-active-color:rgb(75, 70, 68);
--ml-main-scrollbar-track-color:rgb(34, 36, 37);
--ml-main-scrollbar-marks-color:rgb(209, 203, 199);
--ml-main-scrollbar-shadow-color:rgba(0, 0, 0, 0.3);
--ml-main-scrollbar-size:10px;
--ml-main-moz-scrollbar-width:auto;
--ml-main-moz-scrollbar-track-color:rgb(24, 26, 27);
--ml-main-link-color:rgb(117, 182, 234);
--ml-main-link-color-hover:rgb(144, 196, 238);
--ml-main-link-color-active:rgb(113, 179, 234);
--ml-main-visited-color:rgb(160, 117, 234);
--ml-main-visited-color-hover:rgb(179, 144, 238);
--ml-main-visited-color-active:rgb(157, 113, 234);
--ml-main-scrollbar-marks-color-original:rgb(209, 203, 199);
--ml-main-scrollbar-thumb-hover-color-original:rgb(107, 100, 97);
--ml-main-scrollbar-thumb-normal-color-original:rgb(86, 80, 78);
--ml-main-scrollbar-thumb-active-color-original:rgb(75, 70, 68);
--ml-main-scrollbar-track-color-original:rgb(34, 36, 37);
--ml-main-moz-scrollbar-track-color-original:rgb(24, 26, 27);
--ml-main-scrollbar-shadow-color-original:rgba(0, 0, 0, 0.3);
--ml-main-scrollbar-marks-color-filtered:rgb(209, 203, 199);
--ml-main-scrollbar-thumb-hover-color-filtered:rgb(107, 100, 97);
--ml-main-scrollbar-thumb-normal-color-filtered:rgb(86, 80, 78);
--ml-main-scrollbar-thumb-active-color-filtered:rgb(75, 70, 68);
--ml-main-scrollbar-track-color-filtered:rgb(34, 36, 37);
--ml-main-moz-scrollbar-track-color-filtered:rgb(24, 26, 27);
--ml-main-scrollbar-shadow-color-filtered:rgba(0, 0, 0, 0.3);
--ml-background-saturation-limit:0.7;
--ml-background-contrast:0.5;
--ml-background-lightness-limit:0.14;
--ml-background-gray-saturation:0.05;
--ml-background-gray-hue:200;
--ml-background-replace-all-hues:false;
--ml-background-hue-gravity:0;
--ml-highlighted-background-saturation-limit:0.91;
--ml-highlighted-background-contrast:0.06;
--ml-highlighted-background-lightness-limit:0.4;
--ml-highlighted-background-gray-saturation:0.05;
--ml-highlighted-background-gray-hue:200;
--ml-highlighted-background-replace-all-hues:false;
--ml-highlighted-background-hue-gravity:0;
--ml-button-background-saturation-limit:0.8;
--ml-button-background-contrast:0.04;
--ml-button-background-lightness-limit:0.17;
--ml-button-background-gray-saturation:0.1;
--ml-button-background-gray-hue:190;
--ml-button-background-replace-all-hues:false;
--ml-button-background-hue-gravity:0;
--ml-text-selection-saturation-limit:0.9;
--ml-text-selection-contrast:0;
--ml-text-selection-lightness-limit:0.46;
--ml-text-selection-gray-saturation:0.9;
--ml-text-selection-gray-hue:207;
--ml-text-selection-replace-all-hues:true;
--ml-text-selection-hue-gravity:0;
--ml-text-saturation-limit:0.9;
--ml-text-contrast:0.66;
--ml-text-lightness-limit:0.9;
--ml-text-gray-saturation:0.1;
--ml-text-gray-hue:22;
--ml-text-replace-all-hues:false;
--ml-text-hue-gravity:0;
--ml-highlighted-text-saturation-limit:1;
--ml-highlighted-text-contrast:0.79;
--ml-highlighted-text-lightness-limit:1;
--ml-highlighted-text-gray-saturation:0.1;
--ml-highlighted-text-gray-hue:22;
--ml-highlighted-text-replace-all-hues:false;
--ml-highlighted-text-hue-gravity:0;
--ml-link-saturation-limit:0.8;
--ml-link-contrast:0.55;
--ml-link-lightness-limit:0.75;
--ml-link-gray-saturation:0.74;
--ml-link-gray-hue:207;
--ml-link-replace-all-hues:false;
--ml-link-hue-gravity:0.8;
--ml-link-active-saturation-limit:0.8;
--ml-link-active-contrast:0.55;
--ml-link-active-lightness-limit:0.68;
--ml-link-active-gray-saturation:0.74;
--ml-link-active-gray-hue:207;
--ml-link-active-replace-all-hues:false;
--ml-link-active-hue-gravity:0.8;
--ml-link-hover-saturation-limit:0.8;
--ml-link-hover-contrast:0.61;
--ml-link-hover-lightness-limit:0.83;
--ml-link-hover-gray-saturation:0.74;
--ml-link-hover-gray-hue:207;
--ml-link-hover-replace-all-hues:false;
--ml-link-hover-hue-gravity:0.8;
--ml-visited-link-saturation-limit:0.8;
--ml-visited-link-contrast:0.55;
--ml-visited-link-lightness-limit:0.75;
--ml-visited-link-gray-saturation:0.74;
--ml-visited-link-gray-hue:262;
--ml-visited-link-replace-all-hues:true;
--ml-visited-link-hue-gravity:0;
--ml-visited-link-hover-saturation-limit:0.8;
--ml-visited-link-hover-contrast:0.61;
--ml-visited-link-hover-lightness-limit:0.83;
--ml-visited-link-hover-gray-saturation:0.74;
--ml-visited-link-hover-gray-hue:262;
--ml-visited-link-hover-replace-all-hues:true;
--ml-visited-link-hover-hue-gravity:0;
--ml-visited-link-active-saturation-limit:0.8;
--ml-visited-link-active-contrast:0.55;
--ml-visited-link-active-lightness-limit:0.68;
--ml-visited-link-active-gray-saturation:0.74;
--ml-visited-link-active-gray-hue:262;
--ml-visited-link-active-replace-all-hues:true;
--ml-visited-link-active-hue-gravity:0;
--ml-text-shadow-saturation-limit:0.8;
--ml-text-shadow-contrast:0.8;
--ml-text-shadow-lightness-limit:1;
--ml-text-shadow-gray-saturation:0.1;
--ml-text-shadow-gray-hue:16;
--ml-text-shadow-replace-all-hues:false;
--ml-text-shadow-hue-gravity:0;
--ml-border-saturation-limit:0.8;
--ml-border-contrast:0.3;
--ml-border-lightness-limit:0.5;
--ml-border-gray-saturation:0.1;
--ml-border-gray-hue:16;
--ml-border-replace-all-hues:false;
--ml-border-hue-gravity:0;
--ml-button-border-saturation-limit:0.64;
--ml-button-border-contrast:0.15;
--ml-button-border-lightness-limit:0.4;
--ml-button-border-gray-saturation:0.1;
--ml-button-border-gray-hue:16;
--ml-button-border-replace-all-hues:false;
--ml-button-border-hue-gravity:0;
--ml-scrollbar-hover-saturation-limit:0.05;
--ml-scrollbar-hover-contrast:0;
--ml-scrollbar-hover-lightness-limit:0.4;
--ml-scrollbar-hover-gray-saturation:0.05;
--ml-scrollbar-hover-gray-hue:16;
--ml-scrollbar-hover-replace-all-hues:false;
--ml-scrollbar-hover-hue-gravity:0;
--ml-scrollbar-normal-saturation-limit:0.05;
--ml-scrollbar-normal-contrast:0;
--ml-scrollbar-normal-lightness-limit:0.32;
--ml-scrollbar-normal-gray-saturation:0.05;
--ml-scrollbar-normal-gray-hue:16;
--ml-scrollbar-normal-replace-all-hues:false;
--ml-scrollbar-normal-hue-gravity:0;
--ml-scrollbar-active-saturation-limit:0.05;
--ml-scrollbar-active-contrast:0;
--ml-scrollbar-active-lightness-limit:0.28;
--ml-scrollbar-active-gray-saturation:0.05;
--ml-scrollbar-active-gray-hue:16;
--ml-scrollbar-active-replace-all-hues:false;
--ml-scrollbar-active-hue-gravity:0;
--ml-image-saturation-limit:0.9;
--ml-image-contrast:0.66;
--ml-image-lightness-limit:0.8;
--ml-image-gray-saturation:0.1;
--ml-image-gray-hue:22;
--ml-image-replace-all-hues:false;
--ml-image-hue-gravity:0;
--ml-svg-background-saturation-limit:0.8;
--ml-svg-background-contrast:0.5;
--ml-svg-background-lightness-limit:0.5;
--ml-svg-background-gray-saturation:0.1;
--ml-svg-background-gray-hue:190;
--ml-svg-background-replace-all-hues:false;
--ml-svg-background-hue-gravity:0;
--ml-background-image-saturation-limit:0.8;
--ml-background-image-contrast:0.5;
--ml-background-image-lightness-limit:0.4;
--ml-background-image-gray-saturation:0.05;
--ml-background-image-gray-hue:200;
--ml-background-image-replace-all-hues:false;
--ml-background-image-hue-gravity:0;
--ml-video-saturation-limit:1;
--ml-video-contrast:0.5;
--ml-video-lightness-limit:1;
--ml-video-gray-saturation:0;
--ml-video-gray-hue:0;
--ml-video-replace-all-hues:false;
--ml-video-hue-gravity:0;
--ml-browser:Firefox!important;
--ml-app-id:{8fbc7259-8015-4172-9af1-20e1edfbbd3a};
--ml-version:10.7.1;
--ml-content-filter:'';
--ml-blue-filter:'';
--pdf-bg-filter:url("#pdf-bg-filter");
--ml-invert:1!important;
--ml-is-active:1!important;
--ml-text-filter:saturate(0.9) brightness(0.8);
--ml-contrast-text-filter:saturate(0.9) brightness(0.8);
--ml-highlighted-text-filter:saturate(0.9) brightness(0.8);
--ml-dynamic-content-text-filter:saturate(0.9) brightness(0.8);
--ml-dynamic-content-contrast-text-filter:saturate(0.9) brightness(0.8);
--ml-dynamic-content-highlighted-text-filter:saturate(0.9) brightness(0.8);
--ml-image-filter:saturate(0.9) brightness(0.8);
--ml-image-revert-filter:saturate(1.2);
--ml-bg-image-revert-filter:saturate(1.1);
--ml-button-revert-filter:saturate(1.1);
--ml-text-revert-filter:saturate(1.2);
--ml-video-revert-filter:saturate(1.3);
--ml-bg-revert-filter:none; }</style></svg>